#N canvas 96 115 1314 650 12;
#X obj 170 352 encoder1;
#X msg 453 137 speed \$1;
#X floatatom 453 108 5 0 0 0 - - - 0;
#X floatatom 599 107 5 0 0 0 - - - 0;
#X msg 599 136 angle \$1;
#X msg 453 63 0.1;
#X msg 527 63 0;
#X obj 114 91 noiseburst;
#X obj 58 133 meter;
#X msg 486 63 -0.6;
#X msg 599 63 45;
#X msg 633 63 90, f 2;
#X msg 661 62 180;
#X obj 183 576 dac~ 1 2 3 4;
#X obj 318 450 meter;
#X obj 377 450 meter;
#X obj 434 450 meter;
#X obj 491 449 meter;
#X msg 114 60 freq 10;
#X obj 175 15 loadbang;
#X obj 702 477 mc.meter4;
#X obj 114 133 send~ nb;
#X obj 170 290 receive~ nb;
#X obj 535 176 s enco;
#X obj 223 312 r enco;
#X obj 54 482 tgl 19 0 empty empty empty 0 -10 0 12 #fcfcfc #000000 #000000 0 1;
#X msg 54 506 \; pd dsp \$1;
#X obj 649 608 dac~ 1;
#X obj 647 290 receive~ nb;
#X obj 728 312 r enco;
#X obj 170 387 decoder1 45 135 225 315;
#X text 936 144 multichannel version;
#X obj 328 198 dbamp -100;
#X obj 826 186 dbamp -100;
#X obj 955 606 dac~ 1;
#X obj 954 294 receive~ nb;
#X obj 1035 316 r enco;
#X obj 1224 184 dbamp -100;
#X obj 1008 475 mc.meter8;
#X text 651 368 ambisonic order 1 \, 4 loudspeakers;
#X text 961 371 ambisonic order 3 \, 8 loudspeakers;
#X obj 702 441 mc.gain4;
#X obj 1008 441 mc.gain4;
#X obj 647 347 hoa.encoder1;
#X obj 647 386 hoa.regdecoder1;
#X obj 954 351 hoa.encoder3;
#X obj 954 390 hoa.regdecoder3;
#X connect 0 0 30 0;
#X connect 0 1 30 1;
#X connect 0 2 30 2;
#X connect 1 0 23 0;
#X connect 2 0 1 0;
#X connect 3 0 4 0;
#X connect 4 0 23 0;
#X connect 5 0 2 0;
#X connect 6 0 2 0;
#X connect 7 0 8 0;
#X connect 7 0 21 0;
#X connect 9 0 2 0;
#X connect 10 0 3 0;
#X connect 11 0 3 0;
#X connect 12 0 3 0;
#X connect 18 0 7 0;
#X connect 19 0 18 0;
#X connect 19 0 5 0;
#X connect 22 0 0 0;
#X connect 24 0 0 1;
#X connect 25 0 26 0;
#X connect 28 0 43 0;
#X connect 29 0 43 1;
#X connect 30 0 13 0;
#X connect 30 0 14 0;
#X connect 30 1 13 1;
#X connect 30 1 15 0;
#X connect 30 2 13 2;
#X connect 30 2 16 0;
#X connect 30 3 13 3;
#X connect 30 3 17 0;
#X connect 32 0 30 3;
#X connect 33 0 41 1;
#X connect 35 0 45 0;
#X connect 36 0 45 1;
#X connect 37 0 42 1;
#X connect 41 0 20 0;
#X connect 42 0 38 0;
#X connect 43 0 44 0;
#X connect 44 0 27 0;
#X connect 44 0 41 0;
#X connect 45 0 46 0;
#X connect 46 0 34 0;
#X connect 46 0 42 0;
