#N canvas 1509 73 658 726 10;
#X msg 412 553 \; pd dsp \$1 \;;
#X obj 412 529 tgl 15 0 empty empty empty 17 7 0 10 #fcfcfc #000000 #000000 0 1;
#X obj 36 496 meter;
#X obj 281 495 meter;
#X obj 494 376 r doubledel;
#X obj 281 411 doubledelay;
#X obj 35 101 looper;
#X obj 327 128 loadbang;
#X msg 327 149 1;
#X obj 327 214 metro 100;
#X obj 327 235 random 10000;
#X msg 327 256 duration \$1;
#X obj 327 277 s doubledel;
#X obj 327 170 tgl 16 0 empty empty empty 0 -8 0 10 #fcfcfc #000000 #000000 0 1;
#X msg 444 151 \; doubledel fdbk 0.3;
#X obj 125 537 output~;
#X obj 35 73 r loop;
#X obj 414 235 random 9;
#X msg 414 278 speedfactor \$1;
#X obj 414 256 - 4;
#X obj 414 301 s loop;
#X obj 414 214 metro 15000;
#X obj 14 6 cnv 15 500 25 empty empty doubledelay\ abstraction 20 12 0 18 #606060 #fcfcfc 0;
#X obj 14 32 cnv 15 500 25 empty empty an\ overlapped\ delay\ enabling\ duration\ changes\ without\ clicks 20 12 0 12 #606060 #fcfcfc 0;
#X obj 13 661 pdga_helpcredit;
#X connect 1 0 0 0;
#X connect 4 0 5 1;
#X connect 5 0 3 0;
#X connect 5 0 15 1;
#X connect 6 0 2 0;
#X connect 6 0 5 0;
#X connect 6 0 15 0;
#X connect 7 0 8 0;
#X connect 7 0 14 0;
#X connect 8 0 13 0;
#X connect 9 0 10 0;
#X connect 10 0 11 0;
#X connect 11 0 12 0;
#X connect 13 0 9 0;
#X connect 13 0 21 0;
#X connect 16 0 6 0;
#X connect 17 0 19 0;
#X connect 18 0 20 0;
#X connect 19 0 18 0;
#X connect 21 0 17 0;
