#N canvas 833 201 819 702 10;
#X obj 80 452 dac~;
#X msg 170 498 \; pd dsp \$1 \;;
#X obj 170 474 tgl 15 0 empty empty empty 17 7 0 10 #fcfcfc #000000 #000000 0 1;
#X obj 89 208 *~ 0.2;
#X obj 308 296 mc.gain4;
#X obj 308 451 dac~ 1;
#X obj 363 389 mc.meter4;
#X obj 555 93 dbamp -100;
#X obj 89 252 gain -100;
#X obj 89 183 phasor~ 220;
#X obj 308 262 snake~ in 4;
#X obj 89 74 osc~ 0.1;
#X obj 89 95 +~ 1;
#X obj 89 116 *~ 0.5;
#X obj 89 137 *~ 220;
#X obj 89 158 +~ 220;
#X obj 239 210 noiseburst;
#X obj 239 180 r nb1;
#X obj 309 210 noiseburst;
#X obj 379 210 noiseburst;
#X obj 379 180 r nb3;
#X obj 309 180 r nb2;
#X obj 448 210 noiseburst;
#X obj 448 180 r nb4;
#X msg 557 365 \; nb1 freq 1.5 \; nb1 ratio 31 \; nb2 freq 1.6 \; nb2 ratio 32 \; nb3 freq 1.7 \; nb3 ratio 33 \; nb4 freq 1.8 \; nb4 ratio 34 \;;
#X obj 557 336 loadbang;
#X obj 14 6 cnv 15 500 25 empty empty gain\ and\ mc.gain\ abstractions 20 12 0 18 #606060 #fcfcfc 0;
#X obj 14 32 cnv 15 500 25 empty empty sets\ the\ level\ of\ mono\ or\ multichannel\ signals\ in\ dB 20 12 0 12 #606060 #fcfcfc 0;
#X obj 12 662 pdga_helpcredit;
#X connect 2 0 1 0;
#X connect 3 0 8 0;
#X connect 4 0 6 0;
#X connect 4 0 5 0;
#X connect 7 0 4 1;
#X connect 8 0 0 1;
#X connect 8 0 0 0;
#X connect 9 0 3 0;
#X connect 10 0 4 0;
#X connect 11 0 12 0;
#X connect 12 0 13 0;
#X connect 13 0 14 0;
#X connect 14 0 15 0;
#X connect 15 0 9 0;
#X connect 16 0 10 0;
#X connect 17 0 16 0;
#X connect 18 0 10 1;
#X connect 19 0 10 2;
#X connect 20 0 19 0;
#X connect 21 0 18 0;
#X connect 22 0 10 3;
#X connect 23 0 22 0;
#X connect 25 0 24 0;
