#N canvas 586 237 629 581 10;
#X obj 80 200 snapshot~;
#X floatatom 80 224 5 0 0 0 - - - 0;
#X obj 162 200 snapshot~;
#X floatatom 162 224 5 0 0 0 - - - 0;
#X obj 265 111 loadbang;
#X msg 265 135 1;
#X obj 265 159 metro 10;
#X obj 97 327 gt~;
#X obj 97 375 snapshot~;
#X floatatom 97 399 5 0 0 0 - - - 0;
#X obj 209 436 tgl 36 0 empty empty empty 0 -8 0 10 #dfdfdf #000000 #000000 0 1;
#X obj 14 6 cnv 15 500 25 empty empty gt\ abstraction 20 12 0 18 #606060 #fcfcfc 0;
#X obj 14 32 cnv 15 500 25 empty empty a\ 'greater\ than'\ between\ a\ signal\ and\ a\ value 20 12 0 12 #606060 #fcfcfc 0;
#X obj 13 516 pdga_helpcredit;
#X obj 208 291 vsl 16 136 0 1 0 0 empty empty empty 0 -9 0 10 #00faff #000000 #000000 0 1;
#X obj 230 291 vsl 16 136 0 1 0 0 empty empty empty 0 -9 0 10 #00ff04 #000000 #000000 0 1;
#X msg 395 335 \; pd dsp \$1 \;;
#X obj 395 311 tgl 15 0 empty empty empty 17 7 0 10 #fcfcfc #000000 #000000 0 1;
#X obj 36 113 phasor~ 0.1;
#X obj 118 112 phasor~ 0.15;
#X text 42 314 signal;
#X text 124 313 value;
#X connect 0 0 1 0;
#X connect 1 0 14 0;
#X connect 2 0 3 0;
#X connect 3 0 7 1;
#X connect 3 0 15 0;
#X connect 4 0 5 0;
#X connect 5 0 6 0;
#X connect 6 0 0 0;
#X connect 6 0 2 0;
#X connect 6 0 8 0;
#X connect 7 0 8 0;
#X connect 8 0 9 0;
#X connect 9 0 10 0;
#X connect 17 0 16 0;
#X connect 18 0 0 0;
#X connect 18 0 7 0;
#X connect 19 0 2 0;
