#N canvas 171 313 1068 707 10;
#X msg 452 482 \; pd dsp \$1 \;;
#X obj 452 458 tgl 15 0 empty empty empty 17 7 0 10 #fcfcfc #000000 #000000 0 1;
#X obj 14 6 cnv 15 500 25 empty empty hoa.encoder#n\ abstractions 20 12 0 18 #606060 #fcfcfc 0;
#X obj 14 32 cnv 15 500 25 empty empty ambisonic\ encoding\ at\ order\ n 20 12 0 12 #606060 #fcfcfc 0;
#X obj 13 661 pdga_helpcredit;
#X obj 144 133 noiseburst;
#X obj 87 171 meter;
#X obj 144 110 r n11;
#X obj 443 130 loadbang;
#X obj 188 594 dac~ 1;
#X obj 188 562 mc.gain4;
#X obj 281 372 dbamp -100;
#X obj 51 436 mc.meter4;
#X obj 187 371 hoa.decoder1_4;
#X obj 187 292 hoa.encoder1;
#X obj 268 335 r ctl1;
#X obj 812 594 dac~ 1;
#X obj 905 372 dbamp -100;
#X obj 892 334 r ctl3;
#X obj 811 292 hoa.encoder3;
#X obj 811 371 hoa.decoder3_8;
#X obj 812 562 mc.gain8;
#X obj 644 436 mc.meter8;
#X text 271 292 ambisonic order 1;
#X text 892 291 ambisonic order 3;
#X text 691 41 possible ambisonic orders range from 1 to 7;
#X msg 443 163 \; n11 freq 5 \; n11 ratio 31 \; n12 freq 2 \; n12 ratio 10 \; ctl1 a0 -30 \; ctl1 a1 30 \; ctl1 a2 150 \; ctl1 a3 210 \; ctl1 direct 1 \; ctl1 shift 0 \; ctl1 stereo 0 \; ctl3 a0 0 \; ctl3 a1 45 \; ctl3 a2 90 \; ctl3 a3 135 \; ctl3 a4 180 \; ctl3 a5 225 \; ctl3 a6 270 \; ctl3 a7 315 \; ctl3 stereo 0 \; ctl3 direct 1 \; ctl3 shift 0 \;;
#X obj 773 132 noiseburst;
#X obj 716 170 meter;
#X obj 773 109 r n12;
#X msg 281 257 angle \$1;
#X msg 218 257 speed \$1;
#X floatatom 218 225 5 0 0 0 - - - 0;
#X msg 201 192 0;
#X msg 231 192 0.5;
#X msg 262 192 -1;
#X floatatom 321 224 5 0 0 0 - - - 0;
#X msg 304 191 30;
#X msg 334 191 -30;
#X msg 365 191 150;
#X text 196 167 revolutions/sec;
#X text 302 167 fixed angle (degrees);
#X msg 908 257 angle \$1;
#X msg 845 257 speed \$1;
#X floatatom 845 225 5 0 0 0 - - - 0;
#X msg 828 192 0;
#X msg 858 192 0.5;
#X msg 889 192 -1;
#X floatatom 948 224 5 0 0 0 - - - 0;
#X msg 931 191 30;
#X msg 961 191 -30;
#X msg 992 191 150;
#X text 823 167 revolutions/sec;
#X text 929 167 fixed angle (degrees);
#X connect 1 0 0 0;
#X connect 5 0 6 0;
#X connect 5 0 14 0;
#X connect 7 0 5 0;
#X connect 8 0 26 0;
#X connect 10 0 9 0;
#X connect 11 0 10 1;
#X connect 13 0 10 0;
#X connect 13 0 12 0;
#X connect 14 0 13 0;
#X connect 15 0 13 1;
#X connect 17 0 21 1;
#X connect 18 0 20 1;
#X connect 19 0 20 0;
#X connect 20 0 21 0;
#X connect 20 0 22 0;
#X connect 21 0 16 0;
#X connect 27 0 28 0;
#X connect 27 0 19 0;
#X connect 29 0 27 0;
#X connect 30 0 14 1;
#X connect 31 0 14 1;
#X connect 32 0 31 0;
#X connect 33 0 32 0;
#X connect 34 0 32 0;
#X connect 35 0 32 0;
#X connect 36 0 30 0;
#X connect 37 0 36 0;
#X connect 38 0 36 0;
#X connect 39 0 36 0;
#X connect 42 0 19 1;
#X connect 43 0 19 1;
#X connect 44 0 43 0;
#X connect 45 0 44 0;
#X connect 46 0 44 0;
#X connect 47 0 44 0;
#X connect 48 0 42 0;
#X connect 49 0 48 0;
#X connect 50 0 48 0;
#X connect 51 0 48 0;
