#N canvas 171 313 597 707 10;
#X msg 452 533 \; pd dsp \$1 \;;
#X obj 452 509 tgl 15 0 empty empty empty 17 7 0 10 #fcfcfc #000000 #000000 0 1;
#X obj 14 6 cnv 15 500 25 empty empty hoa.vbap#n\ abstractions 20 12 0 18 #606060 #fcfcfc 0;
#X obj 14 32 cnv 15 500 25 empty empty enables\ the\ vbap\ diffusion\ of\ a\ sound\ source\ through\ n\ loudspeakers 20 12 0 12 #606060 #fcfcfc 0;
#X obj 13 661 pdga_helpcredit;
#X obj 186 127 noiseburst;
#X obj 206 153 meter;
#X obj 186 104 r n11;
#X obj 443 311 loadbang;
#X obj 188 594 dac~ 1;
#X obj 187 371 hoa.vbap4;
#X obj 213 327 r ctl;
#X obj 444 198 tgl 16 0 empty empty empty 0 -8 0 10 #fcfcfc #000000 #000000 0 1;
#X obj 188 562 mc.gain4;
#X obj 281 372 dbamp -100;
#X msg 444 233 direct \$1;
#X obj 444 254 s ctl;
#X obj 256 327 hsl 136 16 0 360 0 0 empty empty empty -2 -8 0 10 #dfdfdf #000000 #000000 0 1;
#X floatatom 252 349 5 0 0 0 - - - 0;
#X obj 51 436 mc.meter4;
#X msg 444 168 1;
#X obj 444 144 loadbang;
#X msg 443 345 \; n11 freq 5 \; n11 ratio 31 \; ctl a0 -30 \; ctl a1 30 \; ctl a2 150 \; ctl a3 210 \; ctl direct 1 \; ctl shift 0 \;;
#X text 295 311 angle in degrees;
#X connect 1 0 0 0;
#X connect 5 0 6 0;
#X connect 5 0 10 0;
#X connect 7 0 5 0;
#X connect 8 0 22 0;
#X connect 10 0 13 0;
#X connect 10 0 19 0;
#X connect 11 0 10 1;
#X connect 12 0 15 0;
#X connect 13 0 9 0;
#X connect 14 0 13 1;
#X connect 15 0 16 0;
#X connect 17 0 18 0;
#X connect 18 0 10 2;
#X connect 20 0 12 0;
#X connect 21 0 20 0;
