#N canvas 677 333 1546 724 10;
#X msg 483 592 \; pd dsp \$1 \;;
#X obj 483 568 tgl 15 0 empty empty empty 17 7 0 10 #fcfcfc #000000 #000000 0 1;
#X obj 14 6 cnv 15 500 25 empty empty hoa.decoder#n_#p\ abstractions 20 12 0 18 #606060 #fcfcfc 0;
#X obj 14 32 cnv 15 500 25 empty empty ambisonic\ decoding\ at\ order\ n\ on\ p\ loudspeakers 20 12 0 12 #606060 #fcfcfc 0;
#X obj 13 689 pdga_helpcredit;
#X obj 49 102 noiseburst;
#X obj 21 148 meter;
#X obj 49 79 r n11;
#X obj 474 238 loadbang;
#X obj 219 594 dac~ 1;
#X obj 475 147 tgl 16 0 empty empty empty 0 -8 0 10 #fcfcfc #000000 #000000 0 1;
#X obj 219 562 mc.gain4;
#X obj 312 372 dbamp -100;
#X msg 475 182 direct \$1;
#X obj 82 436 mc.meter4;
#X msg 475 117 1;
#X obj 475 93 loadbang;
#X obj 218 371 hoa.decoder1_4;
#X obj 218 292 hoa.encoder1;
#X obj 299 335 r ctl1;
#X obj 287 261 r enco1;
#X obj 475 203 s ctl1;
#X obj 544 147 tgl 16 0 empty empty empty 0 -8 0 10 #fcfcfc #000000 #000000 0 1;
#X msg 544 182 direct \$1;
#X obj 843 594 dac~ 1;
#X obj 936 372 dbamp -100;
#X obj 911 261 r enco3;
#X obj 923 334 r ctl3;
#X obj 842 292 hoa.encoder3;
#X obj 842 371 hoa.decoder3_8;
#X obj 843 562 mc.gain8;
#X obj 675 436 mc.meter8;
#X obj 544 203 s ctl3;
#X obj 628 146 tgl 16 0 empty empty empty 0 -8 0 10 #fcfcfc #000000 #000000 0 1;
#X obj 628 202 s ctl1;
#X obj 697 146 tgl 16 0 empty empty empty 0 -8 0 10 #fcfcfc #000000 #000000 0 1;
#X obj 697 202 s ctl3;
#X msg 628 181 stereo \$1;
#X msg 697 181 stereo \$1;
#X msg 628 116 0;
#X text 217 197 ambisonic order 1;
#X text 840 194 ambisonic order 3;
#X text 721 10 this decoder includes a regular decoder;
#X text 720 23 followed by a vbap diffusion for irregular situations;
#X text 722 41 possible ambisonic orders range from 1 to 7;
#X text 722 54 possible number of loudspeakers ranges from 4 to 16;
#X text 722 74 parameters are: the angles of the loudspeakers (a0 \, a1 \, ...) \,, f 62;
#X text 722 87 direct (1/0: anticlockwise/clockwise) \, stereo (1/0) \,;
#X text 722 100 shift (parameter in degrees: angular shifting);
#X obj 49 126 send~ source1;
#X obj 218 237 receive~ source1;
#X msg 474 271 \; n11 freq 5 \; n11 ratio 31 \; n12 freq 2 \; n12 ratio 10 \; enco1 speed 0.5 \; ctl1 a0 -30 \; ctl1 a1 30 \; ctl1 a2 150 \; ctl1 a3 210 \; ctl1 direct 1 \; ctl1 shift 0 \; ctl1 stereo 0 \; enco3 speed -0.3 \; ctl3 a0 0 \; ctl3 a1 45 \; ctl3 a2 90 \; ctl3 a3 135 \; ctl3 a4 180 \; ctl3 a5 225 \; ctl3 a6 270 \; ctl3 a7 315 \; ctl3 stereo 0 \; ctl3 direct 1 \; ctl3 shift 0 \;;
#X obj 159 102 noiseburst;
#X obj 131 148 meter;
#X obj 159 126 send~ source3;
#X obj 159 79 r n12;
#X obj 842 237 receive~ source3;
#X obj 117 328 send~ encoder1 3;
#X obj 1284 683 dac~ 1;
#X obj 1284 651 mc.gain4;
#X obj 1382 460 dbamp -100;
#X obj 1147 525 mc.meter4;
#X obj 1283 460 hoa.regdecoder1;
#X obj 1283 432 receive~ encoder1;
#X text 1170 432 ambisonic order 1;
#X text 1278 378 hoa.regdecoders are regular decoders;
#X text 1279 393 with no vbap and (2n+2) outputs;
#X text 1279 407 if n is the ambisonic order;
#X obj 736 331 send~ encoder3 7;
#X obj 1278 314 dac~ 1;
#X obj 1395 90 dbamp -100;
#X obj 1277 63 receive~ encoder3;
#X text 1164 63 ambisonic order 3;
#X obj 1277 91 hoa.stereodecoder3;
#X obj 1278 282 mc.gain2;
#X obj 1198 139 mc.meter2;
#X text 1273 37 hoa.stereodecoders are stereo decoders;
#X connect 1 0 0 0;
#X connect 5 0 6 0;
#X connect 5 0 49 0;
#X connect 7 0 5 0;
#X connect 8 0 51 0;
#X connect 10 0 13 0;
#X connect 11 0 9 0;
#X connect 12 0 11 1;
#X connect 13 0 21 0;
#X connect 15 0 10 0;
#X connect 15 0 22 0;
#X connect 16 0 15 0;
#X connect 16 0 39 0;
#X connect 17 0 11 0;
#X connect 17 0 14 0;
#X connect 18 0 17 0;
#X connect 18 0 57 0;
#X connect 19 0 17 1;
#X connect 20 0 18 1;
#X connect 22 0 23 0;
#X connect 23 0 32 0;
#X connect 25 0 30 1;
#X connect 26 0 28 1;
#X connect 27 0 29 1;
#X connect 28 0 29 0;
#X connect 28 0 68 0;
#X connect 29 0 30 0;
#X connect 29 0 31 0;
#X connect 30 0 24 0;
#X connect 33 0 37 0;
#X connect 35 0 38 0;
#X connect 37 0 34 0;
#X connect 38 0 36 0;
#X connect 39 0 33 0;
#X connect 39 0 35 0;
#X connect 50 0 18 0;
#X connect 52 0 53 0;
#X connect 52 0 54 0;
#X connect 55 0 52 0;
#X connect 56 0 28 0;
#X connect 59 0 58 0;
#X connect 60 0 59 1;
#X connect 62 0 59 0;
#X connect 62 0 61 0;
#X connect 63 0 62 0;
#X connect 70 0 74 1;
#X connect 71 0 73 0;
#X connect 73 0 74 0;
#X connect 73 0 75 0;
#X connect 74 0 69 0;
