#N canvas 1227 262 753 835 10;
#X msg 465 701 \; pd dsp \$1 \;;
#X obj 465 677 tgl 15 0 empty empty empty 17 7 0 10 #fcfcfc #000000 #000000 0 1;
#X obj 14 6 cnv 15 500 25 empty empty mc.busmult#n\ abstractions 20 12 0 18 #606060 #fcfcfc 0;
#X obj 14 32 cnv 15 500 25 empty empty multiplies\ two\ buses\ of\ n\ channels\ (n\ from\ 1\ to\ 16) 20 12 0 12 #606060 #fcfcfc 0;
#X obj 13 780 pdga_helpcredit;
#X obj 564 461 loadbang;
#X obj 245 713 dac~ 1;
#X obj 338 491 dbamp -100;
#X obj 243 457 mc.busmult4;
#X obj 245 681 mc.gain4;
#X obj 130 512 mc.meter4;
#X obj 92 188 phasor~;
#X floatatom 92 119 5 0 0 0 f0 - - 0;
#X obj 142 145 * 2;
#X obj 192 145 * 3;
#X obj 243 145 * 4;
#X obj 142 188 phasor~;
#X obj 192 188 phasor~;
#X obj 243 188 phasor~;
#X msg 92 96 220;
#X obj 92 75 loadbang;
#X obj 92 224 snake~ in 4;
#X obj 28 291 mc.meter4;
#X obj 339 101 rtgranu;
#X obj 602 76 r g1;
#X obj 362 171 rtgranu;
#X obj 375 243 rtgranu;
#X obj 625 146 r g2;
#X obj 638 218 r g3;
#X obj 327 390 snake~ in 4;
#X obj 390 314 rtgranu;
#X obj 653 289 r g4;
#X obj 440 490 mc.meter4;
#X obj 320 73 sig~ 0.5;
#X msg 564 493 \; g1 grainduration 20 \; g1 delay 1000 \; g1 rarefaction 0.3 \; g1 fdbk 0 \; g1 vol 1 \; g2 grainduration 100 \; g2 delay 500 \; g2 rarefaction 0.6 \; g2 fdbk 0 \; g2 vol 1 \; g3 grainduration 50 \; g3 delay 2000 \; g3 rarefaction 0.7 \; g3 fdbk 0 \; g3 vol 1 \; g4 grainduration 10 \; g4 delay 50 \; g4 rarefaction 0.5 \; g4 fdbk 0 \; g4 vol 1 \;;
#X connect 1 0 0 0;
#X connect 5 0 34 0;
#X connect 7 0 9 1;
#X connect 8 0 10 0;
#X connect 8 0 9 0;
#X connect 9 0 6 0;
#X connect 11 0 21 0;
#X connect 12 0 11 0;
#X connect 12 0 13 0;
#X connect 12 0 14 0;
#X connect 12 0 15 0;
#X connect 13 0 16 0;
#X connect 14 0 17 0;
#X connect 15 0 18 0;
#X connect 16 0 21 1;
#X connect 17 0 21 2;
#X connect 18 0 21 3;
#X connect 19 0 12 0;
#X connect 20 0 19 0;
#X connect 21 0 8 0;
#X connect 21 0 22 0;
#X connect 23 0 29 0;
#X connect 24 0 23 1;
#X connect 25 0 29 1;
#X connect 26 0 29 2;
#X connect 27 0 25 1;
#X connect 28 0 26 1;
#X connect 29 0 8 1;
#X connect 29 0 32 0;
#X connect 30 0 29 3;
#X connect 31 0 30 1;
#X connect 33 0 23 0;
#X connect 33 0 25 0;
#X connect 33 0 26 0;
#X connect 33 0 30 0;
