#N canvas 1178 67 897 704 10;
#X msg 568 485 \; pd dsp \$1 \;;
#X obj 568 461 tgl 15 0 empty empty empty 17 7 0 10 #fcfcfc #000000 #000000 0 1;
#X obj 14 6 cnv 15 500 25 empty empty mc.busselector#i\ abstractions 20 12 0 18 #606060 #fcfcfc 0;
#X obj 14 32 cnv 15 500 25 empty empty enables\ the\ selection\ between\ 2\ audio\ busses\ with\ a\ crossfade\ ramp 20 12 0 12 #606060 #fcfcfc 0;
#X obj 12 662 pdga_helpcredit;
#X obj 644 296 loadbang;
#X msg 781 322 1;
#X obj 781 343 tgl 16 0 empty empty empty 0 -8 0 10 #fcfcfc #000000 #000000 0 1;
#X msg 781 484 out \$1;
#X obj 781 399 bng 16 250 50 0 empty empty empty 0 -8 0 10 #fcfcfc #000000 #000000;
#X floatatom 781 442 5 0 0 0 - - - 0;
#X obj 150 110 noiseburst;
#X obj 223 144 meter;
#X obj 781 505 s ctl1;
#X obj 162 144 r e11;
#X obj 150 87 r n11;
#X obj 641 145 loadbang;
#X obj 303 369 r ctl1;
#X obj 210 624 dac~ 1;
#X obj 383 109 noiseburst;
#X obj 456 143 meter;
#X obj 383 86 r n12;
#X obj 395 143 r e12;
#X obj 93 171 hoa.encoder5;
#X obj 326 170 hoa.encoder5;
#X obj 210 393 mc.busselector11;
#X obj 210 535 hoa.stereodecoder5;
#X obj 781 366 metro 5000;
#X msg 641 165 \; n11 freq 5 \; n11 ratio 31 \; n12 freq 2 \; n12 ratio 10 \; e11 speed 0.2 \; e12 speed -0.5 \;;
#X msg 644 355 \; ctl1 ramptime 500 \;;
#X obj 350 369 dbamp -100;
#X obj 210 578 mc.gain2;
#X obj 781 420 random 2;
#X obj 781 463 + 1;
#X connect 1 0 0 0;
#X connect 5 0 29 0;
#X connect 5 0 6 0;
#X connect 6 0 7 0;
#X connect 7 0 27 0;
#X connect 8 0 13 0;
#X connect 9 0 32 0;
#X connect 10 0 33 0;
#X connect 11 0 12 0;
#X connect 11 0 23 0;
#X connect 14 0 23 1;
#X connect 15 0 11 0;
#X connect 16 0 28 0;
#X connect 17 0 25 2;
#X connect 19 0 20 0;
#X connect 19 0 24 0;
#X connect 21 0 19 0;
#X connect 22 0 24 1;
#X connect 23 0 25 0;
#X connect 24 0 25 1;
#X connect 25 0 26 0;
#X connect 26 0 31 0;
#X connect 27 0 9 0;
#X connect 30 0 31 1;
#X connect 31 0 18 0;
#X connect 32 0 10 0;
#X connect 33 0 8 0;
