#N canvas 1227 262 884 823 10;
#X msg 613 679 \; pd dsp \$1 \;;
#X obj 613 655 tgl 15 0 empty empty empty 17 7 0 10 #fcfcfc #000000 #000000 0 1;
#X obj 14 6 cnv 15 500 25 empty empty mc.busplus#n\ abstractions 20 12 0 18 #606060 #fcfcfc 0;
#X obj 14 32 cnv 15 500 25 empty empty adds\ two\ buses\ of\ n\ channels\ (n\ from\ 1\ to\ 16) 20 12 0 12 #606060 #fcfcfc 0;
#X obj 13 780 pdga_helpcredit;
#X obj 144 133 noiseburst;
#X obj 87 171 meter;
#X obj 144 110 r n11;
#X obj 716 549 loadbang;
#X obj 408 698 dac~ 1;
#X obj 501 476 dbamp -100;
#X obj 488 438 r ctl3;
#X obj 590 292 hoa.encoder3;
#X obj 407 475 hoa.decoder3_8;
#X obj 408 666 mc.gain8;
#X obj 240 540 mc.meter8;
#X text 271 292 ambisonic order 1;
#X text 671 291 ambisonic order 3;
#X obj 552 132 noiseburst;
#X obj 495 170 meter;
#X obj 552 109 r n12;
#X msg 281 257 angle \$1;
#X msg 218 257 speed \$1;
#X floatatom 218 225 5 0 0 0 - - - 0;
#X msg 201 192 0;
#X msg 231 192 0.5;
#X msg 262 192 -1;
#X floatatom 321 224 5 0 0 0 - - - 0;
#X msg 304 191 30;
#X msg 334 191 -30;
#X msg 365 191 150;
#X text 196 167 revolutions/sec;
#X text 302 167 fixed angle (degrees);
#X msg 687 257 angle \$1;
#X msg 624 257 speed \$1;
#X floatatom 624 225 5 0 0 0 - - - 0;
#X msg 607 192 0;
#X msg 637 192 0.5;
#X msg 668 192 -1;
#X floatatom 727 224 5 0 0 0 - - - 0;
#X msg 710 191 30;
#X msg 740 191 -30;
#X msg 771 191 150;
#X text 602 167 revolutions/sec;
#X text 708 167 fixed angle (degrees);
#X obj 187 292 hoa.encoder3;
#X obj 37 377 mc.meter8;
#X obj 661 370 mc.meter8;
#X obj 407 369 mc.busplus8;
#X msg 716 582 \; n11 freq 5 \; n11 ratio 31 \; n12 freq 2 \; n12 ratio 10 \; ctl3 a0 0 \; ctl3 a1 45 \; ctl3 a2 90 \; ctl3 a3 135 \; ctl3 a4 180 \; ctl3 a5 225 \; ctl3 a6 270 \; ctl3 a7 315 \; ctl3 stereo 0 \; ctl3 direct 1 \; ctl3 shift 0 \;;
#X msg 420 439 stereo \$1;
#X obj 420 414 tgl 16 0 empty empty empty 0 -8 0 10 #fcfcfc #000000 #000000 0 1;
#X connect 1 0 0 0;
#X connect 5 0 6 0;
#X connect 5 0 45 0;
#X connect 7 0 5 0;
#X connect 8 0 49 0;
#X connect 10 0 14 1;
#X connect 11 0 13 1;
#X connect 12 0 47 0;
#X connect 12 0 48 1;
#X connect 13 0 14 0;
#X connect 13 0 15 0;
#X connect 14 0 9 0;
#X connect 18 0 19 0;
#X connect 18 0 12 0;
#X connect 20 0 18 0;
#X connect 21 0 45 1;
#X connect 22 0 45 1;
#X connect 23 0 22 0;
#X connect 24 0 23 0;
#X connect 25 0 23 0;
#X connect 26 0 23 0;
#X connect 27 0 21 0;
#X connect 28 0 27 0;
#X connect 29 0 27 0;
#X connect 30 0 27 0;
#X connect 33 0 12 1;
#X connect 34 0 12 1;
#X connect 35 0 34 0;
#X connect 36 0 35 0;
#X connect 37 0 35 0;
#X connect 38 0 35 0;
#X connect 39 0 33 0;
#X connect 40 0 39 0;
#X connect 41 0 39 0;
#X connect 42 0 39 0;
#X connect 45 0 46 0;
#X connect 45 0 48 0;
#X connect 48 0 13 0;
#X connect 50 0 13 1;
#X connect 51 0 50 0;
