#N canvas 271 664 1591 534 10;
#X obj 33 120 player;
#X obj 33 84 r player;
#X msg 143 263 \; player vol 0.5 \;;
#X msg 143 302 \; player vol 0.3 \;;
#X msg 254 263 \; player play 1 \;;
#X msg 253 359 \; player loop 1 \;;
#X msg 253 302 \; player play 0 \;;
#X msg 253 398 \; player loop 0 \;;
#X obj 34 189 meter;
#X msg 144 397 \; pd dsp \$1 \;;
#X obj 144 373 tgl 15 0 empty empty empty 17 7 0 10 #fcfcfc #000000 #000000 0 1;
#X text 178 95 mono player;
#X text 1260 91 stereo player in multichannel;
#X obj 1189 83 r player2;
#X obj 404 118 stereoplayer;
#X obj 404 198 meter;
#X obj 647 202 meter;
#X obj 404 82 r stereoplayer;
#X text 548 97 stereo player;
#X msg 483 262 \; stereoplayer vol 0.5 \;;
#X msg 483 295 \; stereoplayer vol 0.3 \;;
#X msg 483 333 \; stereoplayer play 1 \;;
#X msg 483 366 \; stereoplayer play 0 \;;
#X msg 483 406 \; stereoplayer loop 1 \;;
#X msg 483 439 \; stereoplayer loop 0 \;;
#X obj 1189 110 mc.player2;
#X obj 1150 190 mc.meter2;
#X obj 1296 378 dac~ 1;
#X msg 1418 157 \; player2 vol 0.5 \;;
#X msg 1418 232 \; player2 play 1 \;;
#X msg 1418 271 \; player2 play 0 \;;
#X msg 1418 196 \; player2 vol 0.3 \;;
#X msg 1418 309 \; player2 loop 1 \;;
#X msg 1418 348 \; player2 loop 0 \;;
#X obj 96 189 output~;
#X obj 810 111 quadriplayer;
#X obj 898 422 dac~ 1;
#X obj 484 178 output~;
#X obj 810 80 r qp;
#X msg 802 201 \; qp vol 0.5 \;;
#X obj 896 183 snake~ in 4;
#X obj 898 390 mc.gain4;
#X obj 1015 191 dbamp -100;
#X msg 802 234 \; qp vol 0.3 \;;
#X msg 802 272 \; qp play 1 \;;
#X msg 802 305 \; qp play 0 \;;
#X msg 802 345 \; qp loop 1 \;;
#X msg 802 378 \; qp loop 0 \;;
#X obj 912 221 mc.meter4;
#X obj 1341 157 dbamp -100;
#X obj 1296 346 mc.gain2;
#X text 950 89 quadriplayer;
#X obj 14 6 cnv 15 500 25 empty empty players\ and\ mc.players\ abstractions 20 12 0 18 #606060 #fcfcfc 0;
#X obj 14 32 cnv 15 500 25 empty empty player\,\ stereoplayer\,\ quadriplayer\ and\ mc.players 20 12 0 12 #606060 #fcfcfc 0;
#X obj 13 492 pdga_helpcredit;
#X connect 0 0 34 0;
#X connect 0 0 34 1;
#X connect 0 0 8 0;
#X connect 1 0 0 0;
#X connect 10 0 9 0;
#X connect 13 0 25 0;
#X connect 14 0 15 0;
#X connect 14 0 37 0;
#X connect 14 1 16 0;
#X connect 14 1 37 1;
#X connect 17 0 14 0;
#X connect 25 0 26 0;
#X connect 25 0 50 0;
#X connect 35 0 40 0;
#X connect 35 1 40 1;
#X connect 35 2 40 2;
#X connect 35 3 40 3;
#X connect 38 0 35 0;
#X connect 40 0 41 0;
#X connect 40 0 48 0;
#X connect 41 0 36 0;
#X connect 42 0 41 1;
#X connect 49 0 50 1;
#X connect 50 0 27 0;
