#N canvas 780 169 730 656 10;
#X obj 34 491 recorder;
#X obj 188 444 meter;
#X msg 276 556 \; pd dsp \$1 \;;
#X obj 276 532 tgl 15 0 empty empty empty 17 7 0 10 #fcfcfc #000000 #000000 0 1;
#X obj 50 236 *~ 0.2;
#X obj 50 280 gain -100;
#X obj 50 211 phasor~ 220;
#X obj 50 102 osc~ 0.1;
#X obj 50 123 +~ 1;
#X obj 50 144 *~ 0.5;
#X obj 50 165 *~ 220;
#X obj 50 186 +~ 220;
#X obj 65 461 dac~;
#X obj 364 293 mc.gain4;
#X obj 303 364 dac~ 1;
#X obj 489 411 mc.meter4;
#X obj 611 90 dbamp -100;
#X obj 364 259 snake~ in 4;
#X obj 295 207 noiseburst;
#X obj 295 177 r nb1;
#X obj 365 207 noiseburst;
#X obj 435 207 noiseburst;
#X obj 435 177 r nb3;
#X obj 365 177 r nb2;
#X obj 504 207 noiseburst;
#X obj 504 177 r nb4;
#X msg 613 362 \; nb1 freq 1.5 \; nb1 ratio 31 \; nb2 freq 1.6 \; nb2 ratio 32 \; nb3 freq 1.7 \; nb3 ratio 33 \; nb4 freq 1.8 \; nb4 ratio 34 \;;
#X obj 613 333 loadbang;
#X obj 340 410 mc.recorder4;
#X text 369 136 multichannel version;
#X obj 14 6 cnv 15 500 25 empty empty recorders\ and\ mc.recorders\ abstractions 20 12 0 18 #606060 #fcfcfc 0;
#X obj 14 32 cnv 15 500 25 empty empty recorder\,\ stereorecorder\ and\ mc.recorders 20 12 0 12 #606060 #fcfcfc 0;
#X obj 13 616 pdga_helpcredit;
#X connect 3 0 2 0;
#X connect 4 0 5 0;
#X connect 5 0 0 0;
#X connect 5 0 1 0;
#X connect 5 0 12 0;
#X connect 5 0 12 1;
#X connect 6 0 4 0;
#X connect 7 0 8 0;
#X connect 8 0 9 0;
#X connect 9 0 10 0;
#X connect 10 0 11 0;
#X connect 11 0 6 0;
#X connect 13 0 15 0;
#X connect 13 0 14 0;
#X connect 13 0 28 0;
#X connect 16 0 13 1;
#X connect 17 0 13 0;
#X connect 18 0 17 0;
#X connect 19 0 18 0;
#X connect 20 0 17 1;
#X connect 21 0 17 2;
#X connect 22 0 21 0;
#X connect 23 0 20 0;
#X connect 24 0 17 3;
#X connect 25 0 24 0;
#X connect 27 0 26 0;
