#N canvas 1758 453 866 714 10;
#X obj 44 294 meter;
#X msg 352 520 \; pd dsp \$1 \;;
#X obj 352 496 tgl 15 0 empty empty empty 17 7 0 10 #fcfcfc #000000 #000000 0 1;
#X obj 95 258 *~ 0.2;
#X obj 95 233 phasor~ 220;
#X obj 95 124 osc~ 0.1;
#X obj 95 145 +~ 1;
#X obj 95 166 *~ 0.5;
#X obj 95 187 *~ 220;
#X obj 95 208 +~ 220;
#X obj 256 258 *~ 0.2;
#X obj 256 233 phasor~ 220;
#X obj 256 145 +~ 1;
#X obj 256 166 *~ 0.5;
#X obj 256 187 *~ 220;
#X obj 256 208 +~ 220;
#X obj 256 124 osc~ 0.11;
#X obj 309 292 meter;
#X obj 130 339 mc.gain2;
#X obj 174 93 dbamp -100;
#X obj 130 310 snake~ in 2;
#X obj 130 431 dac~ 1;
#X obj 439 102 *~ 0.5;
#X obj 439 123 -~ 0.25;
#X obj 439 144 cos~;
#X obj 507 105 +~ 0.25;
#X obj 507 148 *~ 0.5;
#X obj 507 169 -~ 0.25;
#X obj 507 190 cos~;
#X obj 425 307 snake~ in 4;
#X obj 507 126 wrap~;
#X obj 425 338 mc.meter4;
#X obj 439 81 phasor~ 1;
#X obj 424 211 *~;
#X obj 492 215 *~;
#X obj 377 81 noise~;
#X obj 377 102 *~ 0.2;
#X obj 562 126 +~ 0.25;
#X obj 562 169 *~ 0.5;
#X obj 562 190 -~ 0.25;
#X obj 562 211 cos~;
#X obj 562 147 wrap~;
#X obj 547 236 *~;
#X obj 523 430 dac~ 1;
#X obj 523 338 mc.gain4;
#X obj 684 70 dbamp -100;
#X obj 616 146 +~ 0.25;
#X obj 616 189 *~ 0.5;
#X obj 616 210 -~ 0.25;
#X obj 616 231 cos~;
#X obj 616 167 wrap~;
#X obj 601 256 *~;
#X obj 175 368 mc.meter2;
#X obj 14 6 cnv 15 500 25 empty empty meter\ and\ mc.meter\ abstractions 20 12 0 18 #606060 #fcfcfc 0;
#X obj 14 32 cnv 15 500 25 empty empty displays\ the\ level\ of\ mono\ or\ multichannel\ signals\ in\ dB 20 12 0 12 #606060 #fcfcfc 0;
#X obj 12 662 pdga_helpcredit;
#X connect 2 0 1 0;
#X connect 3 0 0 0;
#X connect 3 0 20 0;
#X connect 4 0 3 0;
#X connect 5 0 6 0;
#X connect 6 0 7 0;
#X connect 7 0 8 0;
#X connect 8 0 9 0;
#X connect 9 0 4 0;
#X connect 10 0 17 0;
#X connect 10 0 20 1;
#X connect 11 0 10 0;
#X connect 12 0 13 0;
#X connect 13 0 14 0;
#X connect 14 0 15 0;
#X connect 15 0 11 0;
#X connect 16 0 12 0;
#X connect 18 0 21 0;
#X connect 18 0 52 0;
#X connect 19 0 18 1;
#X connect 20 0 18 0;
#X connect 22 0 23 0;
#X connect 23 0 24 0;
#X connect 24 0 33 1;
#X connect 25 0 30 0;
#X connect 25 0 37 0;
#X connect 26 0 27 0;
#X connect 27 0 28 0;
#X connect 28 0 34 1;
#X connect 29 0 31 0;
#X connect 29 0 44 0;
#X connect 30 0 26 0;
#X connect 32 0 22 0;
#X connect 32 0 25 0;
#X connect 33 0 29 0;
#X connect 34 0 29 1;
#X connect 35 0 36 0;
#X connect 36 0 33 0;
#X connect 36 0 34 0;
#X connect 36 0 42 0;
#X connect 36 0 51 0;
#X connect 37 0 41 0;
#X connect 37 0 46 0;
#X connect 38 0 39 0;
#X connect 39 0 40 0;
#X connect 40 0 42 1;
#X connect 41 0 38 0;
#X connect 42 0 29 2;
#X connect 44 0 43 0;
#X connect 45 0 44 1;
#X connect 46 0 50 0;
#X connect 47 0 48 0;
#X connect 48 0 49 0;
#X connect 49 0 51 1;
#X connect 50 0 47 0;
#X connect 51 0 29 3;
