#N canvas 308 244 928 705 10;
#X obj 672 131 loadbang;
#X msg 91 585 \; pd dsp \$1 \;;
#X obj 91 561 tgl 15 0 empty empty empty 17 7 0 10 #fcfcfc #000000 #000000 0 1;
#X obj 90 375 meter;
#X obj 400 474 meter;
#X obj 402 152 r pong;
#X obj 401 307 musdelay;
#X obj 604 273 r musdel;
#X msg 520 447 \; musdel fdbk 0 \; musdel tempo 60 \; musdel duration 1 \; musdel fdbk 0 \;;
#X msg 520 580 \; musdel fdbk 0 \; musdel tempo 120 \; musdel duration 1 \; musdel fdbk 0.5 \;;
#X msg 655 446 \; musdel fdbk 0 \; musdel tempo 1000 \; musdel duration 1 \; musdel fdbk 0.95 \;;
#X msg 656 512 \; musdel fdbk 0 \; musdel tempo 1000 \; musdel duration 0.5 \; musdel fdbk 0.95 \;;
#X msg 657 580 \; musdel fdbk 0 \; musdel tempo 1000 \; musdel duration 0.25 \; musdel fdbk 0.95 \;;
#X msg 672 162 \; pong freq 880 \; pong attack 5 \; pong release 200 \; pong vol 0.2 \;;
#X obj 232 452 output~;
#X obj 89 180 mypong;
#X obj 89 91 loadbang;
#X msg 89 112 1;
#X obj 89 135 tgl 15 0 empty empty empty 17 7 0 10 #fcfcfc #000000 #000000 0 1;
#X obj 89 155 metro 3000;
#X obj 14 6 cnv 15 500 25 empty empty musdelay\ abstraction 20 12 0 18 #606060 #fcfcfc 0;
#X obj 14 32 cnv 15 500 25 empty empty a\ delay\ controlled\ with\ a\ musical\ duration\ and\ a\ tempo\ in\ bpm 20 12 0 12 #606060 #fcfcfc 0;
#X obj 13 661 pdga_helpcredit;
#X msg 520 513 \; musdel fdbk 0 \; musdel tempo 60 \; musdel duration 0.5 \; musdel fdbk 0.5 \;;
#X text 452 85 for the duration: 1 is a quarter \, 0.5 an eigth note..;
#X text 453 98 the tempo is expressed in bpm;
#X msg 798 162 \; pong freq 440 \; pong attack 20 \; pong release 400 \; pong vol 0.2 \;;
#X connect 0 0 13 0;
#X connect 2 0 1 0;
#X connect 5 0 15 1;
#X connect 6 0 4 0;
#X connect 6 0 14 1;
#X connect 7 0 6 1;
#X connect 15 0 3 0;
#X connect 15 0 6 0;
#X connect 15 0 14 0;
#X connect 16 0 17 0;
#X connect 17 0 18 0;
#X connect 18 0 19 0;
#X connect 19 0 15 0;
