#N canvas 699 271 1000 726 10;
#X obj 463 203 r pong1;
#X obj 828 206 r pong2;
#X obj 149 164 metro 1000;
#X obj 515 166 metro 1200;
#X obj 320 78 loadbang;
#X msg 320 99 1;
#X obj 320 122 tgl 15 0 empty empty empty 17 7 0 10 #fcfcfc #000000 #000000 0 1;
#X obj 229 531 loadbang;
#X msg 440 616 \; pd dsp \$1 \;;
#X obj 440 592 tgl 15 0 empty empty empty 17 7 0 10 #fcfcfc #000000 #000000 0 1;
#X obj 48 435 meter;
#X obj 614 445 meter;
#X msg 229 562 \; pong1 freq 880 \; pong1 attack 5 \; pong1 release 200 \; pong1 vol 0.2 \; pong2 freq 440 \; pong2 attack 20 \; pong2 release 300 \; pong2 vol 0.2 \;;
#X obj 330 454 output~;
#X obj 150 244 mypong;
#X obj 515 245 mypong;
#X obj 14 6 cnv 15 500 25 empty empty mypong\ abstraction 20 12 0 18 #606060 #fcfcfc 0;
#X obj 14 32 cnv 15 500 25 empty empty souvenirs\ from\ a\ very\ old\ video\ game 20 12 0 12 #606060 #fcfcfc 0;
#X obj 13 683 pdga_helpcredit;
#X connect 0 0 14 1;
#X connect 1 0 15 1;
#X connect 2 0 14 0;
#X connect 3 0 15 0;
#X connect 4 0 5 0;
#X connect 5 0 6 0;
#X connect 6 0 3 0;
#X connect 6 0 2 0;
#X connect 7 0 12 0;
#X connect 9 0 8 0;
#X connect 14 0 10 0;
#X connect 14 0 13 0;
#X connect 15 0 11 0;
#X connect 15 0 13 1;
