#N canvas 529 113 495 323 10;
#X obj 34 15 r player;
#X msg 334 70 \; player vol 0.5 \;;
#X msg 334 103 \; player vol 0.3 \;;
#X msg 334 141 \; player play 1 \;;
#X msg 333 214 \; player loop 1 \;;
#X msg 333 174 \; player play 0 \;;
#X msg 333 247 \; player loop 0 \;;
#X msg 185 260 \; pd dsp \$1 \;;
#X obj 185 236 tgl 15 0 empty empty empty 17 7 0 10 #fcfcfc #000000 #000000 0 1;
#X obj 34 51 player4;
#X obj 142 138 dac~ 1;
#X obj 34 137 meter4;
#X connect 0 0 9 0;
#X connect 8 0 7 0;
#X connect 9 0 10 0;
#X connect 9 0 11 0;
