#N canvas 529 113 554 451 10;
#X obj 33 15 r player;
#X msg 413 51 \; player vol 0.5 \;;
#X msg 413 84 \; player vol 0.3 \;;
#X msg 413 122 \; player play 1 \;;
#X msg 413 195 \; player loop 1 \;;
#X msg 413 155 \; player play 0 \;;
#X msg 413 228 \; player loop 0 \;;
#X obj 34 269 meter;
#X obj 89 269 meter;
#X msg 403 380 \; pd dsp \$1 \;;
#X obj 403 356 tgl 15 0 empty empty empty 17 7 0 10 #fcfcfc #000000 #000000 0 1;
#X obj 33 51 quadriplayer;
#X obj 281 207 dac~ 1 2 3 4;
#X obj 144 269 meter;
#X obj 199 269 meter;
#X connect 0 0 11 0;
#X connect 10 0 9 0;
#X connect 11 0 7 0;
#X connect 11 0 12 0;
#X connect 11 1 8 0;
#X connect 11 1 12 1;
#X connect 11 2 12 2;
#X connect 11 2 13 0;
#X connect 11 3 12 3;
#X connect 11 3 14 0;
