#N canvas 1595 151 586 730 10;
#X obj 48 143 scope;
#X obj 48 111 *~ 0.6;
#X obj 387 93 r scope;
#X obj 52 603 s scope;
#X msg 52 535 onoff \$1;
#X obj 52 500 tgl 15 0 empty empty empty 17 7 0 10 #fcfcfc #000000 #000000 0 1;
#X floatatom 135 513 5 0 0 0 - - - 0;
#X msg 135 490 86;
#X text 47 446 Scope controls;
#X obj 235 444 loadbang;
#X msg 135 536 ticktime \$1;
#X msg 224 535 buffersize \$1;
#X floatatom 224 512 5 0 0 0 - - - 0;
#X msg 224 489 512;
#X msg 259 489 256;
#X msg 292 489 128;
#X floatatom 329 512 5 0 0 0 - - - 0;
#X msg 329 535 amprange \$1;
#X msg 329 489 1;
#X msg 364 489 2;
#X obj 48 87 phasor~ 200;
#X msg 397 489 5;
#X msg 332 622 \; pd dsp \$1 \;;
#X obj 332 598 tgl 15 0 empty empty empty 17 7 0 10 #fcfcfc #000000 #000000 0 1;
#X obj 14 6 cnv 15 500 25 empty empty scope\ abstraction 20 12 0 18 #606060 #fcfcfc 0;
#X obj 14 32 cnv 15 500 25 empty empty temporal\ visualization\ of\ the\ signal 20 12 0 12 #606060 #fcfcfc 0;
#X obj 13 680 pdga_helpcredit;
#X connect 1 0 0 0;
#X connect 2 0 0 1;
#X connect 4 0 3 0;
#X connect 5 0 4 0;
#X connect 6 0 10 0;
#X connect 7 0 6 0;
#X connect 9 0 7 0;
#X connect 9 0 13 0;
#X connect 9 0 18 0;
#X connect 10 0 3 0;
#X connect 11 0 3 0;
#X connect 12 0 11 0;
#X connect 13 0 12 0;
#X connect 14 0 12 0;
#X connect 15 0 12 0;
#X connect 16 0 17 0;
#X connect 17 0 3 0;
#X connect 18 0 16 0;
#X connect 19 0 16 0;
#X connect 20 0 1 0;
#X connect 21 0 16 0;
#X connect 23 0 22 0;
