#N canvas 833 201 977 704 10;
#X msg 425 473 \; pd dsp \$1 \;;
#X obj 425 449 tgl 15 0 empty empty empty 17 7 0 10 #fcfcfc #000000 #000000 0 1;
#X obj 14 6 cnv 15 500 25 empty empty selector2\ and\ selector2-mod\ abstractions 20 12 0 18 #606060 #fcfcfc 0;
#X obj 14 32 cnv 15 500 25 empty empty enables\ the\ selection\ between\ 2\ audio\ sources\ with\ a\ crossfade\ ramp 20 12 0 12 #606060 #fcfcfc 0;
#X obj 12 662 pdga_helpcredit;
#X obj 375 197 meter;
#X obj 319 197 meter;
#X obj 217 197 selector2;
#X obj 217 369 output~;
#X obj 217 130 phasor~ 220;
#X obj 374 131 phasor~ 440;
#X obj 707 273 loadbang;
#X msg 844 299 1;
#X obj 844 320 tgl 16 0 empty empty empty 0 -8 0 10 #fcfcfc #000000 #000000 0 1;
#X msg 844 450 out \$1;
#X obj 844 471 s ctl;
#X obj 844 397 random 3;
#X obj 844 376 bng 16 250 50 0 empty empty empty 0 -8 0 10 #fcfcfc #000000 #000000;
#X floatatom 844 418 5 0 0 0 - - - 0;
#X obj 844 344 metro 1000;
#X msg 707 326 \; ctl ramptime 750 \;;
#X text 469 218 selector2-mod is the abstraction without interface;
#X obj 457 197 selector2-mod;
#X obj 532 131 r ctl;
#X obj 457 249 output~;
#X text 34 199 selector2 is the abstraction;
#X text 35 213 with its interface;
#X connect 1 0 0 0;
#X connect 7 0 8 0;
#X connect 9 0 6 0;
#X connect 9 0 7 0;
#X connect 9 0 22 0;
#X connect 10 0 5 0;
#X connect 10 0 7 1;
#X connect 10 0 22 1;
#X connect 11 0 20 0;
#X connect 11 0 12 0;
#X connect 12 0 13 0;
#X connect 13 0 19 0;
#X connect 14 0 15 0;
#X connect 16 0 18 0;
#X connect 17 0 16 0;
#X connect 18 0 14 0;
#X connect 19 0 17 0;
#X connect 22 0 24 0;
#X connect 23 0 7 2;
#X connect 23 0 22 2;
