#N struct 11509-template-master float x float x2 float color float colort float xs float ys symbol sym;
#N canvas 683 253 584 713 10;
#X msg 43 525 onoff \$1;
#X obj 43 490 tgl 15 0 empty empty empty 17 7 0 10 #fcfcfc #000000 #000000 0 1;
#X obj 174 435 loadbang;
#X floatatom 163 503 5 0 0 0 - - - 0;
#X floatatom 268 503 5 0 0 0 - - - 0;
#X obj 39 77 phasor~ 200;
#X obj 378 83 r spectrogram;
#X obj 39 150 spectrogram;
#X msg 163 526 fftsize \$1;
#X msg 268 526 ampscale \$1;
#X obj 43 593 s spectrogram;
#X text 38 436 Spectrogram controls;
#X msg 163 480 1024;
#X msg 198 480 512;
#X msg 231 480 2048;
#X msg 268 480 0;
#X msg 304 480 1;
#X msg 336 480 2;
#X msg 304 616 \; pd dsp \$1 \;;
#X obj 304 592 tgl 15 0 empty empty empty 17 7 0 10 #fcfcfc #000000 #000000 0 1;
#X obj 13 665 pdga_helpcredit;
#X obj 14 6 cnv 15 500 25 empty empty spectrogram\ abstraction 20 12 0 18 #606060 #fcfcfc 0;
#X obj 14 32 cnv 15 500 25 empty empty a\ spectrogram\ visualizer 20 12 0 12 #606060 #fcfcfc 0;
#X connect 0 0 10 0;
#X connect 1 0 0 0;
#X connect 2 0 12 0;
#X connect 2 0 15 0;
#X connect 3 0 8 0;
#X connect 4 0 9 0;
#X connect 5 0 7 0;
#X connect 6 0 7 1;
#X connect 8 0 10 0;
#X connect 9 0 10 0;
#X connect 12 0 3 0;
#X connect 13 0 3 0;
#X connect 14 0 3 0;
#X connect 15 0 4 0;
#X connect 16 0 4 0;
#X connect 17 0 4 0;
#X connect 19 0 18 0;
