#N canvas 389 25 442 519 10;
#X obj 89 232 dac~;
#X obj 213 322 meter;
#X obj 272 322 meter;
#X msg 307 146 \; pd dsp \$1 \;;
#X obj 307 122 tgl 15 0 empty empty empty 17 7 0 10 -262144 -1 -1 0
1;
#X obj 88 39 osc~ 440;
#X obj 88 60 *~ 0.2;
#X obj 160 61 *~ 0.2;
#X obj 160 39 osc~ 442;
#X obj 34 391 stereorecorder;
#X connect 4 0 3 0;
#X connect 5 0 6 0;
#X connect 6 0 1 0;
#X connect 6 0 0 0;
#X connect 6 0 9 0;
#X connect 7 0 2 0;
#X connect 7 0 0 1;
#X connect 7 0 9 1;
#X connect 8 0 7 0;
