#N canvas 1393 248 369 663 10;
#X obj 34 73 vsl 15 128 -100 18 0 0 empty empty empty 0 -9 0 10 #dfdfdf #000000 #000000 0 1;
#X obj 34 2 loadbang;
#X floatatom 34 207 5 0 0 0 - - - 0;
#X obj 34 26 f \$1;
#X obj 53 144 bng 15 250 50 0 empty empty R 17 7 0 10 #ffffff #000000 #000000;
#X obj 34 432 outlet;
#X msg 107 73 0;
#X text 66 209 dB;
#X obj 53 107 bng 15 250 50 0 empty empty O 17 7 0 10 #dfdfdf #000000 #000000;
#X obj 53 126 bng 15 250 50 0 empty empty -100 17 7 0 10 #dfdfdf #000000 #000000;
#X msg 34 241 \$1 20;
#X msg 34 405 vol \$1;
#X obj 34 327 dbtorms;
#X floatatom 34 348 13 0 0 0 - - - 0;
#X obj 34 262 line -100;
#X msg 120 158 -100;
#X obj 34 285 + 100;
#X connect 0 0 2 0;
#X connect 1 0 3 0;
#X connect 2 0 10 0;
#X connect 3 0 0 0;
#X connect 4 0 3 0;
#X connect 6 0 0 0;
#X connect 8 0 6 0;
#X connect 9 0 15 0;
#X connect 10 0 14 0;
#X connect 11 0 5 0;
#X connect 12 0 13 0;
#X connect 13 0 11 0;
#X connect 14 0 16 0;
#X connect 15 0 0 0;
#X connect 16 0 12 0;
#X coords 0 -1 1 1 65 180 1 30 50;
