#N canvas 905 364 607 554 10;
#X obj 61 67 inlet~;
#X obj 113 67 inlet~;
#X obj 165 67 inlet~;
#X obj 212 214 encoder1;
#X obj 299 214 encoder1;
#X obj 386 215 encoder1;
#X obj 473 215 encoder1;
#X obj 302 67 sig~ 0.66667;
#X obj 448 96 loadbang;
#X text 396 66 2/(2*n+1);
#X obj 61 91 *~ 0.5;
#X obj 118 499 outlet~;
#X obj 176 499 outlet~;
#X obj 234 499 outlet~;
#X obj 291 499 outlet~;
#X msg 458 140 speed 0;
#X msg 265 173 angle 45;
#X msg 352 174 angle 135;
#X msg 439 174 angle 225;
#X msg 527 174 angle 315;
#X obj 68 238 snake~ in 3;
#X obj 201 248 snake~ in 3;
#X obj 292 248 snake~ in 3;
#X obj 381 247 snake~ in 3;
#X obj 468 247 snake~ in 3;
#X obj 71 330 scalarproduct3;
#X obj 201 329 scalarproduct3;
#X obj 332 329 scalarproduct3;
#X obj 458 329 scalarproduct3;
#X connect 0 0 10 0;
#X connect 1 0 20 1;
#X connect 2 0 20 2;
#X connect 3 0 21 0;
#X connect 3 1 21 1;
#X connect 3 2 21 2;
#X connect 4 0 22 0;
#X connect 4 1 22 1;
#X connect 4 2 22 2;
#X connect 5 0 23 0;
#X connect 5 1 23 1;
#X connect 5 2 23 2;
#X connect 6 0 24 0;
#X connect 6 1 24 1;
#X connect 6 2 24 2;
#X connect 7 0 3 0;
#X connect 7 0 4 0;
#X connect 7 0 5 0;
#X connect 7 0 6 0;
#X connect 8 0 16 0;
#X connect 8 0 17 0;
#X connect 8 0 18 0;
#X connect 8 0 19 0;
#X connect 8 0 15 0;
#X connect 10 0 20 0;
#X connect 15 0 6 1;
#X connect 15 0 5 1;
#X connect 15 0 4 1;
#X connect 15 0 3 1;
#X connect 16 0 3 1;
#X connect 17 0 4 1;
#X connect 18 0 5 1;
#X connect 19 0 6 1;
#X connect 20 0 25 0;
#X connect 20 0 26 0;
#X connect 20 0 27 0;
#X connect 20 0 28 0;
#X connect 21 0 25 1;
#X connect 22 0 26 1;
#X connect 23 0 27 1;
#X connect 24 0 28 1;
#X connect 25 0 11 0;
#X connect 26 0 12 0;
#X connect 27 0 13 0;
#X connect 28 0 14 0;
