#N canvas 593 109 361 602 10;
#X obj 108 53 env~;
#X obj 108 75 - 100;
#X obj 104 118 vu 10 120 empty empty -1 -8 0 10 #404040 #000000 1 0;
#X obj 249 20 inlet~;
#X obj 148 127 vsl 15 95 -120 18 0 0 empty empty dB 0 -9 0 10 #fcfcfc #000000 #000000 0 1;
#X floatatom 148 227 5 0 0 0 - - - 0;
#X floatatom 148 395 10 0 0 0 - - - 0;
#X obj 148 371 dbtorms;
#X obj 148 260 + 120;
#X floatatom 148 283 5 0 0 0 - - - 0;
#X obj 148 303 / 138;
#X floatatom 148 345 5 0 0 0 - - - 0;
#X obj 148 324 * 118;
#X obj 249 230 *~;
#X obj 250 563 outlet~;
#X msg 148 419 \$1 20;
#X obj 148 447 line~;
#X obj 149 16 loadbang;
#X obj 149 40 f \$1;
#X obj 166 210 bng 15 250 50 0 empty empty empty 17 7 0 10 #fcfcfc #000000 #000000;
#X connect 0 0 1 0;
#X connect 1 0 2 1;
#X connect 3 0 13 0;
#X connect 4 0 5 0;
#X connect 5 0 8 0;
#X connect 6 0 15 0;
#X connect 7 0 6 0;
#X connect 8 0 9 0;
#X connect 9 0 10 0;
#X connect 10 0 12 0;
#X connect 11 0 7 0;
#X connect 12 0 11 0;
#X connect 13 0 0 0;
#X connect 13 0 14 0;
#X connect 15 0 16 0;
#X connect 16 0 13 1;
#X connect 17 0 18 0;
#X connect 18 0 4 0;
#X connect 19 0 18 0;
#X coords 0 -1 1 1 85 145 1 100 100;
