#N canvas 52 66 571 699 10;
#X obj 73 572 outlet~;
#X obj 134 452 *~;
#X obj 198 453 *~;
#X obj 203 379 sinandcos 1;
#X obj 73 519 snake~ in 3;
#X obj 14 6 cnv 15 500 25 empty empty mc.cstencoder1 20 12 0 18 #606060 #fcfcfc 0;
#X obj 14 32 cnv 15 500 25 empty empty multichannel\ ambisonic\ constant\ encoder\ at\ order\ 1 20 12 0 12 #606060 #fcfcfc 0;
#X obj 12 662 pdga_helpcredit;
#X obj 70 110 loadbang;
#X msg 70 150 1;
#X obj 146 150 float \$1;
#X text 203 150 index between 0 and 2*N+1;
#X obj 71 225 cstforencoder;
#X text 13 134 ambisonic order N;
#X floatatom 146 171 5 0 0 0 - - - 0;
#X connect 1 0 4 1;
#X connect 2 0 4 2;
#X connect 3 0 1 1;
#X connect 3 1 2 1;
#X connect 4 0 0 0;
#X connect 8 0 9 0;
#X connect 8 0 10 0;
#X connect 9 0 12 0;
#X connect 10 0 14 0;
#X connect 12 0 2 0;
#X connect 12 0 1 0;
#X connect 12 0 4 0;
#X connect 12 1 3 0;
#X connect 14 0 12 1;
