#N canvas 272 137 571 699 10;
#X obj 73 572 outlet~;
#X obj 134 452 *~;
#X obj 198 453 *~;
#X obj 203 379 sinandcos 1;
#X obj 203 182 expr $f1 / 360;
#X obj 203 109 inlet;
#X obj 73 519 snake~ in 3;
#X obj 14 6 cnv 15 500 25 empty empty mc.cstencoder1 20 12 0 18 #606060 #fcfcfc 0;
#X obj 14 32 cnv 15 500 25 empty empty multichannel\ ambisonic\ constant\ encoder\ at\ order\ 1 20 12 0 12 #606060 #fcfcfc 0;
#X obj 12 662 pdga_helpcredit;
#X text 242 109 angle in degrees;
#X obj 203 203 sig~;
#X obj 70 110 loadbang;
#X msg 70 131 1;
#X floatatom 70 183 9 0 0 0 - - - 0;
#X obj 70 203 sig~;
#X obj 70 162 expr 2/(2*$f1+1);
#X connect 1 0 6 1;
#X connect 2 0 6 2;
#X connect 3 0 1 1;
#X connect 3 1 2 1;
#X connect 4 0 11 0;
#X connect 5 0 4 0;
#X connect 6 0 0 0;
#X connect 11 0 3 0;
#X connect 12 0 13 0;
#X connect 13 0 16 0;
#X connect 14 0 15 0;
#X connect 15 0 6 0;
#X connect 15 0 1 0;
#X connect 15 0 2 0;
#X connect 16 0 14 0;
