#N canvas 592 151 571 699 10;
#X obj 73 572 outlet~;
#X obj 134 452 *~;
#X obj 198 453 *~;
#X obj 203 379 sinandcos 1;
#X obj 203 182 expr $f1 / 360;
#X obj 203 109 inlet;
#X obj 14 6 cnv 15 500 25 empty empty mc.cstencoder2 20 12 0 18 #606060 #fcfcfc 0;
#X obj 14 32 cnv 15 500 25 empty empty multichannel\ ambisonic\ constant\ encoder\ at\ order\ 2 20 12 0 12 #606060 #fcfcfc 0;
#X obj 12 662 pdga_helpcredit;
#X text 242 109 angle in degrees;
#X obj 203 203 sig~;
#X obj 297 380 sinandcos 2;
#X obj 240 453 *~;
#X obj 304 454 *~;
#X obj 73 519 snake~ in 5;
#X obj 70 110 loadbang;
#X floatatom 70 183 9 0 0 0 - - - 0;
#X obj 70 203 sig~;
#X obj 70 162 expr 2/(2*$f1+1);
#X msg 70 131 2;
#X connect 1 0 14 1;
#X connect 2 0 14 2;
#X connect 3 0 1 1;
#X connect 3 1 2 1;
#X connect 4 0 10 0;
#X connect 5 0 4 0;
#X connect 10 0 3 0;
#X connect 10 0 11 0;
#X connect 11 0 12 1;
#X connect 11 1 13 1;
#X connect 12 0 14 3;
#X connect 13 0 14 4;
#X connect 14 0 0 0;
#X connect 15 0 19 0;
#X connect 16 0 17 0;
#X connect 17 0 14 0;
#X connect 17 0 1 0;
#X connect 17 0 2 0;
#X connect 17 0 12 0;
#X connect 17 0 13 0;
#X connect 18 0 16 0;
#X connect 19 0 18 0;
