#N canvas 592 151 767 699 10;
#X obj 73 572 outlet~;
#X obj 134 452 *~;
#X obj 198 453 *~;
#X obj 203 379 sinandcos 1;
#X obj 14 6 cnv 15 500 25 empty empty mc.cstencoder5 20 12 0 18 #606060 #fcfcfc 0;
#X obj 14 32 cnv 15 500 25 empty empty multichannel\ ambisonic\ constant\ encoder\ at\ order\ 5 20 12 0 12 #606060 #fcfcfc 0;
#X obj 12 662 pdga_helpcredit;
#X obj 297 380 sinandcos 2;
#X obj 240 453 *~;
#X obj 304 454 *~;
#X obj 345 454 *~;
#X obj 409 454 *~;
#X obj 402 380 sinandcos 3;
#X obj 449 455 *~;
#X obj 513 455 *~;
#X obj 506 381 sinandcos 4;
#X obj 565 456 *~;
#X obj 629 456 *~;
#X obj 622 382 sinandcos 5;
#X obj 73 519 snake~ in 11, f 56;
#X obj 70 110 loadbang;
#X obj 146 150 float \$1;
#X text 203 150 index between 0 and 2*N+1;
#X obj 71 225 cstforencoder;
#X text 13 134 ambisonic order N;
#X floatatom 146 171 5 0 0 0 - - - 0;
#X msg 70 150 5;
#X connect 1 0 19 1;
#X connect 2 0 19 2;
#X connect 3 0 1 1;
#X connect 3 1 2 1;
#X connect 7 0 8 1;
#X connect 7 1 9 1;
#X connect 8 0 19 3;
#X connect 9 0 19 4;
#X connect 10 0 19 5;
#X connect 11 0 19 6;
#X connect 12 0 10 1;
#X connect 12 1 11 1;
#X connect 13 0 19 7;
#X connect 14 0 19 8;
#X connect 15 0 13 1;
#X connect 15 1 14 1;
#X connect 16 0 19 9;
#X connect 17 0 19 10;
#X connect 18 0 16 1;
#X connect 18 1 17 1;
#X connect 19 0 0 0;
#X connect 20 0 26 0;
#X connect 20 0 21 0;
#X connect 21 0 25 0;
#X connect 23 0 1 0;
#X connect 23 0 2 0;
#X connect 23 0 19 0;
#X connect 23 0 8 0;
#X connect 23 0 9 0;
#X connect 23 0 10 0;
#X connect 23 0 11 0;
#X connect 23 0 13 0;
#X connect 23 0 14 0;
#X connect 23 0 16 0;
#X connect 23 0 17 0;
#X connect 23 1 3 0;
#X connect 23 1 7 0;
#X connect 23 1 12 0;
#X connect 23 1 15 0;
#X connect 23 1 18 0;
#X connect 25 0 23 1;
#X connect 26 0 23 0;
