#N canvas 795 245 1084 538 10;
#X obj 448 79 loadbang;
#X text 383 66 2/(2*n+1);
#X obj 36 157 *~ 0.5;
#X obj 241 483 outlet~;
#X msg 448 112 speed 0;
#X obj 64 43 inlet~;
#X msg 352 174 angle \$1;
#X msg 265 173 angle \$1;
#X msg 449 174 angle \$1;
#X msg 535 174 angle \$1;
#X obj 265 148 float \$1;
#X obj 352 149 float \$2;
#X obj 457 149 float \$3;
#X obj 535 150 float \$4;
#X obj 928 45 inlet;
#X text 924 70 message amp + value;
#X msg 650 174 angle \$1;
#X msg 744 174 angle \$1;
#X obj 650 150 float \$5;
#X obj 744 150 float \$6;
#X obj 303 46 sig~ 0.285714;
#X obj 202 215 mc.encoder3;
#X obj 289 215 mc.encoder3;
#X obj 386 215 mc.encoder3;
#X obj 473 214 mc.encoder3;
#X obj 588 214 mc.encoder3;
#X obj 682 214 mc.encoder3;
#X msg 843 174 angle \$1;
#X msg 937 174 angle \$1;
#X obj 781 214 mc.encoder3;
#X obj 875 214 mc.encoder3;
#X obj 843 150 float \$7;
#X obj 937 150 float \$8;
#X obj 71 330 mc.scalarproduct7;
#X obj 201 329 mc.scalarproduct7;
#X obj 332 329 mc.scalarproduct7;
#X obj 241 400 snake~ in 8, f 34;
#X obj 458 329 mc.scalarproduct7;
#X obj 579 329 mc.scalarproduct7;
#X obj 705 329 mc.scalarproduct7;
#X obj 830 329 mc.scalarproduct7;
#X obj 956 329 mc.scalarproduct7;
#X obj 68 238 snake~ in 7;
#X obj 64 95 snake~ out 7;
#X obj 241 441 mc.gain8;
#X connect 0 0 4 0;
#X connect 0 0 10 0;
#X connect 0 0 11 0;
#X connect 0 0 12 0;
#X connect 0 0 13 0;
#X connect 0 0 18 0;
#X connect 0 0 19 0;
#X connect 0 0 31 0;
#X connect 0 0 32 0;
#X connect 2 0 42 0;
#X connect 4 0 21 1;
#X connect 4 0 22 1;
#X connect 4 0 23 1;
#X connect 4 0 24 1;
#X connect 4 0 25 1;
#X connect 4 0 26 1;
#X connect 5 0 43 0;
#X connect 6 0 22 1;
#X connect 7 0 21 1;
#X connect 8 0 23 1;
#X connect 9 0 24 1;
#X connect 10 0 7 0;
#X connect 11 0 6 0;
#X connect 12 0 8 0;
#X connect 13 0 9 0;
#X connect 14 0 44 1;
#X connect 16 0 25 1;
#X connect 17 0 26 1;
#X connect 18 0 16 0;
#X connect 19 0 17 0;
#X connect 20 0 21 0;
#X connect 20 0 22 0;
#X connect 20 0 23 0;
#X connect 20 0 24 0;
#X connect 20 0 25 0;
#X connect 20 0 26 0;
#X connect 20 0 29 0;
#X connect 20 0 30 0;
#X connect 21 0 33 1;
#X connect 22 0 34 1;
#X connect 23 0 35 1;
#X connect 24 0 37 1;
#X connect 25 0 38 1;
#X connect 26 0 39 1;
#X connect 27 0 29 1;
#X connect 28 0 30 1;
#X connect 29 0 40 1;
#X connect 30 0 41 1;
#X connect 31 0 27 0;
#X connect 32 0 28 0;
#X connect 33 0 36 0;
#X connect 34 0 36 1;
#X connect 35 0 36 2;
#X connect 36 0 44 0;
#X connect 37 0 36 3;
#X connect 38 0 36 4;
#X connect 39 0 36 5;
#X connect 40 0 36 6;
#X connect 41 0 36 7;
#X connect 42 0 33 0;
#X connect 42 0 34 0;
#X connect 42 0 35 0;
#X connect 42 0 37 0;
#X connect 42 0 38 0;
#X connect 42 0 39 0;
#X connect 42 0 40 0;
#X connect 42 0 41 0;
#X connect 43 0 2 0;
#X connect 43 1 42 1;
#X connect 43 2 42 2;
#X connect 43 3 42 3;
#X connect 43 4 42 4;
#X connect 43 5 42 5;
#X connect 43 6 42 6;
#X connect 44 0 3 0;
