#N canvas 1294 238 824 538 10;
#X obj 302 67 sig~ 0.66667;
#X obj 448 79 loadbang;
#X text 383 66 2/(2*n+1);
#X obj 46 155 *~ 0.5;
#X obj 241 483 outlet~;
#X msg 448 112 speed 0;
#X obj 68 238 snake~ in 3;
#X obj 202 215 mc.encoder1;
#X obj 289 215 mc.encoder1;
#X obj 386 215 mc.encoder1;
#X obj 473 214 mc.encoder1;
#X obj 241 400 snake~ in 4;
#X obj 64 95 snake~ out 3;
#X obj 64 43 inlet~;
#X msg 352 174 angle \$1;
#X msg 265 173 angle \$1;
#X msg 449 174 angle \$1;
#X msg 535 174 angle \$1;
#X obj 265 148 float \$1;
#X obj 71 330 mc.scalarproduct3;
#X obj 201 329 mc.scalarproduct3;
#X obj 332 329 mc.scalarproduct3;
#X obj 458 329 mc.scalarproduct3;
#X obj 352 149 float \$2;
#X obj 457 149 float \$3;
#X obj 535 150 float \$4;
#X obj 642 47 inlet;
#X obj 241 441 mc.gain4;
#X text 638 72 message amp + value;
#X connect 0 0 7 0;
#X connect 0 0 8 0;
#X connect 0 0 9 0;
#X connect 0 0 10 0;
#X connect 1 0 5 0;
#X connect 1 0 18 0;
#X connect 1 0 23 0;
#X connect 1 0 24 0;
#X connect 1 0 25 0;
#X connect 3 0 6 0;
#X connect 5 0 7 1;
#X connect 5 0 8 1;
#X connect 5 0 9 1;
#X connect 5 0 10 1;
#X connect 6 0 19 0;
#X connect 6 0 20 0;
#X connect 6 0 21 0;
#X connect 6 0 22 0;
#X connect 7 0 19 1;
#X connect 8 0 20 1;
#X connect 9 0 21 1;
#X connect 10 0 22 1;
#X connect 11 0 27 0;
#X connect 12 0 3 0;
#X connect 12 1 6 1;
#X connect 12 2 6 2;
#X connect 13 0 12 0;
#X connect 14 0 8 1;
#X connect 15 0 7 1;
#X connect 16 0 9 1;
#X connect 17 0 10 1;
#X connect 18 0 15 0;
#X connect 19 0 11 0;
#X connect 20 0 11 1;
#X connect 21 0 11 2;
#X connect 22 0 11 3;
#X connect 23 0 14 0;
#X connect 24 0 16 0;
#X connect 25 0 17 0;
#X connect 26 0 27 1;
#X connect 27 0 4 0;
