#N canvas 0 37 1455 562 10;
#X obj 439 79 loadbang;
#X text 372 79 2/(2*n+1);
#X obj 28 195 *~ 0.5;
#X obj 233 492 outlet~;
#X msg 439 111 speed 0;
#X obj 56 81 inlet~;
#X msg 344 212 angle \$1;
#X msg 257 211 angle \$1;
#X msg 441 212 angle \$1;
#X msg 527 212 angle \$1;
#X obj 257 186 float \$1;
#X obj 344 187 float \$2;
#X obj 449 187 float \$3;
#X obj 527 188 float \$4;
#X obj 920 83 inlet;
#X msg 642 212 angle \$1;
#X msg 736 212 angle \$1;
#X obj 642 188 float \$5;
#X obj 736 188 float \$6;
#X msg 835 212 angle \$1;
#X msg 929 212 angle \$1;
#X obj 835 188 float \$7;
#X obj 929 188 float \$8;
#X obj 14 6 cnv 15 500 25 empty empty mc.decoder5 20 12 0 18 #606060 #fcfcfc 0;
#X obj 14 32 cnv 15 500 25 empty empty multichannel\ ambisonic\ decoder\ at\ order\ 5\ to\ 12\ loudspeakers 20 12 0 12 #606060 #fcfcfc 0;
#X obj 12 522 pdga_helpcredit;
#X obj 193 367 mc.scalarproduct9;
#X obj 324 367 mc.scalarproduct9;
#X obj 450 367 mc.scalarproduct9;
#X obj 571 367 mc.scalarproduct9;
#X obj 697 367 mc.scalarproduct9;
#X obj 822 367 mc.scalarproduct9;
#X obj 948 367 mc.scalarproduct9;
#X text 916 108 message amp + value in dB;
#X obj 1065 366 mc.scalarproduct9;
#X obj 1191 366 mc.scalarproduct9;
#X msg 1029 211 angle \$1;
#X msg 1123 211 angle \$1;
#X obj 1029 187 float \$9;
#X obj 1123 187 float \$10;
#X obj 56 133 snake~ out 11, f 15;
#X obj 58 276 snake~ in 11, f 15;
#X obj 289 80 sig~ 0.181818;
#X obj 194 253 mc.encoder5;
#X obj 281 253 mc.encoder5;
#X obj 378 253 mc.encoder5;
#X obj 465 252 mc.encoder5;
#X obj 580 252 mc.encoder5;
#X obj 674 252 mc.encoder5;
#X obj 773 252 mc.encoder5;
#X obj 867 252 mc.encoder5;
#X obj 967 251 mc.encoder5;
#X obj 1061 251 mc.encoder5;
#X obj 233 438 snake~ in 12, f 73;
#X obj 233 464 mc.gain12;
#X obj 63 368 mc.scalarproduct11;
#X msg 1212 210 angle \$1;
#X msg 1306 210 angle \$1;
#X obj 1150 250 mc.encoder5;
#X obj 1244 250 mc.encoder5;
#X obj 1212 186 float \$11;
#X obj 1306 186 float \$12;
#X connect 0 0 4 0;
#X connect 0 0 10 0;
#X connect 0 0 11 0;
#X connect 0 0 12 0;
#X connect 0 0 13 0;
#X connect 0 0 17 0;
#X connect 0 0 18 0;
#X connect 0 0 21 0;
#X connect 0 0 22 0;
#X connect 0 0 38 0;
#X connect 0 0 39 0;
#X connect 0 0 52 1;
#X connect 0 0 60 0;
#X connect 0 0 61 0;
#X connect 2 0 41 0;
#X connect 4 0 43 1;
#X connect 4 0 44 1;
#X connect 4 0 45 1;
#X connect 4 0 46 1;
#X connect 4 0 47 1;
#X connect 4 0 48 1;
#X connect 4 0 49 1;
#X connect 4 0 50 1;
#X connect 4 0 51 1;
#X connect 5 0 40 0;
#X connect 6 0 44 1;
#X connect 7 0 43 1;
#X connect 8 0 45 1;
#X connect 9 0 46 1;
#X connect 10 0 7 0;
#X connect 11 0 6 0;
#X connect 12 0 8 0;
#X connect 13 0 9 0;
#X connect 14 0 54 1;
#X connect 15 0 47 1;
#X connect 16 0 48 1;
#X connect 17 0 15 0;
#X connect 18 0 16 0;
#X connect 19 0 49 1;
#X connect 20 0 50 1;
#X connect 21 0 19 0;
#X connect 22 0 20 0;
#X connect 26 0 53 1;
#X connect 27 0 53 2;
#X connect 28 0 53 3;
#X connect 29 0 53 4;
#X connect 30 0 53 5;
#X connect 31 0 53 6;
#X connect 32 0 53 7;
#X connect 34 0 53 8;
#X connect 35 0 53 9;
#X connect 36 0 51 1;
#X connect 37 0 52 1;
#X connect 38 0 36 0;
#X connect 39 0 37 0;
#X connect 40 0 2 0;
#X connect 40 1 41 1;
#X connect 40 2 41 2;
#X connect 40 3 41 3;
#X connect 40 4 41 4;
#X connect 40 5 41 5;
#X connect 40 6 41 6;
#X connect 40 7 41 7;
#X connect 40 8 41 8;
#X connect 40 9 41 9;
#X connect 40 10 41 10;
#X connect 41 0 26 0;
#X connect 41 0 27 0;
#X connect 41 0 28 0;
#X connect 41 0 29 0;
#X connect 41 0 30 0;
#X connect 41 0 31 0;
#X connect 41 0 32 0;
#X connect 41 0 34 0;
#X connect 41 0 35 0;
#X connect 41 0 55 0;
#X connect 42 0 43 0;
#X connect 42 0 44 0;
#X connect 42 0 45 0;
#X connect 42 0 46 0;
#X connect 42 0 47 0;
#X connect 42 0 48 0;
#X connect 42 0 49 0;
#X connect 42 0 50 0;
#X connect 42 0 51 0;
#X connect 42 0 52 0;
#X connect 43 0 55 1;
#X connect 44 0 26 1;
#X connect 45 0 27 1;
#X connect 46 0 28 1;
#X connect 47 0 29 1;
#X connect 48 0 30 1;
#X connect 49 0 31 1;
#X connect 50 0 32 1;
#X connect 51 0 34 1;
#X connect 52 0 35 1;
#X connect 53 0 54 0;
#X connect 54 0 3 0;
#X connect 55 0 53 0;
#X connect 56 0 58 1;
#X connect 57 0 59 1;
#X connect 60 0 56 0;
#X connect 61 0 57 0;
