#N canvas 0 37 1259 562 10;
#X obj 439 79 loadbang;
#X obj 28 195 *~ 0.5;
#X obj 233 492 outlet~;
#X obj 56 81 inlet~;
#X obj 161 189 float \$1;
#X obj 252 188 float \$2;
#X obj 345 188 float \$3;
#X obj 438 186 float \$4;
#X obj 920 83 inlet;
#X obj 530 185 float \$5;
#X obj 623 184 float \$6;
#X obj 717 184 float \$7;
#X obj 811 183 float \$8;
#X obj 14 6 cnv 15 500 25 empty empty mc.decoder4 20 12 0 18 #606060 #fcfcfc 0;
#X obj 14 32 cnv 15 500 25 empty empty multichannel\ ambisonic\ decoder\ at\ order\ 4\ to\ 10\ loudspeakers 20 12 0 12 #606060 #fcfcfc 0;
#X obj 12 522 pdga_helpcredit;
#X obj 56 133 snake~ out 9, f 15;
#X obj 58 276 snake~ in 9, f 15;
#X text 916 108 message amp + value in dB;
#X obj 233 438 snake~ in 10, f 73;
#X obj 233 464 mc.gain10;
#X obj 904 182 float \$9;
#X obj 998 182 float \$10;
#X obj 161 253 mc.cstencoder4;
#X obj 253 253 mc.cstencoder4;
#X obj 346 253 mc.cstencoder4;
#X obj 439 253 mc.cstencoder4;
#X obj 531 253 mc.cstencoder4;
#X obj 624 253 mc.cstencoder4;
#X obj 718 253 mc.cstencoder4;
#X obj 812 254 mc.cstencoder4;
#X obj 905 254 mc.cstencoder4;
#X obj 999 254 mc.cstencoder4;
#X obj 63 368 mc.sp9;
#X obj 193 367 mc.sp9;
#X obj 324 367 mc.sp9;
#X obj 450 367 mc.sp9;
#X obj 571 367 mc.sp9;
#X obj 697 367 mc.sp9;
#X obj 822 367 mc.sp9;
#X obj 948 367 mc.sp9;
#X obj 1065 366 mc.sp9;
#X obj 1191 366 mc.sp9;
#X connect 0 0 4 0;
#X connect 0 0 5 0;
#X connect 0 0 6 0;
#X connect 0 0 7 0;
#X connect 0 0 9 0;
#X connect 0 0 10 0;
#X connect 0 0 11 0;
#X connect 0 0 12 0;
#X connect 0 0 21 0;
#X connect 0 0 22 0;
#X connect 1 0 17 0;
#X connect 3 0 16 0;
#X connect 4 0 23 0;
#X connect 5 0 24 0;
#X connect 6 0 25 0;
#X connect 7 0 26 0;
#X connect 8 0 20 1;
#X connect 9 0 27 0;
#X connect 10 0 28 0;
#X connect 11 0 29 0;
#X connect 12 0 30 0;
#X connect 16 0 1 0;
#X connect 16 1 17 1;
#X connect 16 2 17 2;
#X connect 16 3 17 3;
#X connect 16 4 17 4;
#X connect 16 5 17 5;
#X connect 16 6 17 6;
#X connect 16 7 17 7;
#X connect 16 8 17 8;
#X connect 17 0 33 0;
#X connect 17 0 34 0;
#X connect 17 0 35 0;
#X connect 17 0 36 0;
#X connect 17 0 37 0;
#X connect 17 0 38 0;
#X connect 17 0 39 0;
#X connect 17 0 40 0;
#X connect 17 0 41 0;
#X connect 17 0 42 0;
#X connect 19 0 20 0;
#X connect 20 0 2 0;
#X connect 21 0 31 0;
#X connect 22 0 32 0;
#X connect 23 0 33 1;
#X connect 24 0 34 1;
#X connect 25 0 35 1;
#X connect 26 0 36 1;
#X connect 27 0 37 1;
#X connect 28 0 38 1;
#X connect 29 0 39 1;
#X connect 30 0 40 1;
#X connect 31 0 41 1;
#X connect 32 0 42 1;
#X connect 33 0 19 0;
#X connect 34 0 19 1;
#X connect 35 0 19 2;
#X connect 36 0 19 3;
#X connect 37 0 19 4;
#X connect 38 0 19 5;
#X connect 39 0 19 6;
#X connect 40 0 19 7;
#X connect 41 0 19 8;
#X connect 42 0 19 9;
