#N canvas 0 37 1348 562 10;
#X obj 439 79 loadbang;
#X obj 28 195 *~ 0.5;
#X obj 216 495 outlet~;
#X obj 56 81 inlet~;
#X obj 257 186 float \$1;
#X obj 344 187 float \$2;
#X obj 449 187 float \$3;
#X obj 527 188 float \$4;
#X obj 920 83 inlet;
#X obj 595 187 float \$5;
#X obj 661 188 float \$6;
#X obj 751 186 float \$7;
#X obj 847 186 float \$8;
#X obj 14 6 cnv 15 500 25 empty empty mc.decoder5 20 12 0 18 #606060 #fcfcfc 0;
#X obj 14 32 cnv 15 500 25 empty empty multichannel\ ambisonic\ decoder\ at\ order\ 5\ to\ 12\ loudspeakers 20 12 0 12 #606060 #fcfcfc 0;
#X obj 12 522 pdga_helpcredit;
#X text 916 108 message amp + value in dB;
#X obj 942 184 float \$9;
#X obj 1033 183 float \$10;
#X obj 56 133 snake~ out 11, f 15;
#X obj 60 252 snake~ in 11, f 15;
#X obj 216 441 snake~ in 12, f 73;
#X obj 216 467 mc.gain12;
#X obj 1132 184 float \$11;
#X obj 1226 184 float \$12;
#X obj 59 368 mc.sp11;
#X obj 139 368 mc.sp11;
#X obj 232 368 mc.sp11;
#X obj 345 367 mc.sp11;
#X obj 434 367 mc.sp11;
#X obj 525 367 mc.sp11;
#X obj 610 367 mc.sp11;
#X obj 709 367 mc.sp11;
#X obj 792 366 mc.sp11;
#X obj 862 365 mc.sp11;
#X obj 180 253 mc.cstencoder5;
#X obj 281 253 mc.cstencoder5;
#X obj 378 253 mc.cstencoder5;
#X obj 471 253 mc.cstencoder5;
#X obj 565 253 mc.cstencoder5;
#X obj 657 253 mc.cstencoder5;
#X obj 753 253 mc.cstencoder5;
#X obj 848 253 mc.cstencoder5;
#X obj 942 253 mc.cstencoder5;
#X obj 1034 252 mc.cstencoder5;
#X obj 1132 252 mc.cstencoder5;
#X obj 923 364 mc.sp11;
#X obj 993 363 mc.sp11;
#X obj 1226 252 mc.cstencoder5;
#X connect 0 0 4 0;
#X connect 0 0 5 0;
#X connect 0 0 6 0;
#X connect 0 0 7 0;
#X connect 0 0 9 0;
#X connect 0 0 10 0;
#X connect 0 0 11 0;
#X connect 0 0 12 0;
#X connect 0 0 17 0;
#X connect 0 0 18 0;
#X connect 0 0 23 0;
#X connect 0 0 24 0;
#X connect 1 0 20 0;
#X connect 3 0 19 0;
#X connect 4 0 35 0;
#X connect 5 0 36 0;
#X connect 6 0 37 0;
#X connect 7 0 38 0;
#X connect 8 0 22 1;
#X connect 9 0 39 0;
#X connect 10 0 40 0;
#X connect 11 0 41 0;
#X connect 12 0 42 0;
#X connect 17 0 43 0;
#X connect 18 0 44 0;
#X connect 19 0 1 0;
#X connect 19 1 20 1;
#X connect 19 2 20 2;
#X connect 19 3 20 3;
#X connect 19 4 20 4;
#X connect 19 5 20 5;
#X connect 19 6 20 6;
#X connect 19 7 20 7;
#X connect 19 8 20 8;
#X connect 19 9 20 9;
#X connect 19 10 20 10;
#X connect 20 0 25 0;
#X connect 20 0 26 0;
#X connect 20 0 27 0;
#X connect 20 0 28 0;
#X connect 20 0 29 0;
#X connect 20 0 30 0;
#X connect 20 0 31 0;
#X connect 20 0 32 0;
#X connect 20 0 33 0;
#X connect 20 0 34 0;
#X connect 20 0 46 0;
#X connect 20 0 47 0;
#X connect 21 0 22 0;
#X connect 22 0 2 0;
#X connect 23 0 45 0;
#X connect 24 0 48 0;
#X connect 25 0 21 0;
#X connect 26 0 21 1;
#X connect 27 0 21 2;
#X connect 28 0 21 3;
#X connect 29 0 21 4;
#X connect 30 0 21 5;
#X connect 31 0 21 6;
#X connect 32 0 21 7;
#X connect 33 0 21 8;
#X connect 34 0 21 9;
#X connect 35 0 25 1;
#X connect 36 0 26 1;
#X connect 37 0 27 1;
#X connect 38 0 28 1;
#X connect 39 0 29 1;
#X connect 40 0 30 1;
#X connect 41 0 31 1;
#X connect 42 0 32 1;
#X connect 43 0 33 1;
#X connect 44 0 34 1;
#X connect 45 0 46 1;
#X connect 46 0 21 10;
#X connect 47 0 21 11;
#X connect 48 0 47 1;
