#N canvas 367 217 829 559 10;
#X obj 429 98 loadbang;
#X obj 17 191 *~ 0.5;
#X obj 219 466 outlet~;
#X obj 45 99 inlet~;
#X obj 149 188 float \$1;
#X obj 241 188 float \$2;
#X obj 332 187 float \$3;
#X obj 425 186 float \$4;
#X obj 623 100 inlet;
#X obj 49 345 mc.scalarproduct5;
#X obj 179 344 mc.scalarproduct5;
#X obj 310 344 mc.scalarproduct5;
#X obj 436 344 mc.scalarproduct5;
#X obj 557 344 mc.scalarproduct5;
#X obj 683 344 mc.scalarproduct5;
#X obj 49 272 snake~ in 5;
#X obj 45 129 snake~ out 5;
#X obj 219 415 snake~ in 6, f 34;
#X obj 219 440 mc.gain6;
#X obj 519 186 float \$5;
#X obj 611 185 float \$6;
#X obj 14 6 cnv 15 500 25 empty empty mc.decoder2 20 12 0 18 #606060 #fcfcfc 0;
#X obj 14 32 cnv 15 500 25 empty empty multichannel\ ambisonic\ decoder\ at\ order\ 2\ to\ 6\ loudspeakers 20 12 0 12 #606060 #fcfcfc 0;
#X obj 12 522 pdga_helpcredit;
#X text 619 125 message amp + value in dB;
#X obj 149 249 mc.cstencoder2;
#X obj 241 249 mc.cstencoder2;
#X obj 333 249 mc.cstencoder2;
#X obj 425 249 mc.cstencoder2;
#X obj 519 249 mc.cstencoder2;
#X obj 612 249 mc.cstencoder2;
#X connect 0 0 4 0;
#X connect 0 0 5 0;
#X connect 0 0 6 0;
#X connect 0 0 7 0;
#X connect 0 0 19 0;
#X connect 0 0 20 0;
#X connect 1 0 15 0;
#X connect 3 0 16 0;
#X connect 4 0 25 0;
#X connect 5 0 26 0;
#X connect 6 0 27 0;
#X connect 7 0 28 0;
#X connect 8 0 18 1;
#X connect 9 0 17 0;
#X connect 10 0 17 1;
#X connect 11 0 17 2;
#X connect 12 0 17 3;
#X connect 13 0 17 4;
#X connect 14 0 17 5;
#X connect 15 0 9 0;
#X connect 15 0 10 0;
#X connect 15 0 11 0;
#X connect 15 0 12 0;
#X connect 15 0 13 0;
#X connect 15 0 14 0;
#X connect 16 0 1 0;
#X connect 16 1 15 1;
#X connect 16 2 15 2;
#X connect 16 3 15 3;
#X connect 16 4 15 4;
#X connect 17 0 18 0;
#X connect 18 0 2 0;
#X connect 19 0 29 0;
#X connect 20 0 30 0;
#X connect 25 0 9 1;
#X connect 26 0 10 1;
#X connect 27 0 11 1;
#X connect 28 0 12 1;
#X connect 29 0 13 1;
#X connect 30 0 14 1;
