#N canvas 144 111 788 563 10;
#X obj 328 102 loadbang;
#X obj 27 191 *~ 0.5;
#X obj 211 487 outlet~;
#X obj 38 274 snake~ in 3;
#X obj 211 420 snake~ in 4;
#X obj 34 131 snake~ out 3;
#X obj 34 79 inlet~;
#X obj 171 193 float \$1;
#X obj 41 366 mc.scalarproduct3;
#X obj 171 365 mc.scalarproduct3;
#X obj 302 365 mc.scalarproduct3;
#X obj 428 365 mc.scalarproduct3;
#X obj 264 193 float \$2;
#X obj 355 192 float \$3;
#X obj 447 191 float \$4;
#X obj 612 83 inlet;
#X obj 211 461 mc.gain4;
#X obj 14 6 cnv 15 500 25 empty empty mc.decoder1 20 12 0 18 #606060 #fcfcfc 0;
#X obj 14 32 cnv 15 500 25 empty empty multichannel\ ambisonic\ decoder\ at\ order\ 1\ to\ 4\ loudspeakers 20 12 0 12 #606060 #fcfcfc 0;
#X obj 12 522 pdga_helpcredit;
#X text 608 108 message amp + value in dB;
#X obj 172 251 mc.cstencoder1;
#X obj 264 251 mc.cstencoder1;
#X obj 356 251 mc.cstencoder1;
#X obj 447 251 mc.cstencoder1;
#X connect 0 0 7 0;
#X connect 0 0 12 0;
#X connect 0 0 13 0;
#X connect 0 0 14 0;
#X connect 1 0 3 0;
#X connect 3 0 8 0;
#X connect 3 0 9 0;
#X connect 3 0 10 0;
#X connect 3 0 11 0;
#X connect 4 0 16 0;
#X connect 5 0 1 0;
#X connect 5 1 3 1;
#X connect 5 2 3 2;
#X connect 6 0 5 0;
#X connect 7 0 21 0;
#X connect 8 0 4 0;
#X connect 9 0 4 1;
#X connect 10 0 4 2;
#X connect 11 0 4 3;
#X connect 12 0 22 0;
#X connect 13 0 23 0;
#X connect 14 0 24 0;
#X connect 15 0 16 1;
#X connect 16 0 2 0;
#X connect 21 0 8 1;
#X connect 22 0 9 1;
#X connect 23 0 10 1;
#X connect 24 0 11 1;
