#N canvas 1197 432 676 559 10;
#X obj 69 30 inlet~;
#X text 15 29 signal;
#X obj 73 495 outlet~;
#X obj 134 375 *~;
#X obj 198 376 *~;
#X obj 408 302 sinandcos 1;
#X obj 407 103 phasor~;
#X obj 471 103 expr $f1 / 360;
#X obj 408 270 +~;
#X obj 407 31 inlet;
#X obj 407 68 route speed angle returntime;
#X obj 498 137 != 0;
#X obj 407 225 *~;
#X obj 498 188 line;
#X floatatom 497 215 5 0 0 0 - - - 0;
#X obj 498 161 pack 0 100;
#X obj 490 303 sinandcos 2;
#X obj 268 376 *~;
#X obj 332 377 *~;
#X obj 574 303 sinandcos 3;
#X obj 391 378 *~;
#X obj 455 379 *~;
#X obj 73 442 snake~ in 7, f 19;
#X connect 0 0 3 0;
#X connect 0 0 4 0;
#X connect 0 0 17 0;
#X connect 0 0 18 0;
#X connect 0 0 20 0;
#X connect 0 0 21 0;
#X connect 0 0 22 0;
#X connect 3 0 22 1;
#X connect 4 0 22 2;
#X connect 5 0 3 1;
#X connect 5 1 4 1;
#X connect 6 0 12 0;
#X connect 7 0 8 1;
#X connect 8 0 5 0;
#X connect 8 0 16 0;
#X connect 8 0 19 0;
#X connect 9 0 10 0;
#X connect 10 0 6 0;
#X connect 10 0 11 0;
#X connect 10 1 7 0;
#X connect 10 2 15 1;
#X connect 11 0 15 0;
#X connect 12 0 8 0;
#X connect 13 0 12 1;
#X connect 13 0 14 0;
#X connect 15 0 13 0;
#X connect 16 0 17 1;
#X connect 16 1 18 1;
#X connect 17 0 22 3;
#X connect 18 0 22 4;
#X connect 19 0 20 1;
#X connect 19 1 21 1;
#X connect 22 0 2 0;
