#N canvas 689 104 571 699 10;
#X obj 69 109 inlet~;
#X text 15 108 signal;
#X obj 73 572 outlet~;
#X obj 134 452 *~;
#X obj 198 453 *~;
#X obj 203 379 sinandcos 1;
#X obj 203 180 phasor~;
#X obj 267 180 expr $f1 / 360;
#X obj 203 347 +~;
#X obj 203 108 inlet;
#X obj 203 145 route speed angle returntime;
#X obj 294 214 != 0;
#X obj 203 302 *~;
#X obj 294 265 line;
#X floatatom 293 292 5 0 0 0 - - - 0;
#X obj 294 238 pack 0 100;
#X obj 73 519 snake~ in 3;
#X obj 14 6 cnv 15 500 25 empty empty mc.encoder1 20 12 0 18 #606060 #fcfcfc 0;
#X obj 14 32 cnv 15 500 25 empty empty multichannel\ ambisonic\ encoder\ at\ order\ 1 20 12 0 12 #606060 #fcfcfc 0;
#X obj 12 662 pdga_helpcredit;
#X connect 0 0 3 0;
#X connect 0 0 4 0;
#X connect 0 0 16 0;
#X connect 3 0 16 1;
#X connect 4 0 16 2;
#X connect 5 0 3 1;
#X connect 5 1 4 1;
#X connect 6 0 12 0;
#X connect 7 0 8 1;
#X connect 8 0 5 0;
#X connect 9 0 10 0;
#X connect 10 0 6 0;
#X connect 10 0 11 0;
#X connect 10 1 7 0;
#X connect 10 2 15 1;
#X connect 11 0 15 0;
#X connect 12 0 8 0;
#X connect 13 0 12 1;
#X connect 13 0 14 0;
#X connect 15 0 13 0;
#X connect 16 0 2 0;
