#N canvas 501 46 588 376 10;
#X obj 61 106 inlet~;
#X obj 62 298 outlet~;
#X obj 194 105 inlet;
#X obj 62 222 *~;
#X obj 130 221 *~;
#X obj 61 133 snake~ out 2;
#X obj 62 261 snake~ in 2;
#X obj 14 6 cnv 15 500 25 empty empty mc.gain2 20 12 0 18 #606060 #fcfcfc 0;
#X obj 14 32 cnv 15 500 25 empty empty multichannel\ gain\ on\ 2\ signals\ in\ dB 20 12 0 12 #606060 #fcfcfc 0;
#X obj 12 337 pdga_helpcredit;
#X obj 194 152 db2rms;
#X text 234 105 message amp followed by the level in dB;
#X connect 0 0 5 0;
#X connect 2 0 10 0;
#X connect 3 0 6 0;
#X connect 4 0 6 1;
#X connect 5 0 3 0;
#X connect 5 1 4 0;
#X connect 6 0 1 0;
#X connect 10 0 3 1;
#X connect 10 0 4 1;
