#N canvas 1245 281 529 554 10;
#X obj 61 67 inlet~;
#X obj 118 527 outlet~;
#X obj 245 63 inlet;
#X obj 245 84 route amp;
#X msg 245 108 \$1 20;
#X obj 247 325 line~;
#X obj 118 451 *~;
#X obj 168 450 *~;
#X obj 219 450 *~;
#X obj 269 449 *~;
#X obj 314 450 *~;
#X obj 61 91 snake~ out 5, f 24;
#X obj 118 490 snake~ in 5, f 36;
#X connect 0 0 11 0;
#X connect 2 0 3 0;
#X connect 3 0 4 0;
#X connect 4 0 5 0;
#X connect 5 0 9 1;
#X connect 5 0 8 1;
#X connect 5 0 7 1;
#X connect 5 0 6 1;
#X connect 5 0 10 1;
#X connect 6 0 12 0;
#X connect 7 0 12 1;
#X connect 8 0 12 2;
#X connect 9 0 12 3;
#X connect 10 0 12 4;
#X connect 11 0 6 0;
#X connect 11 1 7 0;
#X connect 11 2 8 0;
#X connect 11 3 9 0;
#X connect 11 4 10 0;
#X connect 12 0 1 0;
