#N canvas 501 46 593 376 10;
#X obj 61 106 inlet~;
#X obj 62 298 outlet~;
#X obj 309 105 inlet;
#X obj 62 222 *~;
#X obj 86 222 *~;
#X obj 14 6 cnv 15 500 25 empty empty mc.gain11 20 12 0 18 #606060 #fcfcfc 0;
#X obj 14 32 cnv 15 500 25 empty empty multichannel\ gain\ on\ 11\ signals\ in\ dB 20 12 0 12 #606060 #fcfcfc 0;
#X obj 12 337 pdga_helpcredit;
#X obj 309 152 db2rms;
#X text 349 105 message amp followed by the level in dB;
#X obj 111 222 *~;
#X obj 136 222 *~;
#X obj 162 222 *~;
#X obj 188 222 *~;
#X obj 214 222 *~;
#X obj 241 222 *~;
#X obj 268 222 *~;
#X obj 294 222 *~;
#X obj 61 133 snake~ out 11, f 26;
#X obj 62 261 snake~ in 11, f 27;
#X obj 321 222 *~;
#X connect 0 0 18 0;
#X connect 2 0 8 0;
#X connect 3 0 19 0;
#X connect 4 0 19 1;
#X connect 8 0 3 1;
#X connect 8 0 4 1;
#X connect 8 0 10 1;
#X connect 8 0 11 1;
#X connect 8 0 13 1;
#X connect 8 0 14 1;
#X connect 8 0 12 1;
#X connect 8 0 15 1;
#X connect 8 0 16 1;
#X connect 8 0 17 1;
#X connect 8 0 20 1;
#X connect 10 0 19 2;
#X connect 11 0 19 3;
#X connect 12 0 19 4;
#X connect 13 0 19 5;
#X connect 14 0 19 6;
#X connect 15 0 19 7;
#X connect 16 0 19 8;
#X connect 17 0 19 9;
#X connect 18 0 3 0;
#X connect 18 1 4 0;
#X connect 18 2 10 0;
#X connect 18 3 11 0;
#X connect 18 4 12 0;
#X connect 18 5 13 0;
#X connect 18 6 14 0;
#X connect 18 7 15 0;
#X connect 18 8 16 0;
#X connect 18 9 17 0;
#X connect 18 10 20 0;
#X connect 19 0 1 0;
#X connect 20 0 19 10;
