#N canvas 501 46 588 376 10;
#X obj 61 106 inlet~;
#X obj 62 298 outlet~;
#X obj 194 105 inlet;
#X obj 62 222 *~;
#X obj 86 222 *~;
#X obj 14 6 cnv 15 500 25 empty empty mc.gain4 20 12 0 18 #606060 #fcfcfc 0;
#X obj 14 32 cnv 15 500 25 empty empty multichannel\ gain\ on\ 4\ signals\ in\ dB 20 12 0 12 #606060 #fcfcfc 0;
#X obj 12 337 pdga_helpcredit;
#X obj 194 152 db2rms;
#X text 234 105 message amp followed by the level in dB;
#X obj 111 222 *~;
#X obj 61 133 snake~ out 4;
#X obj 62 261 snake~ in 4;
#X obj 136 222 *~;
#X connect 0 0 11 0;
#X connect 2 0 8 0;
#X connect 3 0 12 0;
#X connect 4 0 12 1;
#X connect 8 0 3 1;
#X connect 8 0 4 1;
#X connect 8 0 10 1;
#X connect 8 0 13 1;
#X connect 10 0 12 2;
#X connect 11 0 3 0;
#X connect 11 1 4 0;
#X connect 11 2 10 0;
#X connect 11 3 13 0;
#X connect 12 0 1 0;
#X connect 13 0 12 3;
