#N canvas 0 38 1464 563 10;
#X obj 28 195 *~ 0.5;
#X obj 216 495 outlet~;
#X obj 56 81 inlet~;
#X obj 14 6 cnv 15 500 25 empty empty mc.regdecoder5 20 12 0 18 #606060 #fcfcfc 0;
#X obj 14 32 cnv 15 500 25 empty empty multichannel\ ambisonic\ regular\ decoder\ at\ order\ 5\ to\ 12\ loudspeakers 20 12 0 12 #606060 #fcfcfc 0;
#X obj 12 522 pdga_helpcredit;
#X obj 56 133 snake~ out 11, f 15;
#X obj 60 252 snake~ in 11, f 15;
#X obj 216 441 snake~ in 12, f 73;
#X obj 59 368 mc.sp11;
#X obj 139 368 mc.sp11;
#X obj 232 368 mc.sp11;
#X obj 345 367 mc.sp11;
#X obj 434 367 mc.sp11;
#X obj 525 367 mc.sp11;
#X obj 610 367 mc.sp11;
#X obj 709 367 mc.sp11;
#X obj 792 366 mc.sp11;
#X obj 862 365 mc.sp11;
#X obj 923 364 mc.sp11;
#X obj 993 363 mc.sp11;
#X obj 273 253 mc.cstencoder5 1;
#X obj 165 253 mc.cstencoder5 0;
#X obj 378 253 mc.cstencoder5 2;
#X obj 487 253 mc.cstencoder5 3;
#X obj 593 253 mc.cstencoder5 4;
#X obj 700 253 mc.cstencoder5 5;
#X obj 806 253 mc.cstencoder5 6;
#X obj 914 253 mc.cstencoder5 7;
#X obj 1022 253 mc.cstencoder5 8;
#X obj 1133 252 mc.cstencoder5 9;
#X obj 1240 252 mc.cstencoder5 10;
#X obj 1353 252 mc.cstencoder5 11;
#X connect 0 0 7 0;
#X connect 2 0 6 0;
#X connect 6 0 0 0;
#X connect 6 1 7 1;
#X connect 6 2 7 2;
#X connect 6 3 7 3;
#X connect 6 4 7 4;
#X connect 6 5 7 5;
#X connect 6 6 7 6;
#X connect 6 7 7 7;
#X connect 6 8 7 8;
#X connect 6 9 7 9;
#X connect 6 10 7 10;
#X connect 7 0 9 0;
#X connect 7 0 10 0;
#X connect 7 0 11 0;
#X connect 7 0 12 0;
#X connect 7 0 13 0;
#X connect 7 0 14 0;
#X connect 7 0 15 0;
#X connect 7 0 16 0;
#X connect 7 0 17 0;
#X connect 7 0 18 0;
#X connect 7 0 19 0;
#X connect 7 0 20 0;
#X connect 8 0 1 0;
#X connect 9 0 8 0;
#X connect 10 0 8 1;
#X connect 11 0 8 2;
#X connect 12 0 8 3;
#X connect 13 0 8 4;
#X connect 14 0 8 5;
#X connect 15 0 8 6;
#X connect 16 0 8 7;
#X connect 17 0 8 8;
#X connect 18 0 8 9;
#X connect 19 0 8 10;
#X connect 20 0 8 11;
#X connect 21 0 10 1;
#X connect 22 0 9 1;
#X connect 23 0 11 1;
#X connect 24 0 12 1;
#X connect 25 0 13 1;
#X connect 26 0 14 1;
#X connect 27 0 15 1;
#X connect 28 0 16 1;
#X connect 29 0 17 1;
#X connect 30 0 18 1;
#X connect 31 0 19 1;
#X connect 32 0 20 1;
