#N canvas 367 217 829 559 10;
#X obj 17 191 *~ 0.5;
#X obj 219 466 outlet~;
#X obj 45 99 inlet~;
#X obj 49 272 snake~ in 5;
#X obj 45 129 snake~ out 5;
#X obj 219 415 snake~ in 6, f 34;
#X obj 14 6 cnv 15 500 25 empty empty mc.regdecoder2 20 12 0 18 #606060 #fcfcfc 0;
#X obj 14 32 cnv 15 500 25 empty empty multichannel\ ambisonic\ regular\ decoder\ at\ order\ 2\ to\ 6\ loudspeakers 20 12 0 12 #606060 #fcfcfc 0;
#X obj 12 522 pdga_helpcredit;
#X obj 49 345 mc.sp5;
#X obj 179 344 mc.sp5;
#X obj 310 344 mc.sp5;
#X obj 436 344 mc.sp5;
#X obj 557 344 mc.sp5;
#X obj 683 344 mc.sp5;
#X obj 132 249 mc.cstencoder2 0;
#X obj 241 249 mc.cstencoder2 1;
#X obj 352 249 mc.cstencoder2 2;
#X obj 465 249 mc.cstencoder2 3;
#X obj 586 249 mc.cstencoder2 4;
#X obj 710 249 mc.cstencoder2 5;
#X connect 0 0 3 0;
#X connect 2 0 4 0;
#X connect 3 0 9 0;
#X connect 3 0 10 0;
#X connect 3 0 11 0;
#X connect 3 0 12 0;
#X connect 3 0 13 0;
#X connect 3 0 14 0;
#X connect 4 0 0 0;
#X connect 4 1 3 1;
#X connect 4 2 3 2;
#X connect 4 3 3 3;
#X connect 4 4 3 4;
#X connect 5 0 1 0;
#X connect 9 0 5 0;
#X connect 10 0 5 1;
#X connect 11 0 5 2;
#X connect 12 0 5 3;
#X connect 13 0 5 4;
#X connect 14 0 5 5;
#X connect 15 0 9 1;
#X connect 16 0 10 1;
#X connect 17 0 11 1;
#X connect 18 0 12 1;
#X connect 19 0 13 1;
#X connect 20 0 14 1;
