#N canvas 144 111 616 563 10;
#X obj 27 191 *~ 0.5;
#X obj 211 487 outlet~;
#X obj 38 274 snake~ in 3;
#X obj 211 420 snake~ in 4;
#X obj 34 131 snake~ out 3;
#X obj 34 79 inlet~;
#X obj 14 6 cnv 15 500 25 empty empty mc.regdecoder1 20 12 0 18 #606060 #fcfcfc 0;
#X obj 14 32 cnv 15 500 25 empty empty multichannel\ ambisonic\ regular\ decoder\ at\ order\ 1\ to\ 4\ loudspeakers 20 12 0 12 #606060 #fcfcfc 0;
#X obj 12 522 pdga_helpcredit;
#X obj 41 366 mc.sp3;
#X obj 171 365 mc.sp3;
#X obj 302 365 mc.sp3;
#X obj 428 365 mc.sp3;
#X obj 136 250 mc.cstencoder1 0;
#X obj 244 250 mc.cstencoder1 1;
#X obj 356 251 mc.cstencoder1 2;
#X obj 461 251 mc.cstencoder1 3;
#X connect 0 0 2 0;
#X connect 2 0 9 0;
#X connect 2 0 10 0;
#X connect 2 0 11 0;
#X connect 2 0 12 0;
#X connect 3 0 1 0;
#X connect 4 0 0 0;
#X connect 4 1 2 1;
#X connect 4 2 2 2;
#X connect 5 0 4 0;
#X connect 9 0 3 0;
#X connect 10 0 3 1;
#X connect 11 0 3 2;
#X connect 12 0 3 3;
#X connect 13 0 9 1;
#X connect 14 0 10 1;
#X connect 15 0 11 1;
#X connect 16 0 12 1;
