#N canvas 630 42 587 696 10;
#X obj 48 78 inlet~;
#X obj 48 205 *~;
#X obj 99 205 *~;
#X obj 147 206 *~;
#X obj 56 275 +~;
#X obj 99 325 +~;
#X obj 327 620 outlet~;
#X obj 351 76 inlet~;
#X obj 192 205 *~;
#X obj 240 206 *~;
#X obj 132 367 +~;
#X obj 169 405 +~;
#X obj 290 206 *~;
#X obj 338 207 *~;
#X obj 215 444 +~;
#X obj 252 482 +~;
#X obj 48 140 snake~ out 9, f 18;
#X obj 351 138 snake~ out 9, f 17;
#X obj 387 207 *~;
#X obj 435 208 *~;
#X obj 290 523 +~;
#X obj 327 561 +~;
#X obj 14 6 cnv 15 500 25 empty empty mc.scalaraproduct9 20 12 0 18 #606060 #fcfcfc 0;
#X obj 14 32 cnv 15 500 25 empty empty multichannel\ scalar\ product\ of\ two\ buses\ of\ 9\ signals 20 12 0 12 #606060 #fcfcfc 0;
#X obj 12 662 pdga_helpcredit;
#X connect 0 0 16 0;
#X connect 1 0 4 0;
#X connect 2 0 4 1;
#X connect 3 0 5 1;
#X connect 4 0 5 0;
#X connect 5 0 10 0;
#X connect 7 0 17 0;
#X connect 8 0 10 1;
#X connect 9 0 11 1;
#X connect 10 0 11 0;
#X connect 11 0 14 0;
#X connect 12 0 14 1;
#X connect 13 0 15 1;
#X connect 14 0 15 0;
#X connect 15 0 20 0;
#X connect 16 0 1 0;
#X connect 16 1 2 0;
#X connect 16 2 3 0;
#X connect 16 3 8 0;
#X connect 16 4 9 0;
#X connect 16 5 12 0;
#X connect 16 6 13 0;
#X connect 16 7 18 0;
#X connect 16 8 19 0;
#X connect 17 0 1 1;
#X connect 17 1 2 1;
#X connect 17 2 3 1;
#X connect 17 3 8 1;
#X connect 17 4 9 1;
#X connect 17 5 12 1;
#X connect 17 6 13 1;
#X connect 17 7 18 1;
#X connect 17 8 19 1;
#X connect 18 0 20 1;
#X connect 19 0 21 1;
#X connect 20 0 21 0;
#X connect 21 0 6 0;
