#N canvas 669 117 569 530 10;
#X obj 61 83 inlet~;
#X obj 78 210 *~;
#X obj 129 210 *~;
#X obj 177 211 *~;
#X obj 86 280 +~;
#X obj 129 330 +~;
#X obj 199 453 outlet~;
#X obj 229 83 inlet~;
#X obj 61 145 snake~ out 5;
#X obj 229 145 snake~ out 5;
#X obj 222 210 *~;
#X obj 270 211 *~;
#X obj 162 372 +~;
#X obj 199 410 +~;
#X obj 14 6 cnv 15 500 25 empty empty mc.sp5 20 12 0 18 #606060 #fcfcfc 0;
#X obj 14 32 cnv 15 500 25 empty empty multichannel\ scalar\ product\ of\ two\ buses\ of\ 5\ signals 20 12 0 12 #606060 #fcfcfc 0;
#X obj 12 486 pdga_helpcredit;
#X connect 0 0 8 0;
#X connect 1 0 4 0;
#X connect 2 0 4 1;
#X connect 3 0 5 1;
#X connect 4 0 5 0;
#X connect 5 0 12 0;
#X connect 7 0 9 0;
#X connect 8 0 1 0;
#X connect 8 1 2 0;
#X connect 8 2 3 0;
#X connect 8 3 10 0;
#X connect 8 4 11 0;
#X connect 9 0 1 1;
#X connect 9 1 2 1;
#X connect 9 2 3 1;
#X connect 9 3 10 1;
#X connect 9 4 11 1;
#X connect 10 0 12 1;
#X connect 11 0 13 1;
#X connect 12 0 13 0;
#X connect 13 0 6 0;
