#N canvas 630 42 652 694 10;
#X obj 48 78 inlet~;
#X obj 48 205 *~;
#X obj 99 205 *~;
#X obj 147 206 *~;
#X obj 56 275 +~;
#X obj 94 311 +~;
#X obj 385 640 outlet~;
#X obj 354 76 inlet~;
#X obj 192 205 *~;
#X obj 240 206 *~;
#X obj 127 353 +~;
#X obj 164 391 +~;
#X obj 290 206 *~;
#X obj 338 207 *~;
#X obj 206 427 +~;
#X obj 241 463 +~;
#X obj 387 207 *~;
#X obj 435 208 *~;
#X obj 279 504 +~;
#X obj 316 542 +~;
#X obj 14 6 cnv 15 500 25 empty empty mc.scalaraproduct11 20 12 0 18 #606060 #fcfcfc 0;
#X obj 14 32 cnv 15 500 25 empty empty multichannel\ scalar\ product\ of\ two\ buses\ of\ 11\ signals 20 12 0 12 #606060 #fcfcfc 0;
#X obj 12 662 pdga_helpcredit;
#X obj 48 140 snake~ out 11, f 27;
#X obj 354 138 snake~ out 11, f 33;
#X obj 486 209 *~;
#X obj 534 210 *~;
#X obj 355 579 +~;
#X obj 385 616 +~;
#X connect 0 0 23 0;
#X connect 1 0 4 0;
#X connect 2 0 4 1;
#X connect 3 0 5 1;
#X connect 4 0 5 0;
#X connect 5 0 10 0;
#X connect 7 0 24 0;
#X connect 8 0 10 1;
#X connect 9 0 11 1;
#X connect 10 0 11 0;
#X connect 11 0 14 0;
#X connect 12 0 14 1;
#X connect 13 0 15 1;
#X connect 14 0 15 0;
#X connect 15 0 18 0;
#X connect 16 0 18 1;
#X connect 17 0 19 1;
#X connect 18 0 19 0;
#X connect 19 0 27 0;
#X connect 23 0 1 0;
#X connect 23 1 2 0;
#X connect 23 2 3 0;
#X connect 23 3 8 0;
#X connect 23 4 9 0;
#X connect 23 5 12 0;
#X connect 23 6 13 0;
#X connect 23 7 16 0;
#X connect 23 8 17 0;
#X connect 23 9 25 0;
#X connect 23 10 26 0;
#X connect 24 0 1 1;
#X connect 24 1 2 1;
#X connect 24 2 3 1;
#X connect 24 3 8 1;
#X connect 24 4 9 1;
#X connect 24 5 12 1;
#X connect 24 6 13 1;
#X connect 24 7 16 1;
#X connect 24 8 17 1;
#X connect 24 8 25 1;
#X connect 24 10 26 1;
#X connect 25 0 27 1;
#X connect 26 0 28 1;
#X connect 27 0 28 0;
#X connect 28 0 6 0;
