#N canvas 721 176 384 473 10;
#X obj 61 52 inlet~;
#X obj 78 179 *~;
#X obj 129 179 *~;
#X obj 177 180 *~;
#X obj 86 249 +~;
#X obj 129 299 +~;
#X obj 199 422 outlet~;
#X obj 229 52 inlet~;
#X obj 61 114 snake~ out 5;
#X obj 229 114 snake~ out 5;
#X obj 222 179 *~;
#X obj 270 180 *~;
#X obj 162 341 +~;
#X obj 199 379 +~;
#X connect 0 0 8 0;
#X connect 1 0 4 0;
#X connect 2 0 4 1;
#X connect 3 0 5 1;
#X connect 4 0 5 0;
#X connect 5 0 12 0;
#X connect 7 0 9 0;
#X connect 8 0 1 0;
#X connect 8 1 2 0;
#X connect 8 2 3 0;
#X connect 8 3 10 0;
#X connect 8 4 11 0;
#X connect 9 0 1 1;
#X connect 9 1 2 1;
#X connect 9 2 3 1;
#X connect 9 3 10 1;
#X connect 9 4 11 1;
#X connect 10 0 12 1;
#X connect 11 0 13 1;
#X connect 12 0 13 0;
#X connect 13 0 6 0;
