#N canvas 721 176 466 571 10;
#X obj 61 52 inlet~;
#X obj 78 179 *~;
#X obj 129 179 *~;
#X obj 177 180 *~;
#X obj 86 249 +~;
#X obj 129 299 +~;
#X obj 282 519 outlet~;
#X obj 299 50 inlet~;
#X obj 222 179 *~;
#X obj 270 180 *~;
#X obj 162 341 +~;
#X obj 199 379 +~;
#X obj 61 114 snake~ out 7, f 18;
#X obj 299 112 snake~ out 7, f 17;
#X obj 320 180 *~;
#X obj 368 181 *~;
#X obj 245 418 +~;
#X obj 282 456 +~;
#X connect 0 0 12 0;
#X connect 1 0 4 0;
#X connect 2 0 4 1;
#X connect 3 0 5 1;
#X connect 4 0 5 0;
#X connect 5 0 10 0;
#X connect 7 0 13 0;
#X connect 8 0 10 1;
#X connect 9 0 11 1;
#X connect 10 0 11 0;
#X connect 11 0 16 0;
#X connect 12 0 1 0;
#X connect 12 1 2 0;
#X connect 12 2 3 0;
#X connect 12 3 8 0;
#X connect 12 4 9 0;
#X connect 12 5 14 0;
#X connect 12 6 15 0;
#X connect 13 0 1 1;
#X connect 13 1 2 1;
#X connect 13 2 3 1;
#X connect 13 3 8 1;
#X connect 13 4 9 1;
#X connect 13 5 14 1;
#X connect 13 6 15 1;
#X connect 14 0 16 1;
#X connect 15 0 17 1;
#X connect 16 0 17 0;
#X connect 17 0 6 0;
