#N canvas 721 176 384 473 12;
#X obj 96 55 inlet~;
#X obj 113 182 *~;
#X obj 164 182 *~;
#X obj 212 183 *~;
#X obj 121 252 +~;
#X obj 164 302 +~;
#X obj 164 375 outlet~;
#X obj 96 117 snake~ out 3;
#X obj 192 55 inlet~;
#X obj 192 117 snake~ out 3;
#X connect 0 0 7 0;
#X connect 1 0 4 0;
#X connect 2 0 4 1;
#X connect 3 0 5 1;
#X connect 4 0 5 0;
#X connect 5 0 6 0;
#X connect 7 0 1 0;
#X connect 7 1 2 0;
#X connect 7 2 3 0;
#X connect 8 0 9 0;
#X connect 9 0 1 1;
#X connect 9 1 2 1;
#X connect 9 2 3 1;
