#N canvas 535 132 775 676 10;
#X obj 203 73 loadbang;
#X obj 90 72 inlet;
#X obj 203 115 f \$1;
#X text 70 46 current angle;
#X obj 245 115 f \$2;
#X text 178 116 a1;
#X text 280 115 a2;
#X floatatom 203 140 5 0 0 0 - - - 0;
#X floatatom 245 140 5 0 0 0 - - - 0;
#X floatatom 90 138 5 0 0 0 - - - 0;
#X floatatom 515 140 5 0 0 0 - - - 0;
#X floatatom 620 139 5 0 0 0 - - - 0;
#X text 488 116 k1;
#X text 655 114 k2;
#X obj 515 115 f \$4;
#X obj 620 114 f \$5;
#X obj 90 173 t f f f f f;
#X floatatom 302 141 5 0 0 0 - - - 0;
#X text 337 116 a1inc;
#X obj 302 116 f \$3;
#X obj 372 206 t f f;
#X obj 204 317 *;
#X obj 404 237 expr 1-$f1;
#X obj 250 318 *;
#X obj 234 350 t b f;
#X obj 204 391 +;
#X obj 291 294 <=;
#X obj 250 419 t b f;
#X obj 204 460 *;
#X obj 204 218 -;
#X obj 204 293 >= 0;
#X obj 250 294 > 0;
#X obj 204 257 t f f f;
#X obj 249 218 -;
#X obj 275 172 t f f;
#X obj 203 172 t b f b f;
#X text 276 218 a2-a1;
#X text 129 137 a;
#X text 168 220 a-a1;
#X obj 376 348 /;
#X obj 403 296 t b f;
#X text 157 294 a>=a1?;
#X text 245 277 a>a1?;
#X text 322 296 a<=a2?;
#X text 407 349 (a-a1)/(a2-a1);
#X obj 376 421 +;
#X obj 407 377 t b f;
#X obj 204 509 *;
#X obj 250 475 t b f;
#X obj 204 568 *;
#X obj 250 534 t b f;
#X obj 204 605 outlet;
#X connect 0 0 2 0;
#X connect 0 0 4 0;
#X connect 0 0 14 0;
#X connect 0 0 15 0;
#X connect 0 0 19 0;
#X connect 1 0 9 0;
#X connect 2 0 7 0;
#X connect 4 0 8 0;
#X connect 7 0 35 0;
#X connect 8 0 34 0;
#X connect 9 0 16 0;
#X connect 10 0 46 0;
#X connect 11 0 50 0;
#X connect 14 0 10 0;
#X connect 15 0 11 0;
#X connect 16 0 26 0;
#X connect 16 1 29 0;
#X connect 17 0 20 0;
#X connect 19 0 17 0;
#X connect 20 0 21 1;
#X connect 20 1 22 0;
#X connect 21 0 25 0;
#X connect 22 0 23 1;
#X connect 23 0 24 0;
#X connect 24 0 25 0;
#X connect 24 1 25 1;
#X connect 25 0 28 0;
#X connect 26 0 27 0;
#X connect 27 0 28 0;
#X connect 27 1 28 1;
#X connect 28 0 47 0;
#X connect 29 0 32 0;
#X connect 30 0 21 0;
#X connect 31 0 23 0;
#X connect 32 0 30 0;
#X connect 32 1 31 0;
#X connect 32 2 39 0;
#X connect 33 0 40 0;
#X connect 34 0 33 0;
#X connect 34 1 26 1;
#X connect 35 0 29 0;
#X connect 35 1 29 1;
#X connect 35 2 33 0;
#X connect 35 3 33 1;
#X connect 39 0 45 0;
#X connect 40 0 39 0;
#X connect 40 1 39 1;
#X connect 45 0 48 0;
#X connect 46 0 45 0;
#X connect 46 1 45 1;
#X connect 47 0 49 0;
#X connect 48 0 47 0;
#X connect 48 1 47 1;
#X connect 49 0 51 0;
#X connect 50 0 49 0;
#X connect 50 1 49 1;
