#N canvas 476 69 340 430 10;
#X obj 189 7 inlet~;
#X obj 257 7 inlet~;
#X obj 20 7 inlet;
#X obj 105 117 vradio 16 1 0 3 empty empty empty 0 -8 0 10 #fcfcfc #000000 #000000 0;
#X obj 20 63 clip 0 2;
#X text 124 132 input 1;
#X text 124 148 input 2;
#X obj 20 30 route out ramptime;
#X obj 97 277 pack 0 100;
#X obj 26 277 pack 0 100;
#X obj 26 233 == 1;
#X floatatom 105 172 5 0 0 1 ramptime - - 0;
#X obj 61 233 == 2;
#X obj 57 348 *~;
#X obj 131 348 *~;
#X obj 93 386 outlet~;
#X text 124 115 no signal;
#X obj 72 319 line;
#X obj 146 319 line;
#X connect 0 0 13 0;
#X connect 1 0 14 0;
#X connect 2 0 7 0;
#X connect 3 0 10 0;
#X connect 3 0 12 0;
#X connect 4 0 3 0;
#X connect 7 0 4 0;
#X connect 7 1 11 0;
#X connect 8 0 18 0;
#X connect 9 0 17 0;
#X connect 10 0 9 0;
#X connect 11 0 9 1;
#X connect 11 0 8 1;
#X connect 12 0 8 0;
#X connect 13 0 15 0;
#X connect 14 0 15 0;
#X connect 17 0 13 1;
#X connect 18 0 14 1;
#X coords 0 -1 1 1 90 90 1 100 100;
