#N canvas 1723 109 591 1167 10;
#X obj 54 45 inlet~;
#X obj 58 350 line~;
#X obj 242 222 hsl 128 15 0 1 0 0 empty empty vol -2 -8 0 10 -262144
-1 -1 0 1;
#X msg 58 315 \$1 100;
#X obj 71 1046 *~;
#X obj 71 1098 outlet~;
#X floatatom 158 219 5 1 4096 1 window - -;
#X floatatom 59 220 5 -2400 2400 1 transpo - -;
#X obj 200 349 + 6000;
#X obj 200 373 * 0.01;
#X obj 200 398 mtof;
#X obj 200 427 - 261.626;
#X obj 200 453 * -3.8224;
#X floatatom 200 484 5 0 0 0 - - -;
#X obj 255 614 / 1;
#X obj 104 688 line~;
#X msg 87 652 1 18;
#X obj 86 1019 *~;
#X msg 127 652 0 18;
#X obj 283 445 t b b b f;
#X obj 87 621 del 22;
#X obj 239 649 f;
#X floatatom 239 675 5 0 0 0 - - -;
#X obj 238 704 phasor~;
#X obj 83 543 del 20;
#X obj 361 652 f;
#X obj 285 383 t b f f;
#X obj 237 756 *~;
#X obj 408 798 *~;
#X obj 149 316 t b b b f;
#X text 191 229 1-4096;
#X text 93 228 midicents;
#X obj 237 797 +~ 2;
#X obj 238 905 *~;
#X obj 407 744 +~ 0.5;
#X obj 347 765 *~ 0.5;
#X obj 347 796 -~ 0.25;
#X obj 347 831 cos~;
#X obj 408 767 wrap~;
#X obj 504 800 *~ 0.5;
#X obj 504 831 -~ 0.25;
#X obj 504 857 cos~;
#X obj 408 824 +~ 2;
#X obj 408 900 *~;
#X obj 238 945 +~;
#X obj 258 44 inlet;
#X obj 258 102 route transpo window vol;
#X obj 440 42 loadbang;
#X msg 440 66 200;
#X obj 496 42 loadbang;
#X msg 496 66 0;
#X obj 54 102 delwrite~ \$0-harmosig 30000;
#X obj 217 831 delread4~ \$0-harmosig;
#X obj 374 857 delread4~ \$0-harmosig;
#X connect 0 0 51 0;
#X connect 1 0 4 0;
#X connect 2 0 3 0;
#X connect 3 0 1 0;
#X connect 4 0 5 0;
#X connect 6 0 26 0;
#X connect 7 0 29 0;
#X connect 8 0 9 0;
#X connect 9 0 10 0;
#X connect 10 0 11 0;
#X connect 11 0 12 0;
#X connect 12 0 13 0;
#X connect 13 0 14 0;
#X connect 14 0 21 1;
#X connect 15 0 17 0;
#X connect 16 0 15 0;
#X connect 17 0 4 1;
#X connect 18 0 15 0;
#X connect 19 0 14 0;
#X connect 19 1 20 0;
#X connect 19 2 18 0;
#X connect 19 3 14 1;
#X connect 20 0 16 0;
#X connect 21 0 22 0;
#X connect 22 0 23 0;
#X connect 23 0 27 0;
#X connect 23 0 34 0;
#X connect 23 0 35 0;
#X connect 24 0 21 0;
#X connect 24 0 25 0;
#X connect 25 0 27 1;
#X connect 25 0 28 1;
#X connect 26 0 24 0;
#X connect 26 1 19 0;
#X connect 26 2 25 1;
#X connect 27 0 32 0;
#X connect 28 0 42 0;
#X connect 29 0 24 0;
#X connect 29 1 20 0;
#X connect 29 2 18 0;
#X connect 29 3 8 0;
#X connect 32 0 52 0;
#X connect 33 0 44 0;
#X connect 34 0 38 0;
#X connect 35 0 36 0;
#X connect 36 0 37 0;
#X connect 37 0 33 1;
#X connect 38 0 28 0;
#X connect 38 0 39 0;
#X connect 39 0 40 0;
#X connect 40 0 41 0;
#X connect 41 0 43 1;
#X connect 42 0 53 0;
#X connect 43 0 44 1;
#X connect 44 0 17 1;
#X connect 45 0 46 0;
#X connect 46 0 7 0;
#X connect 46 1 6 0;
#X connect 46 2 2 0;
#X connect 47 0 48 0;
#X connect 48 0 6 0;
#X connect 49 0 50 0;
#X connect 50 0 7 0;
#X connect 52 0 33 0;
#X connect 53 0 43 0;
#X coords 0 -1 1 1 330 50 1 50 200;
