#N canvas 905 364 607 554 12;
#X obj 61 67 inlet~;
#X obj 113 67 inlet~;
#X obj 165 67 inlet~;
#X obj 212 214 encoder1;
#X obj 299 214 encoder1;
#X obj 386 215 encoder1;
#X obj 473 215 encoder1;
#X obj 302 67 sig~ 0.66667;
#X obj 448 96 loadbang;
#X text 396 66 2/(2*n+1);
#X obj 108 330 produitscalaire;
#X obj 61 91 *~ 0.5;
#X obj 224 329 produitscalaire;
#X obj 341 328 produitscalaire;
#X obj 457 327 produitscalaire;
#X obj 118 499 outlet~;
#X obj 176 499 outlet~;
#X obj 234 499 outlet~;
#X obj 291 499 outlet~;
#X msg 458 140 speed 0;
#X msg 265 173 angle 45;
#X msg 352 174 angle 135;
#X msg 439 174 angle 225;
#X msg 527 174 angle 315;
#X connect 0 0 11 0;
#X connect 1 0 10 1;
#X connect 1 0 12 1;
#X connect 1 0 13 1;
#X connect 1 0 14 1;
#X connect 2 0 10 2;
#X connect 2 0 12 2;
#X connect 2 0 13 2;
#X connect 2 0 14 2;
#X connect 3 0 10 3;
#X connect 3 1 10 4;
#X connect 3 2 10 5;
#X connect 4 0 12 3;
#X connect 4 1 12 4;
#X connect 4 2 12 5;
#X connect 5 0 13 3;
#X connect 5 1 13 4;
#X connect 5 2 13 5;
#X connect 6 0 14 3;
#X connect 6 1 14 4;
#X connect 6 2 14 5;
#X connect 7 0 3 0;
#X connect 7 0 4 0;
#X connect 7 0 5 0;
#X connect 7 0 6 0;
#X connect 8 0 20 0;
#X connect 8 0 21 0;
#X connect 8 0 22 0;
#X connect 8 0 23 0;
#X connect 8 0 19 0;
#X connect 10 0 15 0;
#X connect 11 0 10 0;
#X connect 11 0 12 0;
#X connect 11 0 13 0;
#X connect 11 0 14 0;
#X connect 12 0 16 0;
#X connect 13 0 17 0;
#X connect 14 0 18 0;
#X connect 19 0 6 1;
#X connect 19 0 5 1;
#X connect 19 0 4 1;
#X connect 19 0 3 1;
#X connect 20 0 3 1;
#X connect 21 0 4 1;
#X connect 22 0 5 1;
#X connect 23 0 6 1;
