#N canvas 1446 264 656 810 10;
#X obj 40 588 +~;
#X floatatom 104 216 5 0 0 1 rate - -;
#X obj 255 309 phasor~ 1;
#X obj 255 341 cos~;
#X obj 255 371 +~ 1;
#X obj 255 401 *~ 0.5;
#X obj 255 444 *~;
#X obj 255 479 +~;
#X floatatom 168 216 5 0 0 1 depth - -;
#X msg 357 309 \$1 20;
#X obj 357 399 line~;
#X floatatom 236 216 5 0 0 1 shift - -;
#X msg 432 307 \$1 20;
#X obj 432 397 line~;
#X floatatom 306 216 5 0 1 1 fdbk - -;
#X msg 502 306 \$1 20;
#X obj 502 396 line~;
#X obj 255 544 *~;
#X obj 40 722 *~;
#X obj 382 218 hsl 64 15 0 1 0 0 empty empty vol -2 -8 0 10 -262144
-1 -1 0 1;
#X obj 38 39 inlet~;
#X obj 104 39 inlet;
#X obj 104 89 route rate depth shift fdbk vol;
#X obj 40 766 outlet~;
#X msg 555 306 \$1 20;
#X obj 555 396 line~;
#X obj 419 84 loadbang;
#X msg 466 114 0;
#X floatatom 450 218 5 0 0 0 - - -;
#X msg 336 113 0.15;
#X msg 371 113 500;
#X msg 400 113 5;
#X msg 429 113 0.6;
#X obj 53 482 delwrite~ \$0-flangersig 5000;
#X obj 255 512 vd~ \$0-flangersig;
#X connect 0 0 18 0;
#X connect 1 0 2 0;
#X connect 2 0 3 0;
#X connect 3 0 4 0;
#X connect 4 0 5 0;
#X connect 5 0 6 0;
#X connect 6 0 7 0;
#X connect 7 0 34 0;
#X connect 8 0 9 0;
#X connect 9 0 10 0;
#X connect 10 0 6 1;
#X connect 11 0 12 0;
#X connect 12 0 13 0;
#X connect 13 0 7 1;
#X connect 14 0 15 0;
#X connect 15 0 16 0;
#X connect 16 0 17 1;
#X connect 17 0 0 1;
#X connect 18 0 23 0;
#X connect 19 0 24 0;
#X connect 19 0 28 0;
#X connect 20 0 0 0;
#X connect 20 0 33 0;
#X connect 21 0 22 0;
#X connect 22 0 1 0;
#X connect 22 1 8 0;
#X connect 22 2 11 0;
#X connect 22 3 14 0;
#X connect 22 4 19 0;
#X connect 24 0 25 0;
#X connect 25 0 18 1;
#X connect 26 0 27 0;
#X connect 26 0 29 0;
#X connect 26 0 30 0;
#X connect 26 0 31 0;
#X connect 26 0 32 0;
#X connect 27 0 19 0;
#X connect 29 0 1 0;
#X connect 30 0 8 0;
#X connect 31 0 11 0;
#X connect 32 0 14 0;
#X connect 34 0 17 0;
#X coords 0 -1 1 1 390 40 1 100 200;
