#N canvas 593 109 361 602 10;
#X obj 109 53 env~;
#X obj 109 75 - 100;
#X obj 105 122 vu 10 120 empty empty -1 -8 0 10 -66577 -1 1 0;
#X obj 249 20 inlet~;
#X obj 159 126 vsl 15 100 -120 18 0 0 empty empty dB 0 -9 0 10 -262144
-1 -1 5700 1;
#X floatatom 159 233 5 0 0 0 - - -;
#X floatatom 159 395 10 0 0 0 - - -;
#X obj 159 371 dbtorms;
#X obj 159 260 + 120;
#X floatatom 159 283 5 0 0 0 - - -;
#X obj 159 303 / 138;
#X floatatom 159 345 5 0 0 0 - - -;
#X obj 159 324 * 118;
#X obj 249 230 *~;
#X obj 250 563 outlet~;
#X msg 159 419 \$1 20;
#X obj 159 447 line~;
#X obj 160 16 loadbang;
#X obj 160 40 f \$1;
#X obj 177 214 bng 15 250 50 0 empty empty empty 17 7 0 10 -262144
-1 -1;
#X connect 0 0 1 0;
#X connect 1 0 2 1;
#X connect 3 0 13 0;
#X connect 4 0 5 0;
#X connect 5 0 8 0;
#X connect 6 0 15 0;
#X connect 7 0 6 0;
#X connect 8 0 9 0;
#X connect 9 0 10 0;
#X connect 10 0 12 0;
#X connect 11 0 7 0;
#X connect 12 0 11 0;
#X connect 13 0 0 0;
#X connect 13 0 14 0;
#X connect 15 0 16 0;
#X connect 16 0 13 1;
#X connect 17 0 18 0;
#X connect 18 0 4 0;
#X connect 19 0 18 0;
#X coords 0 -1 1 1 100 150 1 100 100;
