#N canvas 672 49 647 761 10;
#X obj 160 468 dac~;
#X obj 588 333 r granu;
#X obj 195 359 granutempsreel;
#X obj 144 403 *~ 0.2;
#X msg 234 497 \; granu grainduration 100 \; granu delay 500 \; granu
rarefaction 0.5 \; granu fdbk 0.6 \; granu vol 0.7 \;;
#X msg 234 578 \; granu grainduration 20 \; granu delay 1000 \; granu
rarefaction 0.2 \; granu fdbk 0.8 \; granu vol 0.7 \;;
#X msg 373 286 \; pd dsp \$1 \;;
#X obj 373 262 tgl 15 0 empty empty empty 17 7 0 10 -262144 -1 -1 1
1;
#X obj 29 470 meter;
#X obj 92 470 meter;
#X obj 109 28 looper;
#X connect 1 0 2 1;
#X connect 2 0 0 1;
#X connect 2 0 9 0;
#X connect 3 0 0 0;
#X connect 7 0 6 0;
#X connect 10 0 3 0;
#X connect 10 0 2 0;
#X connect 10 0 8 0;
