#N canvas 421 56 1091 860 12;
#X obj 535 292 -~ 0.5;
#X obj 535 332 *~ 0.5;
#X obj 535 366 cos~;
#X obj 514 177 expr 1000 / $f1;
#X obj 514 207 phasor~;
#X floatatom 206 336 5 0 0 0 - - - 0;
#X obj 132 486 *~;
#X obj 882 369 +~ 1;
#X obj 946 338 * 0.5;
#X obj 882 404 *~ 1;
#X obj 597 589 *~;
#X text 475 420 Feedback (0-1);
#X obj 482 535 line~ 0;
#X obj 482 474 clip 0 1;
#X obj 466 631 *~;
#X obj 54 17 inlet~;
#X obj 131 392 samphold~ 0.001;
#X obj 105 253 noise~;
#X obj 105 301 samphold~;
#X floatatom 206 336 5 0 0 0 - - - 0;
#X floatatom 206 336 5 0 0 0 - - - 0;
#X obj 827 285 noise~;
#X obj 828 337 samphold~;
#X obj 882 445 samphold~ 0.001;
#X floatatom 110 124 5 1 10000 1 grainduration_(ms) - - 0;
#X floatatom 292 123 5 0 1 1 rarefaction - - 0;
#X floatatom 110 154 5 0 5000 1 delay_max_(ms) - - 0;
#X floatatom 292 154 5 0 0.99999 1 fdbk - - 0;
#X obj 597 792 outlet~;
#X obj 108 17 inlet;
#X obj 597 759 *~;
#X obj 666 727 line~;
#X msg 666 674 \$1 20;
#X obj 425 130 hsl 64 15 0 1 0 0 empty empty vol -2 -8 0 10 #fcfcfc
#000000 #000000 0 1;
#X obj 109 58 route grainduration rarefaction delay fdbk vol;
#X msg 482 504 \$1 20;
#X obj 599 19 loadbang;
#X msg 636 59 0;
#X msg 524 59 100;
#X floatatom 422 149 5 0 1 0 - - - 0;
#X msg 556 59 500;
#X msg 589 59 0.5;
#X obj 60 680 delwrite~ \$0-granusig 5000;
#X obj 673 539 delread4~ \$0-granusig;
#X obj 206 304 expr 2*$f1-1;
#X obj 131 361 gt~;
#X connect 0 0 1 0;
#X connect 1 0 2 0;
#X connect 2 0 6 1;
#X connect 3 0 4 0;
#X connect 4 0 18 1;
#X connect 4 0 0 0;
#X connect 4 0 22 1;
#X connect 4 0 16 1;
#X connect 4 0 23 1;
#X connect 5 0 45 1;
#X connect 6 0 10 0;
#X connect 7 0 9 0;
#X connect 8 0 9 1;
#X connect 9 0 23 0;
#X connect 10 0 14 0;
#X connect 10 0 30 0;
#X connect 12 0 14 1;
#X connect 13 0 35 0;
#X connect 14 0 42 0;
#X connect 15 0 42 0;
#X connect 16 0 6 0;
#X connect 17 0 18 0;
#X connect 18 0 45 0;
#X connect 21 0 22 0;
#X connect 22 0 7 0;
#X connect 23 0 43 0;
#X connect 24 0 3 0;
#X connect 25 0 44 0;
#X connect 26 0 8 0;
#X connect 27 0 13 0;
#X connect 29 0 34 0;
#X connect 30 0 28 0;
#X connect 31 0 30 1;
#X connect 32 0 31 0;
#X connect 33 0 32 0;
#X connect 33 0 39 0;
#X connect 34 0 24 0;
#X connect 34 1 25 0;
#X connect 34 2 26 0;
#X connect 34 3 27 0;
#X connect 34 4 33 0;
#X connect 35 0 12 0;
#X connect 36 0 37 0;
#X connect 36 0 38 0;
#X connect 36 0 40 0;
#X connect 36 0 41 0;
#X connect 37 0 33 0;
#X connect 38 0 24 0;
#X connect 40 0 26 0;
#X connect 41 0 25 0;
#X connect 43 0 10 1;
#X connect 44 0 5 0;
#X connect 45 0 16 0;
#X coords 0 -1 1 1 400 80 1 100 100;
