#N canvas 851 408 857 775 10;
#X obj 530 170 openpanel;
#X obj 108 128 bng 15 250 50 0 empty empty load_sound_file 0 -6 0 8
-262144 -1 -1;
#X obj 530 222 soundfiler;
#X floatatom 530 250 15 0 0 0 - - -;
#X floatatom 516 373 5 0 0 0 - - -;
#X obj 517 504 phasor~;
#X obj 517 539 *~;
#N canvas 0 22 450 300 (subpatch) 0;
#X array file 2.07272e+06 float 2;
#X coords 0 1 2.07272e+06 -1 200 140 1 0 0;
#X restore 107 213 graph;
#X obj 110 359 hsl 195 20 0 1 0 0 empty empty empty -2 -6 0 8 -258113
-1 -1 0 1;
#X obj 692 590 snapshot~;
#X obj 692 564 metro 50;
#X obj 692 532 tgl 15 0 empty empty empty 0 -6 0 10 -262144 -1 -1 1
1;
#X obj 516 413 * 1;
#X floatatom 213 123 5 0 0 1 speedfactor - -;
#X obj 564 386 t b f;
#X floatatom 516 482 5 0 0 0 - - -;
#X obj 355 65 loadbang;
#X msg 355 89 1, f 2;
#X obj 213 152 bng 15 250 50 0 empty empty reset_speedfactor 0 -6 0
8 -262144 -1 -1;
#X obj 692 477 loadbang;
#X msg 692 504 1, f 2;
#X obj 213 31 inlet;
#X obj 517 671 outlet~;
#X obj 516 447 * 1;
#X obj 578 419 t b f;
#X obj 108 155 tgl 15 0 empty empty play 17 7 0 10 -262144 -1 -1 1
1;
#X obj 26 100 loadbang;
#X msg 26 124 1, f 2;
#X obj 214 183 hsl 64 15 0 1 0 0 empty empty vol -2 -8 0 10 -262144
-1 -1 6300 1;
#X msg 243 428 \$1 20;
#X obj 243 518 line~;
#X obj 517 631 *~;
#X obj 213 64 route speedfactor vol;
#X msg 530 196 read -resize \$1 file;
#X obj 517 592 tabread4~ file;
#X obj 584 336 /;
#X floatatom 109 181 6 0 0 1 file_SR - -;
#X obj 585 306 t b f;
#X obj 628 249 unpack 0 0 0 0 symbol;
#X connect 0 0 33 0;
#X connect 1 0 0 0;
#X connect 2 0 3 0;
#X connect 2 1 38 0;
#X connect 3 0 6 1;
#X connect 3 0 37 0;
#X connect 4 0 12 0;
#X connect 5 0 6 0;
#X connect 5 0 9 0;
#X connect 6 0 34 0;
#X connect 9 0 8 0;
#X connect 10 0 9 0;
#X connect 11 0 10 0;
#X connect 12 0 23 0;
#X connect 13 0 14 0;
#X connect 14 0 12 0;
#X connect 14 1 12 1;
#X connect 15 0 5 0;
#X connect 16 0 17 0;
#X connect 17 0 13 0;
#X connect 17 0 28 0;
#X connect 18 0 17 0;
#X connect 19 0 20 0;
#X connect 20 0 11 0;
#X connect 21 0 32 0;
#X connect 23 0 15 0;
#X connect 24 0 23 0;
#X connect 24 1 23 1;
#X connect 25 0 24 0;
#X connect 26 0 27 0;
#X connect 27 0 25 0;
#X connect 28 0 29 0;
#X connect 29 0 30 0;
#X connect 30 0 31 1;
#X connect 31 0 22 0;
#X connect 32 0 13 0;
#X connect 32 1 28 0;
#X connect 33 0 2 0;
#X connect 34 0 31 0;
#X connect 35 0 4 0;
#X connect 36 0 35 0;
#X connect 37 0 35 0;
#X connect 37 1 35 1;
#X connect 38 0 36 0;
#X coords 0 -1 1 1 215 285 1 100 100;
