#N canvas 933 260 409 406 12;
#X obj 41 49 noise~;
#X obj 149 20 inlet;
#X floatatom 149 91 5 0 0 0 freq - - 0;
#X floatatom 194 93 5 0 0 1 ratio\ silence/son - - 0;
#X obj 307 24 loadbang;
#X msg 307 47 31;
#X obj 102 134 phasor~ 2;
#X obj 149 174 *~;
#X obj 204 174 - 1;
#X obj 149 216 -~;
#X obj 149 251 clip~ 0 1;
#X obj 43 294 *~;
#X obj 43 328 *~ 0.3;
#X obj 43 364 outlet~;
#X obj 149 49 route freq ratio amp;
#X connect 0 0 11 0;
#X connect 1 0 14 0;
#X connect 2 0 6 0;
#X connect 3 0 7 1;
#X connect 3 0 8 0;
#X connect 4 0 5 0;
#X connect 5 0 3 0;
#X connect 6 0 7 0;
#X connect 7 0 9 0;
#X connect 8 0 9 1;
#X connect 9 0 10 0;
#X connect 10 0 11 1;
#X connect 11 0 12 0;
#X connect 12 0 13 0;
#X connect 14 0 2 0;
#X connect 14 1 3 0;
#X connect 14 2 12 1;
