#N canvas 1698 146 383 383 10;
#X obj 33 51 player;
#X obj 107 131 dac~;
#X obj 33 15 r player;
#X msg 141 192 \; player vol 0.5 \;;
#X msg 143 233 \; player vol 0.3 \;;
#X msg 255 193 \; player play 1 \;;
#X msg 253 290 \; player loop 1 \;;
#X msg 256 232 \; player play 0 \;;
#X msg 253 329 \; player loop 0 \;;
#X obj 33 131 meter;
#X msg 144 328 \; pd dsp \$1 \;;
#X obj 144 304 tgl 15 0 empty empty empty 17 7 0 10 -262144 -1 -1 0
1;
#X connect 0 0 1 0;
#X connect 0 0 1 1;
#X connect 0 0 9 0;
#X connect 2 0 0 0;
#X connect 11 0 10 0;
