#N canvas 721 176 384 473 12;
#X obj 50 67 inlet~;
#X obj 101 67 inlet~;
#X obj 152 67 inlet~;
#X obj 203 67 inlet~;
#X obj 254 67 inlet~;
#X obj 305 67 inlet~;
#X obj 113 182 *~;
#X obj 164 182 *~;
#X obj 212 183 *~;
#X obj 121 252 +~;
#X obj 164 302 +~;
#X obj 164 375 outlet~;
#X connect 0 0 6 0;
#X connect 1 0 7 0;
#X connect 2 0 8 0;
#X connect 3 0 6 1;
#X connect 4 0 7 1;
#X connect 5 0 8 1;
#X connect 6 0 9 0;
#X connect 7 0 9 1;
#X connect 8 0 10 1;
#X connect 9 0 10 0;
#X connect 10 0 11 0;
