#N canvas 123 38 457 326 12;
#X obj 58 120 sinandcos 1;
#X obj 203 120 sinandcos 2;
#X obj 96 32 phasor~ 1;
#X obj 346 140 metro 10;
#X obj 346 102 tgl 15 0 empty empty empty 17 7 0 10 #fcfcfc #000000
#000000 0 1;
#X msg 346 68 1;
#X obj 346 28 loadbang;
#X obj 59 239 snapshot~;
#X floatatom 59 263 5 0 0 0 - - - 0;
#X obj 132 238 snapshot~;
#X floatatom 132 262 5 0 0 0 - - - 0;
#X obj 205 238 snapshot~;
#X floatatom 205 262 5 0 0 0 - - - 0;
#X obj 276 237 snapshot~;
#X floatatom 276 261 5 0 0 0 - - - 0;
#X connect 0 0 7 0;
#X connect 0 1 9 0;
#X connect 1 0 11 0;
#X connect 1 1 13 0;
#X connect 2 0 0 0;
#X connect 2 0 1 0;
#X connect 3 0 7 0;
#X connect 3 0 9 0;
#X connect 3 0 11 0;
#X connect 3 0 13 0;
#X connect 4 0 3 0;
#X connect 5 0 4 0;
#X connect 6 0 5 0;
#X connect 7 0 8 0;
#X connect 9 0 10 0;
#X connect 11 0 12 0;
#X connect 13 0 14 0;
