#N canvas 432 82 728 574 10;
#X obj 43 79 inlet~;
#X obj 95 79 inlet~;
#X obj 147 79 inlet~;
#X obj 188 226 encoder1;
#X obj 275 226 encoder1;
#X obj 362 227 encoder1;
#X obj 449 227 encoder1;
#X obj 278 79 sig~ 0.66667;
#X obj 424 108 loadbang;
#X text 372 78 2/(2*n+1);
#X obj 43 103 *~ 0.5;
#X obj 180 489 outlet~;
#X msg 425 135 speed 0;
#X obj 44 250 snake~ in 3;
#X obj 177 260 snake~ in 3;
#X obj 268 260 snake~ in 3;
#X obj 357 259 snake~ in 3;
#X obj 444 259 snake~ in 3;
#X obj 47 342 mc.scalarproduct3;
#X obj 177 341 mc.scalarproduct3;
#X obj 308 341 mc.scalarproduct3;
#X obj 434 341 mc.scalarproduct3;
#X msg 328 186 angle \$1;
#X msg 241 185 angle \$1;
#X msg 425 186 angle \$1;
#X msg 511 186 angle \$1;
#X obj 241 160 float \$1;
#X obj 328 161 float \$2;
#X obj 433 161 float \$3;
#X obj 511 162 float \$4;
#X obj 622 79 inlet;
#X obj 622 100 route amp;
#X msg 622 124 \$1 20;
#X obj 623 341 line~;
#X obj 180 441 *~;
#X obj 230 489 outlet~;
#X obj 230 440 *~;
#X obj 281 489 outlet~;
#X obj 281 440 *~;
#X obj 331 489 outlet~;
#X obj 331 439 *~;
#X obj 14 6 cnv 15 500 25 empty empty decoder1 20 12 0 18 #606060 #fcfcfc 0;
#X obj 14 32 cnv 15 500 25 empty empty ambisonic\ decoder\ at\ order\ 1 20 12 0 12 #606060 #fcfcfc 0;
#X obj 12 522 pdga_helpcredit;
#X connect 0 0 10 0;
#X connect 1 0 13 1;
#X connect 2 0 13 2;
#X connect 3 0 14 0;
#X connect 3 1 14 1;
#X connect 3 2 14 2;
#X connect 4 0 15 0;
#X connect 4 1 15 1;
#X connect 4 2 15 2;
#X connect 5 0 16 0;
#X connect 5 1 16 1;
#X connect 5 2 16 2;
#X connect 6 0 17 0;
#X connect 6 1 17 1;
#X connect 6 2 17 2;
#X connect 7 0 3 0;
#X connect 7 0 4 0;
#X connect 7 0 5 0;
#X connect 7 0 6 0;
#X connect 8 0 12 0;
#X connect 8 0 27 0;
#X connect 8 0 26 0;
#X connect 8 0 28 0;
#X connect 8 0 29 0;
#X connect 10 0 13 0;
#X connect 12 0 6 1;
#X connect 12 0 5 1;
#X connect 12 0 4 1;
#X connect 12 0 3 1;
#X connect 13 0 18 0;
#X connect 13 0 19 0;
#X connect 13 0 20 0;
#X connect 13 0 21 0;
#X connect 14 0 18 1;
#X connect 15 0 19 1;
#X connect 16 0 20 1;
#X connect 17 0 21 1;
#X connect 18 0 34 0;
#X connect 19 0 36 0;
#X connect 20 0 38 0;
#X connect 21 0 40 0;
#X connect 22 0 4 1;
#X connect 23 0 3 1;
#X connect 24 0 5 1;
#X connect 25 0 6 1;
#X connect 26 0 23 0;
#X connect 27 0 22 0;
#X connect 28 0 24 0;
#X connect 29 0 25 0;
#X connect 30 0 31 0;
#X connect 31 0 32 0;
#X connect 32 0 33 0;
#X connect 33 0 40 1;
#X connect 33 0 38 1;
#X connect 33 0 36 1;
#X connect 33 0 34 1;
#X connect 34 0 11 0;
#X connect 36 0 35 0;
#X connect 38 0 37 0;
#X connect 40 0 39 0;
