#N canvas 461 37 658 823 10;
#X obj 36 133 inlet~;
#X obj 169 134 inlet;
#X text 33 106 signal;
#X floatatom 169 232 5 0 0 1 duration\ (msec) - - 0;
#X msg 109 189 0;
#X obj 109 164 loadbang;
#X obj 168 311 sig~;
#X obj 169 488 samphold~;
#X floatatom 169 256 5 0 0 1 update_freq\ (Hz) - - 0;
#X obj 363 162 loadbang;
#X msg 363 187 30;
#X obj 375 309 osc~;
#X obj 375 348 *~ 0.5;
#X obj 375 386 +~ 0.5;
#X obj 473 424 *~ -1;
#X obj 473 454 +~ 1;
#X obj 422 486 samphold~;
#X obj 155 593 *~;
#X obj 408 587 *~;
#X obj 300 636 +~;
#X obj 301 742 outlet~;
#X floatatom 299 231 5 0 1 1 feedback - - 0;
#X msg 403 187 0;
#X obj 527 686 *~ 0;
#X obj 169 163 route duration updatefreq fdbk;
#X obj 550 294 clip 0 1;
#X text 166 106 control;
#X obj 423 548 delread4~ \$0-del;
#X obj 170 551 delread4~ \$0-del;
#X obj 36 718 delwrite~ \$0-del 30000;
#X obj 14 6 cnv 15 500 25 empty empty doubledelay 20 12 0 18 #606060 #fcfcfc 0;
#X obj 14 32 cnv 15 500 25 empty empty double\ delay 20 12 0 12 #606060 #fcfcfc 0;
#X obj 12 773 pdga_helpcredit;
#X connect 0 0 29 0;
#X connect 1 0 24 0;
#X connect 3 0 6 0;
#X connect 4 0 3 0;
#X connect 5 0 4 0;
#X connect 6 0 7 0;
#X connect 6 0 16 0;
#X connect 7 0 28 0;
#X connect 8 0 11 0;
#X connect 9 0 10 0;
#X connect 9 0 22 0;
#X connect 10 0 8 0;
#X connect 11 0 12 0;
#X connect 12 0 13 0;
#X connect 13 0 7 1;
#X connect 13 0 14 0;
#X connect 13 0 18 0;
#X connect 14 0 15 0;
#X connect 15 0 16 1;
#X connect 15 0 17 0;
#X connect 16 0 27 0;
#X connect 17 0 19 0;
#X connect 18 0 19 1;
#X connect 19 0 20 0;
#X connect 19 0 23 0;
#X connect 21 0 25 0;
#X connect 22 0 21 0;
#X connect 23 0 29 0;
#X connect 24 0 3 0;
#X connect 24 1 8 0;
#X connect 24 2 21 0;
#X connect 25 0 23 1;
#X connect 27 0 18 1;
#X connect 28 0 17 1;
#X coords 0 -1 1 1 220 60 1 165 215;
