#N canvas 733 37 599 672 10;
#X obj 40 588 +~;
#X floatatom 104 216 5 0 0 1 rate - - 0;
#X obj 255 309 phasor~ 1;
#X obj 255 341 cos~;
#X obj 255 371 +~ 1;
#X obj 255 401 *~ 0.5;
#X obj 255 444 *~;
#X obj 255 479 +~;
#X floatatom 168 216 5 0 0 1 depth - - 0;
#X msg 357 309 \$1 20;
#X obj 357 399 line~;
#X floatatom 236 216 5 0 0 1 shift - - 0;
#X msg 432 309 \$1 20;
#X obj 432 397 line~;
#X floatatom 306 216 5 0 1 1 fdbk - - 0;
#X msg 502 309 \$1 20;
#X obj 502 396 line~;
#X obj 255 544 *~;
#X obj 38 39 inlet~;
#X obj 104 39 inlet;
#X obj 40 632 outlet~;
#X obj 419 84 loadbang;
#X msg 336 113 0.15;
#X msg 371 113 500;
#X msg 400 113 5;
#X msg 429 113 0.6;
#X obj 53 482 delwrite~ \$0-flangersig 5000;
#X obj 255 512 vd~ \$0-flangersig;
#X obj 104 89 route rate depth shift fdbk;
#X connect 0 0 20 0;
#X connect 1 0 2 0;
#X connect 2 0 3 0;
#X connect 3 0 4 0;
#X connect 4 0 5 0;
#X connect 5 0 6 0;
#X connect 6 0 7 0;
#X connect 7 0 27 0;
#X connect 8 0 9 0;
#X connect 9 0 10 0;
#X connect 10 0 6 1;
#X connect 11 0 12 0;
#X connect 12 0 13 0;
#X connect 13 0 7 1;
#X connect 14 0 15 0;
#X connect 15 0 16 0;
#X connect 16 0 17 1;
#X connect 17 0 0 1;
#X connect 18 0 0 0;
#X connect 18 0 26 0;
#X connect 19 0 28 0;
#X connect 21 0 22 0;
#X connect 21 0 23 0;
#X connect 21 0 24 0;
#X connect 21 0 25 0;
#X connect 22 0 1 0;
#X connect 23 0 8 0;
#X connect 24 0 11 0;
#X connect 25 0 14 0;
#X connect 27 0 17 0;
#X connect 28 0 1 0;
#X connect 28 1 8 0;
#X connect 28 2 11 0;
#X connect 28 3 14 0;
#X coords 0 -1 1 1 270 40 1 100 200;
