#N canvas 699 80 749 563 10;
#X obj 211 487 outlet~;
#X obj 34 79 inlet~;
#X obj 14 6 cnv 15 500 25 empty empty mc.stereodecoder1 20 12 0 18 #606060 #fcfcfc 0;
#X obj 14 32 cnv 15 500 25 empty empty stereo\ ambisonic\ regular\ decoder\ at\ order\ 1 20 12 0 12 #606060 #fcfcfc 0;
#X obj 12 522 pdga_helpcredit;
#X obj 211 438 snake~ in 2;
#X obj 608 77 inlet;
#X text 604 102 message amp + value;
#X obj 211 459 mc.gain2;
#X obj 41 387 stereogains 0;
#X obj 171 386 stereogains 90;
#X obj 302 386 stereogains 180;
#X obj 428 386 stereogains 270;
#X obj 35 176 hoa.decoderblock1;
#X obj 35 197 snake~ out 4;
#X connect 1 0 13 0;
#X connect 5 0 8 0;
#X connect 6 0 8 1;
#X connect 8 0 0 0;
#X connect 9 0 5 0;
#X connect 9 1 5 1;
#X connect 10 0 5 0;
#X connect 10 1 5 1;
#X connect 11 0 5 0;
#X connect 11 1 5 1;
#X connect 12 0 5 0;
#X connect 12 1 5 1;
#X connect 13 0 14 0;
#X connect 14 0 9 0;
#X connect 14 1 10 0;
#X connect 14 2 11 0;
#X connect 14 3 12 0;
