#N canvas 497 73 1351 636 10;
#X obj 34 157 *~ 0.5;
#X obj 583 580 outlet~;
#X obj 64 43 inlet~;
#X obj 642 47 inlet;
#X text 638 72 message amp + value;
#X obj 583 497 snake~ in 2, f 34;
#X obj 583 538 mc.gain2;
#X obj 71 371 stereogains 0;
#X obj 64 95 snake~ out 9, f 13;
#X obj 68 238 snake~ in 9, f 12;
#X obj 71 330 mc.sp9;
#X obj 201 329 mc.sp9;
#X obj 332 329 mc.sp9;
#X obj 458 329 mc.sp9;
#X obj 579 329 mc.sp9;
#X obj 705 329 mc.sp9;
#X obj 821 329 mc.sp9;
#X obj 947 329 mc.sp9;
#X obj 1066 329 mc.sp9;
#X obj 1192 329 mc.sp9;
#X obj 201 371 stereogains 36;
#X obj 332 371 stereogains 72;
#X obj 458 371 stereogains 108;
#X obj 579 370 stereogains 144;
#X obj 705 370 stereogains 180;
#X obj 821 370 stereogains 216;
#X obj 947 370 stereogains 252;
#X obj 1192 370 stereogains 324;
#X obj 1066 370 stereogains 288;
#X obj 163 215 hoa.cstencoder4 0;
#X obj 274 215 hoa.cstencoder4 1;
#X obj 386 215 hoa.cstencoder4 2;
#X obj 494 215 hoa.cstencoder4 3;
#X obj 609 215 hoa.cstencoder4 4;
#X obj 719 215 hoa.cstencoder4 5;
#X obj 827 215 hoa.cstencoder4 6;
#X obj 937 215 hoa.cstencoder4 7;
#X obj 1047 215 hoa.cstencoder4 8;
#X obj 1157 215 hoa.cstencoder4 9;
#X connect 0 0 9 0;
#X connect 2 0 8 0;
#X connect 3 0 6 1;
#X connect 5 0 6 0;
#X connect 6 0 1 0;
#X connect 7 0 5 0;
#X connect 7 1 5 1;
#X connect 8 0 0 0;
#X connect 8 1 9 1;
#X connect 8 2 9 2;
#X connect 8 3 9 3;
#X connect 8 4 9 4;
#X connect 8 5 9 5;
#X connect 8 6 9 6;
#X connect 8 7 9 7;
#X connect 8 8 9 8;
#X connect 9 0 10 0;
#X connect 9 0 11 0;
#X connect 9 0 12 0;
#X connect 9 0 13 0;
#X connect 9 0 14 0;
#X connect 9 0 15 0;
#X connect 9 0 16 0;
#X connect 9 0 17 0;
#X connect 9 0 18 0;
#X connect 9 0 19 0;
#X connect 10 0 7 0;
#X connect 11 0 20 0;
#X connect 12 0 21 0;
#X connect 13 0 22 0;
#X connect 14 0 23 0;
#X connect 15 0 24 0;
#X connect 16 0 25 0;
#X connect 17 0 26 0;
#X connect 18 0 28 0;
#X connect 19 0 27 0;
#X connect 20 0 5 0;
#X connect 20 1 5 1;
#X connect 21 0 5 0;
#X connect 21 1 5 1;
#X connect 22 0 5 0;
#X connect 22 1 5 1;
#X connect 23 0 5 0;
#X connect 23 1 5 1;
#X connect 24 0 5 0;
#X connect 24 1 5 1;
#X connect 25 0 5 0;
#X connect 25 1 5 1;
#X connect 26 0 5 0;
#X connect 26 1 5 1;
#X connect 27 0 5 0;
#X connect 27 1 5 1;
#X connect 28 0 5 0;
#X connect 28 1 5 1;
#X connect 29 0 10 1;
#X connect 30 0 11 1;
#X connect 31 0 12 1;
#X connect 32 0 13 1;
#X connect 33 0 14 1;
#X connect 34 0 15 1;
#X connect 35 0 16 1;
#X connect 36 0 17 1;
#X connect 37 0 18 1;
#X connect 38 0 19 1;
