#N canvas 525 185 859 636 10;
#X obj 36 157 *~ 0.5;
#X obj 332 580 outlet~;
#X obj 64 43 inlet~;
#X obj 642 47 inlet;
#X text 638 72 message amp + value;
#X obj 68 238 snake~ in 5;
#X obj 64 95 snake~ out 5;
#X obj 332 497 snake~ in 2, f 34;
#X obj 332 538 mc.gain2;
#X obj 71 371 stereogains 0;
#X obj 201 371 stereogains 60;
#X obj 332 371 stereogains 120;
#X obj 458 371 stereogains 180;
#X obj 579 370 stereogains 240;
#X obj 705 370 stereogains 300;
#X obj 71 330 mc.sp5;
#X obj 201 329 mc.sp5;
#X obj 332 329 mc.sp5;
#X obj 458 329 mc.sp5;
#X obj 579 329 mc.sp5;
#X obj 705 329 mc.sp5;
#X obj 172 215 mc.cstencoder2 0;
#X obj 281 215 mc.cstencoder2 1;
#X obj 386 215 mc.cstencoder2 2;
#X obj 494 214 mc.cstencoder2 3;
#X obj 609 214 mc.cstencoder2 4;
#X obj 723 214 mc.cstencoder2 5;
#X connect 0 0 5 0;
#X connect 2 0 6 0;
#X connect 3 0 8 1;
#X connect 5 0 15 0;
#X connect 5 0 16 0;
#X connect 5 0 17 0;
#X connect 5 0 18 0;
#X connect 5 0 19 0;
#X connect 5 0 20 0;
#X connect 6 0 0 0;
#X connect 6 1 5 1;
#X connect 6 2 5 2;
#X connect 6 3 5 3;
#X connect 6 4 5 4;
#X connect 7 0 8 0;
#X connect 8 0 1 0;
#X connect 9 0 7 0;
#X connect 9 1 7 1;
#X connect 10 0 7 0;
#X connect 10 1 7 1;
#X connect 11 0 7 0;
#X connect 11 1 7 1;
#X connect 12 0 7 0;
#X connect 12 1 7 1;
#X connect 13 0 7 0;
#X connect 13 1 7 1;
#X connect 14 0 7 0;
#X connect 14 1 7 1;
#X connect 15 0 9 0;
#X connect 16 0 10 0;
#X connect 17 0 11 0;
#X connect 18 0 12 0;
#X connect 19 0 13 0;
#X connect 20 0 14 0;
#X connect 21 0 15 1;
#X connect 22 0 16 1;
#X connect 23 0 17 1;
#X connect 24 0 18 1;
#X connect 25 0 19 1;
#X connect 26 0 20 1;
