#N canvas 777 234 817 863 10;
#X obj 20 107 inlet;
#X obj 105 217 vradio 16 1 0 3 empty empty empty 0 -8 0 10 #fcfcfc #000000 #000000 0;
#X obj 20 163 clip 0 2;
#X text 124 232 input 1;
#X text 124 248 input 2;
#X obj 20 130 route out ramptime;
#X floatatom 105 272 5 0 0 1 ramptime - - 0;
#X text 124 215 no signal;
#X obj 244 108 inlet~;
#X obj 449 108 inlet~;
#X obj 15 6 cnv 15 550 25 empty empty mc.busselector3 20 12 0 18 #606060 #fcfcfc 0;
#X obj 15 32 cnv 15 550 25 empty empty multichannel\ bus\ selection\ between\ two\ 3\ channel\ buses 20 12 0 12 #606060 #fcfcfc 0;
#X obj 10 550 pdga_helpcredit;
#X msg 105 297 ramptime \$1;
#X msg 25 297 out \$1;
#X obj 128 345 selector2-mod;
#X obj 222 345 selector2-mod;
#X obj 316 345 selector2-mod;
#X obj 244 158 snake~ out 3 -------------;
#X obj 449 158 snake~ out 3 -------------;
#X obj 191 407 snake~ in 3;
#X obj 191 463 outlet~;
#X connect 0 0 5 0;
#X connect 1 0 14 0;
#X connect 2 0 1 0;
#X connect 5 0 2 0;
#X connect 5 1 6 0;
#X connect 6 0 13 0;
#X connect 8 0 18 0;
#X connect 9 0 19 0;
#X connect 13 0 15 0;
#X connect 13 0 16 0;
#X connect 13 0 17 0;
#X connect 14 0 15 0;
#X connect 14 0 16 0;
#X connect 14 0 17 0;
#X connect 15 0 20 0;
#X connect 16 0 20 1;
#X connect 17 0 20 2;
#X connect 18 0 15 1;
#X connect 18 1 16 1;
#X connect 18 2 17 1;
#X connect 19 0 15 2;
#X connect 19 1 16 2;
#X connect 19 2 17 2;
#X connect 20 0 21 0;
#X coords 0 -1 1 1 90 90 1 100 200;
