#N canvas 249 51 1084 562 10;
#X obj 440 79 loadbang;
#X obj 28 195 *~ 0.5;
#X obj 233 492 outlet~;
#X obj 56 81 inlet~;
#X obj 162 187 float \$1;
#X obj 255 186 float \$2;
#X obj 348 185 float \$3;
#X obj 443 183 float \$4;
#X obj 920 83 inlet;
#X obj 534 183 float \$5;
#X obj 627 183 float \$6;
#X obj 718 182 float \$7;
#X obj 810 181 float \$8;
#X obj 233 438 snake~ in 8, f 34;
#X obj 60 276 snake~ in 7;
#X obj 56 133 snake~ out 7;
#X obj 233 464 mc.gain8;
#X obj 14 6 cnv 15 500 25 empty empty mc.decoder3 20 12 0 18 #606060 #fcfcfc 0;
#X obj 14 32 cnv 15 500 25 empty empty multichannel\ ambisonic\ decoder\ at\ order\ 3\ to\ 8\ loudspeakers 20 12 0 12 #606060 #fcfcfc 0;
#X obj 12 522 pdga_helpcredit;
#X text 916 108 message amp + value in dB;
#X obj 162 253 mc.cstencoder3;
#X obj 256 253 mc.cstencoder3;
#X obj 349 253 mc.cstencoder3;
#X obj 443 253 mc.cstencoder3;
#X obj 535 253 mc.cstencoder3;
#X obj 627 253 mc.cstencoder3;
#X obj 719 253 mc.cstencoder3;
#X obj 811 253 mc.cstencoder3;
#X obj 63 368 mc.sp7;
#X obj 193 367 mc.sp7;
#X obj 324 367 mc.sp7;
#X obj 450 367 mc.sp7;
#X obj 571 367 mc.sp7;
#X obj 697 367 mc.sp7;
#X obj 822 367 mc.sp7;
#X obj 948 367 mc.sp7;
#X connect 0 0 4 0;
#X connect 0 0 5 0;
#X connect 0 0 6 0;
#X connect 0 0 7 0;
#X connect 0 0 9 0;
#X connect 0 0 10 0;
#X connect 0 0 11 0;
#X connect 0 0 12 0;
#X connect 1 0 14 0;
#X connect 3 0 15 0;
#X connect 4 0 21 0;
#X connect 5 0 22 0;
#X connect 6 0 23 0;
#X connect 7 0 24 0;
#X connect 8 0 16 1;
#X connect 9 0 25 0;
#X connect 10 0 26 0;
#X connect 11 0 27 0;
#X connect 12 0 28 0;
#X connect 13 0 16 0;
#X connect 14 0 29 0;
#X connect 14 0 30 0;
#X connect 14 0 31 0;
#X connect 14 0 32 0;
#X connect 14 0 33 0;
#X connect 14 0 34 0;
#X connect 14 0 35 0;
#X connect 14 0 36 0;
#X connect 15 0 1 0;
#X connect 15 1 14 1;
#X connect 15 2 14 2;
#X connect 15 3 14 3;
#X connect 15 4 14 4;
#X connect 15 5 14 5;
#X connect 15 6 14 6;
#X connect 16 0 2 0;
#X connect 21 0 29 1;
#X connect 22 0 30 1;
#X connect 23 0 31 1;
#X connect 24 0 32 1;
#X connect 25 0 33 1;
#X connect 26 0 34 1;
#X connect 27 0 35 1;
#X connect 28 0 36 1;
#X connect 29 0 13 0;
#X connect 30 0 13 1;
#X connect 31 0 13 2;
#X connect 32 0 13 3;
#X connect 33 0 13 4;
#X connect 34 0 13 5;
#X connect 35 0 13 6;
#X connect 36 0 13 7;
