#N canvas 653 37 817 856 10;
#X obj 27 105 inlet~;
#X obj 15 6 cnv 15 550 25 empty empty mc.duplicate3 20 12 0 18 #606060 #fcfcfc 0;
#X obj 15 32 cnv 15 550 25 empty empty creates\ 3\ copies\ of\ the\ input\ signal 20 12 0 12 #606060 #fcfcfc 0;
#X obj 10 550 pdga_helpcredit;
#X obj 27 176 snake~ in 3;
#X obj 27 232 outlet~;
#X connect 0 0 4 0;
#X connect 0 0 4 1;
#X connect 0 0 4 2;
#X connect 4 0 5 0;
