#N canvas 248 100 1035 704 10;
#X obj 69 111 inlet~;
#X text 15 110 signal;
#X obj 73 576 outlet~;
#X obj 134 456 *~;
#X obj 198 457 *~;
#X obj 408 383 sinandcos 1;
#X obj 407 184 phasor~;
#X obj 471 184 expr $f1 / 360;
#X obj 407 339 +~;
#X obj 407 112 inlet;
#X obj 407 149 route speed angle returntime;
#X obj 498 218 != 0;
#X obj 407 306 *~;
#X obj 498 269 line;
#X floatatom 497 296 5 0 0 0 - - - 0;
#X obj 498 242 pack 0 100;
#X obj 490 384 sinandcos 2;
#X obj 268 457 *~;
#X obj 332 458 *~;
#X obj 574 384 sinandcos 3;
#X obj 391 458 *~;
#X obj 455 459 *~;
#X obj 14 6 cnv 15 500 25 empty empty mc.encoder6 20 12 0 18 #606060 #fcfcfc 0;
#X obj 14 32 cnv 15 500 25 empty empty multichannel\ ambisonic\ encoder\ at\ order\ 6 20 12 0 12 #606060 #fcfcfc 0;
#X obj 12 662 pdga_helpcredit;
#X obj 653 384 sinandcos 4;
#X obj 516 460 *~;
#X obj 570 461 *~;
#X obj 625 461 *~;
#X obj 679 462 *~;
#X obj 743 384 sinandcos 5;
#X obj 824 384 sinandcos 6;
#X obj 735 462 *~;
#X obj 789 463 *~;
#X obj 902 384 sinandcos 7;
#X obj 845 464 *~;
#X obj 899 465 *~;
#X obj 73 523 snake~ in 15, f 117;
#X connect 0 0 3 0;
#X connect 0 0 4 0;
#X connect 0 0 17 0;
#X connect 0 0 18 0;
#X connect 0 0 20 0;
#X connect 0 0 21 0;
#X connect 0 0 26 0;
#X connect 0 0 27 0;
#X connect 0 0 28 0;
#X connect 0 0 29 0;
#X connect 0 0 32 0;
#X connect 0 0 33 0;
#X connect 0 0 37 0;
#X connect 0 0 35 0;
#X connect 0 0 36 0;
#X connect 3 0 37 1;
#X connect 4 0 37 2;
#X connect 5 0 3 1;
#X connect 5 1 4 1;
#X connect 6 0 12 0;
#X connect 7 0 8 1;
#X connect 8 0 5 0;
#X connect 8 0 16 0;
#X connect 8 0 19 0;
#X connect 8 0 25 0;
#X connect 8 0 30 0;
#X connect 8 0 31 0;
#X connect 8 0 34 0;
#X connect 9 0 10 0;
#X connect 10 0 6 0;
#X connect 10 0 11 0;
#X connect 10 1 7 0;
#X connect 10 2 15 1;
#X connect 11 0 15 0;
#X connect 12 0 8 0;
#X connect 13 0 12 1;
#X connect 13 0 14 0;
#X connect 15 0 13 0;
#X connect 16 0 17 1;
#X connect 16 1 18 1;
#X connect 17 0 37 3;
#X connect 18 0 37 4;
#X connect 19 0 20 1;
#X connect 19 1 21 1;
#X connect 20 0 37 5;
#X connect 21 0 37 6;
#X connect 25 0 26 1;
#X connect 25 1 27 1;
#X connect 26 0 37 7;
#X connect 27 0 37 8;
#X connect 28 0 37 9;
#X connect 29 0 37 10;
#X connect 30 0 28 1;
#X connect 30 1 29 1;
#X connect 31 0 32 1;
#X connect 31 1 33 1;
#X connect 32 0 37 11;
#X connect 33 0 37 12;
#X connect 34 0 35 1;
#X connect 34 1 36 1;
#X connect 35 0 37 13;
#X connect 36 0 37 14;
#X connect 37 0 2 0;
