#N canvas 704 97 676 704 10;
#X obj 69 111 inlet~;
#X text 15 110 signal;
#X obj 73 576 outlet~;
#X obj 134 456 *~;
#X obj 198 457 *~;
#X obj 408 383 sinandcos 1;
#X obj 407 184 phasor~;
#X obj 471 184 expr $f1 / 360;
#X obj 408 351 +~;
#X obj 407 112 inlet;
#X obj 407 149 route speed angle returntime;
#X obj 498 218 != 0;
#X obj 407 306 *~;
#X obj 498 269 line;
#X floatatom 497 296 5 0 0 0 - - - 0;
#X obj 498 242 pack 0 100;
#X obj 490 384 sinandcos 2;
#X obj 268 457 *~;
#X obj 332 458 *~;
#X obj 574 384 sinandcos 3;
#X obj 391 459 *~;
#X obj 455 460 *~;
#X obj 73 523 snake~ in 7, f 27;
#X obj 14 6 cnv 15 500 25 empty empty mc.encoder3 20 12 0 18 #606060 #fcfcfc 0;
#X obj 14 32 cnv 15 500 25 empty empty multichannel\ ambisonic\ encoder\ at\ order\ 3 20 12 0 12 #606060 #fcfcfc 0;
#X obj 12 662 pdga_helpcredit;
#X connect 0 0 3 0;
#X connect 0 0 4 0;
#X connect 0 0 17 0;
#X connect 0 0 18 0;
#X connect 0 0 20 0;
#X connect 0 0 21 0;
#X connect 0 0 22 0;
#X connect 3 0 22 1;
#X connect 4 0 22 2;
#X connect 5 0 3 1;
#X connect 5 1 4 1;
#X connect 6 0 12 0;
#X connect 7 0 8 1;
#X connect 8 0 5 0;
#X connect 8 0 16 0;
#X connect 8 0 19 0;
#X connect 9 0 10 0;
#X connect 10 0 6 0;
#X connect 10 0 11 0;
#X connect 10 1 7 0;
#X connect 10 2 15 1;
#X connect 11 0 15 0;
#X connect 12 0 8 0;
#X connect 13 0 12 1;
#X connect 13 0 14 0;
#X connect 15 0 13 0;
#X connect 16 0 17 1;
#X connect 16 1 18 1;
#X connect 17 0 22 3;
#X connect 18 0 22 4;
#X connect 19 0 20 1;
#X connect 19 1 21 1;
#X connect 20 0 22 5;
#X connect 21 0 22 6;
#X connect 22 0 2 0;
