#N canvas 501 46 588 376 10;
#X obj 61 106 inlet~;
#X obj 62 298 outlet~;
#X obj 194 105 inlet;
#X obj 62 222 *~;
#X obj 95 222 *~;
#X obj 14 6 cnv 15 500 25 empty empty mc.gain3 20 12 0 18 #606060 #fcfcfc 0;
#X obj 14 32 cnv 15 500 25 empty empty multichannel\ gain\ on\ 3\ signals\ in\ dB 20 12 0 12 #606060 #fcfcfc 0;
#X obj 12 337 pdga_helpcredit;
#X obj 194 152 db2rms;
#X text 234 105 message amp followed by the level in dB;
#X obj 61 133 snake~ out 3;
#X obj 62 261 snake~ in 3;
#X obj 130 222 *~;
#X connect 0 0 10 0;
#X connect 2 0 8 0;
#X connect 3 0 11 0;
#X connect 4 0 11 1;
#X connect 8 0 3 1;
#X connect 8 0 4 1;
#X connect 8 0 12 1;
#X connect 10 0 3 0;
#X connect 10 1 4 0;
#X connect 10 2 12 0;
#X connect 11 0 1 0;
#X connect 12 0 11 2;
