#N canvas 314 109 957 677 10;
#X obj 334 468 *~;
#X obj 497 433 line~;
#X msg 496 410 \$1 20;
#X obj 257 117 hsl 80 15 0 1 0 0 empty empty vol -2 -8 0 10 #fcfcfc #000000 #000000 0 1;
#X obj 660 371 bang;
#X obj 660 406 f 0;
#X obj 206 116 tgl 15 0 empty empty loop 17 7 0 10 #fcfcfc #000000 #000000 0 1;
#X text 470 370 loop;
#X obj 333 168 openpanel;
#X obj 110 116 bng 15 250 50 0 empty empty open 17 7 0 10 #0c4044 #000000 #000000;
#X obj 333 191 list prepend set open;
#X obj 333 215 list trim;
#X msg 333 239 open /Users/alainbonardi/Dropbox/ENSEIGNEMENT/PARIS8_MUSIQUE/SAMPLES/captationsInstruments/piano1_mono.wav;
#X obj 157 116 tgl 15 0 empty empty play 17 7 0 10 #fcfcfc #000000 #000000 0 1;
#X obj 236 202 t f b;
#X obj 334 546 outlet~;
#X obj 254 35 inlet;
#X obj 388 468 *~;
#X obj 254 63 route vol play loop;
#X obj 442 467 *~;
#X obj 482 467 *~;
#X obj 525 468 *~;
#X obj 579 468 *~;
#X obj 633 468 *~;
#X obj 334 509 snake~ in 7, f 41;
#X obj 360 328 readsf~ 7, f 45;
#X connect 0 0 24 0;
#X connect 1 0 0 1;
#X connect 1 0 17 1;
#X connect 1 0 19 1;
#X connect 1 0 20 1;
#X connect 1 0 21 1;
#X connect 1 0 22 1;
#X connect 1 0 23 1;
#X connect 2 0 1 0;
#X connect 3 0 2 0;
#X connect 4 0 5 0;
#X connect 5 0 13 0;
#X connect 8 0 10 0;
#X connect 9 0 8 0;
#X connect 10 0 11 0;
#X connect 11 0 12 0;
#X connect 12 0 25 0;
#X connect 13 0 14 0;
#X connect 14 0 25 0;
#X connect 14 1 12 0;
#X connect 16 0 18 0;
#X connect 17 0 24 1;
#X connect 18 0 3 0;
#X connect 18 1 13 0;
#X connect 18 2 6 0;
#X connect 19 0 24 2;
#X connect 20 0 24 3;
#X connect 21 0 24 4;
#X connect 22 0 24 5;
#X connect 23 0 24 6;
#X connect 24 0 15 0;
#X connect 25 0 0 0;
#X connect 25 1 17 0;
#X connect 25 2 19 0;
#X connect 25 3 20 0;
#X connect 25 4 21 0;
#X connect 25 5 22 0;
#X connect 25 6 23 0;
#X connect 25 7 4 0;
#X coords 0 -1 1 1 250 40 1 100 100;
