#N canvas 524 104 690 471 10;
#X obj 105 120 bng 15 250 50 0 empty empty open 17 7 0 10 #0c4044 #000000 #000000;
#X obj 151 120 tgl 15 0 empty empty record 17 7 0 10 #fcfcfc #000000 #000000 0 1;
#X obj 13 41 inlet~;
#X obj 249 185 list prepend set open;
#X obj 249 209 list trim;
#X msg 249 249 open /Users/alainbonardi/Dropbox/ENSEIGNEMENT/PARIS8_MUSIQUE/2019_2020/_SEMINAIRE_LA_VOIX_TRAITEMENT/BoiteAOutilsPureData/test;
#X obj 249 162 savepanel;
#X obj 129 177 select 0 1;
#X msg 128 233 stop;
#X obj 178 215 t b b;
#X msg 178 257 start;
#X obj 106 419 writesf~ 2;
#X obj 13 62 snake~ out 2;
#X connect 0 0 6 0;
#X connect 1 0 7 0;
#X connect 2 0 12 0;
#X connect 3 0 4 0;
#X connect 4 0 5 0;
#X connect 5 0 11 0;
#X connect 6 0 3 0;
#X connect 7 0 8 0;
#X connect 7 1 9 0;
#X connect 8 0 11 0;
#X connect 9 0 10 0;
#X connect 9 1 5 0;
#X connect 10 0 11 0;
#X connect 12 0 11 0;
#X connect 12 1 11 1;
#X coords 0 -1 1 1 110 40 1 100 100;
