#N canvas 122 142 615 409 10;
#X obj 35 331 outlet~;
#X obj 35 79 inlet~;
#X obj 14 6 cnv 15 500 25 empty empty mc.regdecoder1 20 12 0 18 #606060 #fcfcfc 0;
#X obj 14 32 cnv 15 500 25 empty empty multichannel\ ambisonic\ regular\ decoder\ at\ order\ 1\ to\ 4\ loudspeakers 20 12 0 12 #606060 #fcfcfc 0;
#X obj 12 369 pdga_helpcredit;
#X obj 186 79 inlet;
#X text 182 104 message amp + value;
#X obj 35 268 mc.gain4;
#X obj 35 149 mc.decoderblock1;
#X connect 1 0 8 0;
#X connect 5 0 7 1;
#X connect 7 0 0 0;
#X connect 8 0 7 0;
