#N canvas 0 38 1259 562 10;
#X obj 28 195 *~ 0.5;
#X obj 233 492 outlet~;
#X obj 56 81 inlet~;
#X obj 14 6 cnv 15 500 25 empty empty mc.regdecoder4 20 12 0 18 #606060 #fcfcfc 0;
#X obj 14 32 cnv 15 500 25 empty empty multichannel\ ambisonic\ regular\ decoder\ at\ order\ 4\ to\ 10\ loudspeakers 20 12 0 12 #606060 #fcfcfc 0;
#X obj 12 522 pdga_helpcredit;
#X obj 56 133 snake~ out 9, f 15;
#X obj 58 276 snake~ in 9, f 15;
#X obj 233 438 snake~ in 10, f 73;
#X obj 63 368 mc.sp9;
#X obj 193 367 mc.sp9;
#X obj 324 367 mc.sp9;
#X obj 450 367 mc.sp9;
#X obj 571 367 mc.sp9;
#X obj 697 367 mc.sp9;
#X obj 822 367 mc.sp9;
#X obj 948 367 mc.sp9;
#X obj 1065 366 mc.sp9;
#X obj 1191 366 mc.sp9;
#X obj 161 253 mc.cstencoder4 0;
#X obj 270 253 mc.cstencoder4 1;
#X obj 379 253 mc.cstencoder4 2;
#X obj 486 253 mc.cstencoder4 3;
#X obj 593 253 mc.cstencoder4 4;
#X obj 700 253 mc.cstencoder4 5;
#X obj 808 253 mc.cstencoder4 6;
#X obj 917 254 mc.cstencoder4 7;
#X obj 1022 254 mc.cstencoder4 8;
#X obj 1130 254 mc.cstencoder4 9;
#X connect 0 0 7 0;
#X connect 2 0 6 0;
#X connect 6 0 0 0;
#X connect 6 1 7 1;
#X connect 6 2 7 2;
#X connect 6 3 7 3;
#X connect 6 4 7 4;
#X connect 6 5 7 5;
#X connect 6 6 7 6;
#X connect 6 7 7 7;
#X connect 6 8 7 8;
#X connect 7 0 9 0;
#X connect 7 0 10 0;
#X connect 7 0 11 0;
#X connect 7 0 12 0;
#X connect 7 0 13 0;
#X connect 7 0 14 0;
#X connect 7 0 15 0;
#X connect 7 0 16 0;
#X connect 7 0 17 0;
#X connect 7 0 18 0;
#X connect 8 0 1 0;
#X connect 9 0 8 0;
#X connect 10 0 8 1;
#X connect 11 0 8 2;
#X connect 12 0 8 3;
#X connect 13 0 8 4;
#X connect 14 0 8 5;
#X connect 15 0 8 6;
#X connect 16 0 8 7;
#X connect 17 0 8 8;
#X connect 18 0 8 9;
#X connect 19 0 9 1;
#X connect 20 0 10 1;
#X connect 21 0 11 1;
#X connect 22 0 12 1;
#X connect 23 0 13 1;
#X connect 24 0 14 1;
#X connect 25 0 15 1;
#X connect 26 0 16 1;
#X connect 27 0 17 1;
#X connect 28 0 18 1;
