#N canvas 524 104 688 594 10;
#X obj 105 120 bng 15 250 50 0 empty empty open 17 7 0 10 #0c4044 #000000 #000000;
#X obj 151 120 tgl 15 0 empty empty record 17 7 0 10 #fcfcfc #000000 #000000 0 1;
#X obj 10 133 inlet~;
#X obj 249 185 list prepend set open;
#X obj 249 209 list trim;
#X obj 249 162 savepanel;
#X obj 129 177 select 0 1;
#X msg 128 233 stop;
#X obj 178 215 t b b;
#X msg 178 257 start;
#X obj 10 550 pdga_helpcredit;
#X obj 15 6 cnv 15 550 25 empty empty mc.recorder5 20 12 0 18 #606060 #fcfcfc 0;
#X obj 15 32 cnv 15 550 25 empty empty multichannel\ recorder\ of\ 5\ channels 20 12 0 12 #606060 #fcfcfc 0;
#X msg 249 258;
#X obj 10 154 snake~ out 5;
#X obj 106 419 writesf~ 5;
#X connect 0 0 5 0;
#X connect 1 0 6 0;
#X connect 2 0 14 0;
#X connect 3 0 4 0;
#X connect 4 0 13 0;
#X connect 5 0 3 0;
#X connect 6 0 7 0;
#X connect 6 1 8 0;
#X connect 7 0 15 0;
#X connect 8 0 9 0;
#X connect 8 1 13 0;
#X connect 9 0 15 0;
#X connect 13 0 15 0;
#X connect 14 0 15 0;
#X connect 14 1 15 1;
#X connect 14 2 15 2;
#X connect 14 3 15 3;
#X connect 14 4 15 4;
#X coords 0 -1 1 1 110 40 1 100 100;
