#N canvas 345 188 593 411 10;
#X obj 14 6 cnv 15 500 25 empty empty mc.regdecoder3 20 12 0 18 #606060 #fcfcfc 0;
#X obj 14 32 cnv 15 500 25 empty empty multichannel\ ambisonic\ regular\ decoder\ at\ order\ 3\ to\ 8\ loudspeakers 20 12 0 12 #606060 #fcfcfc 0;
#X obj 35 331 outlet~;
#X obj 35 79 inlet~;
#X obj 12 369 pdga_helpcredit;
#X obj 186 79 inlet;
#X text 182 104 message amp + value;
#X obj 35 149 mc.decoderblock3;
#X obj 35 268 mc.gain8;
#X connect 3 0 7 0;
#X connect 5 0 8 1;
#X connect 7 0 8 0;
#X connect 8 0 2 0;
