#N canvas 367 217 587 411 10;
#X obj 14 6 cnv 15 500 25 empty empty mc.regdecoder2 20 12 0 18 #606060 #fcfcfc 0;
#X obj 14 32 cnv 15 500 25 empty empty multichannel\ ambisonic\ regular\ decoder\ at\ order\ 2\ to\ 6\ loudspeakers 20 12 0 12 #606060 #fcfcfc 0;
#X obj 35 331 outlet~;
#X obj 35 79 inlet~;
#X obj 186 79 inlet;
#X text 182 104 message amp + value;
#X obj 35 149 mc.decoderblock2;
#X obj 35 268 mc.gain6;
#X obj 12 369 pdga_helpcredit;
#X connect 3 0 6 0;
#X connect 4 0 7 1;
#X connect 6 0 7 0;
#X connect 7 0 2 0;
