#N canvas 249 51 1084 562 10;
#X obj 28 195 *~ 0.5;
#X obj 233 492 outlet~;
#X obj 56 81 inlet~;
#X obj 233 438 snake~ in 8, f 34;
#X obj 60 276 snake~ in 7;
#X obj 56 133 snake~ out 7;
#X obj 14 6 cnv 15 500 25 empty empty mc.regdecoder3 20 12 0 18 #606060 #fcfcfc 0;
#X obj 14 32 cnv 15 500 25 empty empty multichannel\ ambisonic\ regular\ decoder\ at\ order\ 3\ to\ 8\ loudspeakers 20 12 0 12 #606060 #fcfcfc 0;
#X obj 12 522 pdga_helpcredit;
#X obj 63 368 mc.sp7;
#X obj 193 367 mc.sp7;
#X obj 324 367 mc.sp7;
#X obj 450 367 mc.sp7;
#X obj 571 367 mc.sp7;
#X obj 697 367 mc.sp7;
#X obj 822 367 mc.sp7;
#X obj 948 367 mc.sp7;
#X obj 150 253 mc.cstencoder3 0;
#X obj 256 253 mc.cstencoder3 1;
#X obj 363 253 mc.cstencoder3 2;
#X obj 469 253 mc.cstencoder3 3;
#X obj 575 253 mc.cstencoder3 4;
#X obj 683 253 mc.cstencoder3 5;
#X obj 792 253 mc.cstencoder3 6;
#X obj 904 253 mc.cstencoder3 7;
#X connect 0 0 4 0;
#X connect 2 0 5 0;
#X connect 3 0 1 0;
#X connect 4 0 9 0;
#X connect 4 0 10 0;
#X connect 4 0 11 0;
#X connect 4 0 12 0;
#X connect 4 0 13 0;
#X connect 4 0 14 0;
#X connect 4 0 15 0;
#X connect 4 0 16 0;
#X connect 5 0 0 0;
#X connect 5 1 4 1;
#X connect 5 2 4 2;
#X connect 5 3 4 3;
#X connect 5 4 4 4;
#X connect 5 5 4 5;
#X connect 5 6 4 6;
#X connect 9 0 3 0;
#X connect 10 0 3 1;
#X connect 11 0 3 2;
#X connect 12 0 3 3;
#X connect 13 0 3 4;
#X connect 14 0 3 5;
#X connect 15 0 3 6;
#X connect 16 0 3 7;
#X connect 17 0 9 1;
#X connect 18 0 10 1;
#X connect 19 0 11 1;
#X connect 20 0 12 1;
#X connect 21 0 13 1;
#X connect 22 0 14 1;
#X connect 23 0 15 1;
#X connect 24 0 16 1;
