#N canvas 151 112 1055 636 10;
#X obj 36 157 *~ 0.5;
#X obj 332 580 outlet~;
#X obj 64 43 inlet~;
#X obj 642 47 inlet;
#X text 638 72 message amp + value;
#X obj 332 497 snake~ in 2, f 34;
#X obj 332 538 mc.gain2;
#X obj 71 371 stereogains 0;
#X obj 64 95 snake~ out 7;
#X obj 68 238 snake~ in 7;
#X obj 71 330 mc.sp7;
#X obj 201 329 mc.sp7;
#X obj 332 329 mc.sp7;
#X obj 458 329 mc.sp7;
#X obj 579 329 mc.sp7;
#X obj 705 329 mc.sp7;
#X obj 163 215 mc.cstencoder3 0;
#X obj 274 215 mc.cstencoder3 1;
#X obj 201 371 stereogains 45;
#X obj 332 371 stereogains 90;
#X obj 458 371 stereogains 135;
#X obj 579 370 stereogains 180;
#X obj 705 370 stereogains 225;
#X obj 386 215 mc.cstencoder3 2;
#X obj 494 215 mc.cstencoder3 3;
#X obj 609 215 mc.cstencoder3 4;
#X obj 719 215 mc.cstencoder3 5;
#X obj 821 329 mc.sp7;
#X obj 947 329 mc.sp7;
#X obj 827 215 mc.cstencoder3 6;
#X obj 937 215 mc.cstencoder3 7;
#X obj 821 370 stereogains 270;
#X obj 947 370 stereogains 315;
#X connect 0 0 9 0;
#X connect 2 0 8 0;
#X connect 3 0 6 1;
#X connect 5 0 6 0;
#X connect 6 0 1 0;
#X connect 7 0 5 0;
#X connect 7 1 5 1;
#X connect 8 0 0 0;
#X connect 8 1 9 1;
#X connect 8 2 9 2;
#X connect 8 3 9 3;
#X connect 8 4 9 4;
#X connect 8 5 9 5;
#X connect 8 6 9 6;
#X connect 9 0 10 0;
#X connect 9 0 11 0;
#X connect 9 0 12 0;
#X connect 9 0 13 0;
#X connect 9 0 14 0;
#X connect 9 0 15 0;
#X connect 9 0 27 0;
#X connect 9 0 28 0;
#X connect 10 0 7 0;
#X connect 11 0 18 0;
#X connect 12 0 19 0;
#X connect 13 0 20 0;
#X connect 14 0 21 0;
#X connect 15 0 22 0;
#X connect 16 0 10 1;
#X connect 17 0 11 1;
#X connect 18 0 5 0;
#X connect 18 1 5 1;
#X connect 19 0 5 0;
#X connect 19 1 5 1;
#X connect 20 0 5 0;
#X connect 20 1 5 1;
#X connect 21 0 5 0;
#X connect 21 1 5 1;
#X connect 22 0 5 0;
#X connect 22 1 5 1;
#X connect 23 0 12 1;
#X connect 24 0 13 1;
#X connect 25 0 14 1;
#X connect 26 0 15 1;
#X connect 27 0 31 0;
#X connect 28 0 32 0;
#X connect 29 0 27 1;
#X connect 30 0 28 1;
#X connect 31 0 5 0;
#X connect 31 1 5 1;
#X connect 32 0 5 0;
#X connect 32 1 5 1;
