#N canvas 59 118 749 563 10;
#X obj 27 191 *~ 0.5;
#X obj 211 487 outlet~;
#X obj 38 274 snake~ in 3;
#X obj 34 131 snake~ out 3;
#X obj 34 79 inlet~;
#X obj 14 6 cnv 15 500 25 empty empty mc.stereodecoder1 20 12 0 18 #606060 #fcfcfc 0;
#X obj 14 32 cnv 15 500 25 empty empty stereo\ ambisonic\ regular\ decoder\ at\ order\ 1 20 12 0 12 #606060 #fcfcfc 0;
#X obj 12 522 pdga_helpcredit;
#X obj 41 366 mc.sp3;
#X obj 171 365 mc.sp3;
#X obj 302 365 mc.sp3;
#X obj 428 365 mc.sp3;
#X obj 211 438 snake~ in 2;
#X obj 608 77 inlet;
#X text 604 102 message amp + value;
#X obj 211 459 mc.gain2;
#X obj 41 387 stereogains 0;
#X obj 171 386 stereogains 90;
#X obj 302 386 stereogains 180;
#X obj 428 386 stereogains 270;
#X obj 136 250 hoa.cstencoder1 0;
#X obj 244 250 hoa.cstencoder1 1;
#X obj 356 251 hoa.cstencoder1 2;
#X obj 473 251 hoa.cstencoder1 3;
#X connect 0 0 2 0;
#X connect 2 0 8 0;
#X connect 2 0 9 0;
#X connect 2 0 10 0;
#X connect 2 0 11 0;
#X connect 3 0 0 0;
#X connect 3 1 2 1;
#X connect 3 2 2 2;
#X connect 4 0 3 0;
#X connect 8 0 16 0;
#X connect 9 0 17 0;
#X connect 10 0 18 0;
#X connect 11 0 19 0;
#X connect 12 0 15 0;
#X connect 13 0 15 1;
#X connect 15 0 1 0;
#X connect 16 0 12 0;
#X connect 16 1 12 1;
#X connect 17 0 12 0;
#X connect 17 1 12 1;
#X connect 18 0 12 0;
#X connect 18 1 12 1;
#X connect 19 0 12 0;
#X connect 19 1 12 1;
#X connect 20 0 8 1;
#X connect 21 0 9 1;
#X connect 22 0 10 1;
#X connect 23 0 11 1;
