#N canvas 721 176 588 644 10;
#X obj 78 75 inlet~;
#X obj 78 204 *~;
#X obj 129 204 *~;
#X obj 177 205 *~;
#X obj 86 274 +~;
#X obj 129 324 +~;
#X obj 282 544 outlet~;
#X obj 284 73 inlet~;
#X obj 222 204 *~;
#X obj 270 205 *~;
#X obj 162 366 +~;
#X obj 199 404 +~;
#X obj 78 139 snake~ out 7, f 18;
#X obj 284 137 snake~ out 7, f 17;
#X obj 320 205 *~;
#X obj 368 206 *~;
#X obj 245 443 +~;
#X obj 282 481 +~;
#X obj 14 6 cnv 15 500 25 empty empty mc.sp7 20 12 0 18 #606060 #fcfcfc 0;
#X obj 14 32 cnv 15 500 25 empty empty multichannel\ scalar\ product\ of\ two\ buses\ of\ 7\ signals 20 12 0 12 #606060 #fcfcfc 0;
#X obj 12 606 pdga_helpcredit;
#X connect 0 0 12 0;
#X connect 1 0 4 0;
#X connect 2 0 4 1;
#X connect 3 0 5 1;
#X connect 4 0 5 0;
#X connect 5 0 10 0;
#X connect 7 0 13 0;
#X connect 8 0 10 1;
#X connect 9 0 11 1;
#X connect 10 0 11 0;
#X connect 11 0 16 0;
#X connect 12 0 1 0;
#X connect 12 1 2 0;
#X connect 12 2 3 0;
#X connect 12 3 8 0;
#X connect 12 4 9 0;
#X connect 12 5 14 0;
#X connect 12 6 15 0;
#X connect 13 0 1 1;
#X connect 13 1 2 1;
#X connect 13 2 3 1;
#X connect 13 3 8 1;
#X connect 13 4 9 1;
#X connect 13 5 14 1;
#X connect 13 6 15 1;
#X connect 14 0 16 1;
#X connect 15 0 17 1;
#X connect 16 0 17 0;
#X connect 17 0 6 0;
