#N canvas 671 83 438 732 10;
#X text 313 292 Feedback (0-1);
#X obj 315 407 line~ 0;
#X obj 315 346 clip 0 1;
#X obj 300 501 *~;
#X obj 54 17 inlet~;
#X floatatom 105 118 5 0 32 1 duration_(musical_u.) - - 0;
#X floatatom 105 170 5 1 1000 1 - - - 0;
#X floatatom 244 150 5 0 0.99999 1 fdbk - - 0;
#X obj 107 684 outlet~;
#X obj 105 17 inlet;
#X msg 315 376 \$1 20;
#X obj 105 58 route duration tempo fdbk vol;
#X obj 108 151 hsl 128 15 1 1000 0 0 empty empty tempo -2 -8 0 10 #fcfcfc #000000 #000000 0 1;
#X msg 299 57 1;
#X msg 339 58 60;
#X obj 320 22 loadbang;
#X obj 106 262 expr $f1 * 60000 / $f2;
#X floatatom 106 286 5 0 0 0 - - - 0;
#X obj 187 202 t b f;
#X obj 54 566 delwrite~ \$0-musdel 30000;
#X obj 107 383 delread~ \$0-musdel;
#X connect 1 0 3 1;
#X connect 2 0 10 0;
#X connect 3 0 19 0;
#X connect 4 0 19 0;
#X connect 5 0 16 0;
#X connect 6 0 18 0;
#X connect 7 0 2 0;
#X connect 9 0 11 0;
#X connect 10 0 1 0;
#X connect 11 0 5 0;
#X connect 11 1 12 0;
#X connect 11 2 7 0;
#X connect 12 0 6 0;
#X connect 13 0 5 0;
#X connect 14 0 12 0;
#X connect 15 0 13 0;
#X connect 15 0 14 0;
#X connect 16 0 17 0;
#X connect 17 0 20 0;
#X connect 18 0 16 0;
#X connect 18 1 16 1;
#X connect 20 0 3 0;
#X connect 20 0 8 0;
#X coords 0 -1 1 1 210 90 1 100 100;
