#N canvas 475 137 701 674 10;
#X obj 163 463 *~;
#X floatatom 103 157 5 50 10000 1 freq_(Hz) - -;
#X floatatom 218 157 5 1 5000 1 release_(ms) - -;
#X floatatom 218 128 5 1 5000 1 attack_(ms) - -;
#X obj 163 619 outlet~;
#X obj 105 17 inlet;
#X obj 163 586 *~;
#X obj 232 554 line~;
#X msg 232 501 \$1 20;
#X obj 348 135 hsl 64 15 0 1 0 0 empty empty vol -2 -8 0 10 -262144
-1 -1 0 1;
#X obj 599 19 loadbang;
#X msg 636 59 0;
#X floatatom 345 154 5 0 1 0 - - -;
#X msg 524 59 880;
#X msg 556 59 50;
#X obj 54 17 inlet;
#X text 1 42 bang to trigger;
#X obj 105 118 bng 30 250 50 0 empty empty trigger 35 7 0 10 -262144
-1 -1;
#X obj 104 343 osc~;
#X obj 183 243 t b b;
#X obj 215 294 pack 1 50;
#X obj 194 341 line~;
#X obj 122 294 pack 0 1000;
#X obj 139 268 del 50;
#X obj 189 381 *~;
#X msg 589 59 200;
#X obj 188 410 *~;
#X obj 105 58 route freq attack release vol;
#X connect 0 0 6 0;
#X connect 1 0 18 0;
#X connect 2 0 22 1;
#X connect 3 0 20 1;
#X connect 3 0 23 1;
#X connect 5 0 27 0;
#X connect 6 0 4 0;
#X connect 7 0 6 1;
#X connect 8 0 7 0;
#X connect 9 0 12 0;
#X connect 10 0 11 0;
#X connect 10 0 13 0;
#X connect 10 0 14 0;
#X connect 10 0 25 0;
#X connect 11 0 9 0;
#X connect 12 0 8 0;
#X connect 13 0 1 0;
#X connect 14 0 3 0;
#X connect 15 0 17 0;
#X connect 17 0 19 0;
#X connect 18 0 0 0;
#X connect 19 0 23 0;
#X connect 19 1 20 0;
#X connect 20 0 21 0;
#X connect 21 0 24 0;
#X connect 21 0 24 1;
#X connect 22 0 21 0;
#X connect 23 0 22 0;
#X connect 24 0 26 0;
#X connect 24 0 26 1;
#X connect 25 0 2 0;
#X connect 26 0 0 1;
#X connect 27 0 1 0;
#X connect 27 1 3 0;
#X connect 27 2 2 0;
#X connect 27 3 9 0;
#X coords 0 -1 1 1 320 80 1 100 100;
