#N canvas 150 187 276 310 10;
#X obj 141 48 loadbang;
#X obj 141 72 f \$1;
#X floatatom 141 96 5 0 0 0 - - - 0;
#X obj 61 48 inlet~;
#X obj 141 119 t f f;
#X obj 62 235 outlet~;
#X obj 134 236 outlet~;
#X obj 62 191 leftgain;
#X obj 134 191 rightgain;
#X connect 0 0 1 0;
#X connect 1 0 2 0;
#X connect 2 0 4 0;
#X connect 3 0 7 0;
#X connect 3 0 8 0;
#X connect 4 0 7 1;
#X connect 4 1 8 1;
#X connect 7 0 5 0;
#X connect 8 0 6 0;
