#N canvas 454 179 691 438 12;
#X obj 10 450 pdga_helpcredit;
#X obj 46 67 inlet;
#X text 92 67 current angle;
#X text 94 87 of the source;
#X obj 244 67 inlet;
#X text 287 69 direct (1/0);
#X obj 245 167 expr 2*$f1-1;
#X obj 283 101 loadbang;
#X msg 283 124 1;
#X obj 436 66 inlet;
#X text 479 68 shift (degrees);
#X obj 325 261 * 1;
#X obj 326 225 t b f;
#X text 362 264 direct*shift;
#X obj 231 372 * 1;
#X obj 180 322 -;
#X obj 191 289 t b f;
#X obj 245 211 t b f f;
#X obj 232 407 outlet;
#X connect 1 0 15 0;
#X connect 4 0 6 0;
#X connect 6 0 17 0;
#X connect 7 0 8 0;
#X connect 8 0 6 0;
#X connect 9 0 12 0;
#X connect 11 0 16 0;
#X connect 12 0 11 0;
#X connect 12 1 11 1;
#X connect 14 0 18 0;
#X connect 15 0 14 0;
#X connect 16 0 15 0;
#X connect 16 1 15 1;
#X connect 17 0 14 0;
#X connect 17 1 14 1;
#X connect 17 2 11 0;
