#N canvas 50 50 600 500 10;
#X obj 46 27 inlet;
#X text 88 26 ambisonic order N;
#X floatatom 46 48 5 0 0 0 - - - 0;
#X floatatom 47 183 9 0 0 0 - - - 0;
#X obj 47 203 sig~;
#X obj 47 162 expr 2/(2*$f1+1);
#X floatatom 180 183 5 0 0 0 - - - 0;
#X obj 180 162 expr 1/(2*$f1+2);
#X obj 180 254 * 1;
#X obj 317 207 t b f;
#X obj 180 300 sig~;
#X floatatom 180 275 5 0 0 0 - - - 0;
#X obj 316 27 inlet;
#X text 355 27 LS index between 0 and 2*N+1;
#X floatatom 316 48 5 0 0 0 - - - 0;
#X obj 48 390 outlet~;
#X obj 180 390 outlet~;
#X obj 10 450 pdga_helpcredit;
#X connect 0 0 2 0;
#X connect 2 0 5 0;
#X connect 2 0 7 0;
#X connect 3 0 4 0;
#X connect 4 0 15 0;
#X connect 5 0 3 0;
#X connect 6 0 8 0;
#X connect 7 0 6 0;
#X connect 8 0 11 0;
#X connect 9 0 8 0;
#X connect 9 1 8 1;
#X connect 10 0 16 0;
#X connect 11 0 10 0;
#X connect 12 0 14 0;
#X connect 14 0 9 0;
