#N canvas 595 41 574 270 10;
#X obj 24 14 inlet;
#X obj 24 35 route amp;
#X msg 24 56 \$1 20;
#X obj 24 145 dbtorms;
#X floatatom 24 166 13 0 0 0 - - - 0;
#X obj 24 78 line -100;
#X obj 24 120 + 100;
#X obj 24 196 outlet;
#X obj 12 228 pdga_helpcredit;
#X connect 0 0 1 0;
#X connect 1 0 2 0;
#X connect 2 0 5 0;
#X connect 3 0 4 0;
#X connect 4 0 7 0;
#X connect 5 0 6 0;
#X connect 6 0 3 0;
