#N canvas 317 276 584 404 10;
#X obj 34 141 vsl 15 128 -100 18 0 0 empty empty empty 0 -9 0 10 #dfdfdf #000000 #000000 0 1;
#X obj 34 70 loadbang;
#X floatatom 34 275 5 0 0 0 - - - 0;
#X obj 34 94 f \$1;
#X obj 53 212 bng 15 250 50 0 empty empty R 17 7 0 10 #ffffff #000000 #000000;
#X obj 34 337 outlet;
#X msg 123 141 0;
#X text 66 277 dB;
#X obj 53 175 bng 15 250 50 0 empty empty O 17 7 0 10 #dfdfdf #000000 #000000;
#X obj 53 194 bng 15 250 50 0 empty empty -100 17 7 0 10 #dfdfdf #000000 #000000;
#X msg 120 226 -100;
#X msg 34 310 amp \$1;
#X obj 12 370 pdga_helpcredit;
#X obj 14 6 cnv 15 500 25 empty empty dbamp 20 12 0 18 #606060 #fcfcfc 0;
#X obj 14 32 cnv 15 500 25 empty empty abstraction\ to\ set\ the\ amplitude\ between\ -100\ and\ +18\ dB 20 12 0 12 #606060 #fcfcfc 0;
#X connect 0 0 2 0;
#X connect 1 0 3 0;
#X connect 2 0 11 0;
#X connect 3 0 0 0;
#X connect 4 0 3 0;
#X connect 6 0 0 0;
#X connect 8 0 6 0;
#X connect 9 0 10 0;
#X connect 10 0 0 0;
#X connect 11 0 5 0;
#X coords 0 -1 1 1 65 180 1 30 115;
