#N canvas 464 79 588 596 10;
#X obj 10 550 pdga_helpcredit;
#X text 25 25 Encoder control;
#X obj 92 163 phasor~;
#X obj 156 163 expr $f1 / 360;
#X obj 92 91 inlet;
#X obj 92 128 route speed angle returntime;
#X obj 183 197 != 0;
#X obj 92 285 *~;
#X obj 183 248 line;
#X obj 183 221 pack 0 100;
#X obj 92 370 outlet~;
#X obj 92 309 +~;
#X connect 2 0 7 0;
#X connect 3 0 11 1;
#X connect 4 0 5 0;
#X connect 5 0 2 0;
#X connect 5 0 6 0;
#X connect 5 1 3 0;
#X connect 5 2 9 1;
#X connect 6 0 9 0;
#X connect 7 0 11 0;
#X connect 8 0 7 1;
#X connect 9 0 8 0;
#X connect 11 0 10 0;
