#N canvas 292 336 577 330 10;
#X obj 23 114 max~ 0;
#X obj 23 175 -~ 0;
#X obj 86 188 /~;
#X obj 86 152 sig~ -1;
#X obj 101 114 -~;
#X obj 23 212 *~;
#X obj 23 17 inlet~;
#X obj 23 252 outlet~;
#X obj 88 17 inlet;
#X obj 12 287 pdga_helpcredit;
#X connect 0 0 1 0;
#X connect 1 0 5 0;
#X connect 2 0 5 1;
#X connect 3 0 2 0;
#X connect 4 0 2 1;
#X connect 5 0 7 0;
#X connect 6 0 0 0;
#X connect 6 0 4 1;
#X connect 8 0 4 0;
#X connect 8 0 1 1;
#X connect 8 0 0 1;
