#N canvas 438 139 514 449 10;
#X obj 45 44 inlet~;
#X obj 134 208 vbap4_f 0;
#X obj 210 208 vbap4_f 90;
#X obj 294 208 vbap4_f 180;
#X obj 378 208 vbap4_f 270;
#X obj 45 65 snake~ out 4;
#X obj 196 410 outlet~;
#X obj 162 295 mc.busplus4;
#X obj 253 296 mc.busplus4;
#X obj 197 337 mc.busplus4;
#X obj 166 43 inlet;
#X obj 166 67 route a0 a1 a2 a3;
#X connect 0 0 5 0;
#X connect 1 0 7 0;
#X connect 2 0 7 1;
#X connect 3 0 8 0;
#X connect 4 0 8 1;
#X connect 5 0 1 0;
#X connect 5 1 2 0;
#X connect 5 2 3 0;
#X connect 5 3 4 0;
#X connect 7 0 9 0;
#X connect 8 0 9 1;
#X connect 9 0 6 0;
#X connect 10 0 11 0;
#X connect 11 0 1 1;
#X connect 11 0 2 1;
#X connect 11 0 3 1;
#X connect 11 0 4 1;
#X connect 11 1 1 2;
#X connect 11 1 2 2;
#X connect 11 1 3 2;
#X connect 11 1 4 2;
#X connect 11 2 1 3;
#X connect 11 2 2 3;
#X connect 11 2 4 3;
#X connect 11 2 3 3;
#X connect 11 3 1 4;
#X connect 11 3 2 4;
#X connect 11 3 3 4;
#X connect 11 3 4 4;
