#N canvas 547 90 571 699 10;
#X obj 73 572 outlet~;
#X obj 134 452 *~;
#X obj 198 453 *~;
#X obj 203 379 sinandcos 1;
#X obj 14 6 cnv 15 500 25 empty empty mc.cstencoder2 20 12 0 18 #606060 #fcfcfc 0;
#X obj 14 32 cnv 15 500 25 empty empty multichannel\ ambisonic\ constant\ encoder\ at\ order\ 2 20 12 0 12 #606060 #fcfcfc 0;
#X obj 12 662 pdga_helpcredit;
#X obj 297 380 sinandcos 2;
#X obj 240 453 *~;
#X obj 304 454 *~;
#X obj 73 519 snake~ in 5;
#X obj 70 110 loadbang;
#X obj 146 150 float \$1;
#X text 203 150 index between 0 and 2*N+1;
#X obj 71 225 cstforencoder;
#X text 13 134 ambisonic order N;
#X floatatom 146 171 5 0 0 0 - - - 0;
#X msg 70 150 2;
#X connect 1 0 10 1;
#X connect 2 0 10 2;
#X connect 3 0 1 1;
#X connect 3 1 2 1;
#X connect 7 0 8 1;
#X connect 7 1 9 1;
#X connect 8 0 10 3;
#X connect 9 0 10 4;
#X connect 10 0 0 0;
#X connect 11 0 17 0;
#X connect 11 0 12 0;
#X connect 12 0 16 0;
#X connect 14 0 10 0;
#X connect 14 0 1 0;
#X connect 14 0 2 0;
#X connect 14 0 8 0;
#X connect 14 0 9 0;
#X connect 14 1 3 0;
#X connect 14 1 7 0;
#X connect 16 0 14 1;
#X connect 17 0 14 0;
