#N canvas 564 119 608 510 10;
#X obj 27 129 *~ 0.5;
#X obj 211 425 outlet~;
#X obj 38 212 snake~ in 3;
#X obj 211 358 snake~ in 4;
#X obj 34 69 snake~ out 3;
#X obj 34 17 inlet~;
#X obj 12 460 pdga_helpcredit;
#X obj 41 304 mc.sp3;
#X obj 171 303 mc.sp3;
#X obj 302 303 mc.sp3;
#X obj 428 303 mc.sp3;
#X obj 136 188 mc.cstencoder1 0;
#X obj 244 188 mc.cstencoder1 1;
#X obj 356 189 mc.cstencoder1 2;
#X obj 461 189 mc.cstencoder1 3;
#X connect 0 0 2 0;
#X connect 2 0 7 0;
#X connect 2 0 8 0;
#X connect 2 0 9 0;
#X connect 2 0 10 0;
#X connect 3 0 1 0;
#X connect 4 0 0 0;
#X connect 4 1 2 1;
#X connect 4 2 2 2;
#X connect 5 0 4 0;
#X connect 7 0 3 0;
#X connect 8 0 3 1;
#X connect 9 0 3 2;
#X connect 10 0 3 3;
#X connect 11 0 7 1;
#X connect 12 0 8 1;
#X connect 13 0 9 1;
#X connect 14 0 10 1;
