#N canvas 0 38 1264 510 10;
#X obj 28 136 *~ 0.5;
#X obj 233 433 outlet~;
#X obj 56 22 inlet~;
#X obj 12 463 pdga_helpcredit;
#X obj 56 74 snake~ out 9, f 15;
#X obj 58 217 snake~ in 9, f 15;
#X obj 233 379 snake~ in 10, f 73;
#X obj 63 309 mc.sp9;
#X obj 193 308 mc.sp9;
#X obj 324 308 mc.sp9;
#X obj 450 308 mc.sp9;
#X obj 571 308 mc.sp9;
#X obj 697 308 mc.sp9;
#X obj 822 308 mc.sp9;
#X obj 948 308 mc.sp9;
#X obj 1065 307 mc.sp9;
#X obj 1191 307 mc.sp9;
#X obj 161 194 mc.cstencoder4 0;
#X obj 270 194 mc.cstencoder4 1;
#X obj 379 194 mc.cstencoder4 2;
#X obj 486 194 mc.cstencoder4 3;
#X obj 593 194 mc.cstencoder4 4;
#X obj 700 194 mc.cstencoder4 5;
#X obj 808 194 mc.cstencoder4 6;
#X obj 917 195 mc.cstencoder4 7;
#X obj 1022 195 mc.cstencoder4 8;
#X obj 1130 195 mc.cstencoder4 9;
#X connect 0 0 5 0;
#X connect 2 0 4 0;
#X connect 4 0 0 0;
#X connect 4 1 5 1;
#X connect 4 2 5 2;
#X connect 4 3 5 3;
#X connect 4 4 5 4;
#X connect 4 5 5 5;
#X connect 4 6 5 6;
#X connect 4 7 5 7;
#X connect 4 8 5 8;
#X connect 5 0 7 0;
#X connect 5 0 8 0;
#X connect 5 0 9 0;
#X connect 5 0 10 0;
#X connect 5 0 11 0;
#X connect 5 0 12 0;
#X connect 5 0 13 0;
#X connect 5 0 14 0;
#X connect 5 0 15 0;
#X connect 5 0 16 0;
#X connect 6 0 1 0;
#X connect 7 0 6 0;
#X connect 8 0 6 1;
#X connect 9 0 6 2;
#X connect 10 0 6 3;
#X connect 11 0 6 4;
#X connect 12 0 6 5;
#X connect 13 0 6 6;
#X connect 14 0 6 7;
#X connect 15 0 6 8;
#X connect 16 0 6 9;
#X connect 17 0 7 1;
#X connect 18 0 8 1;
#X connect 19 0 9 1;
#X connect 20 0 10 1;
#X connect 21 0 11 1;
#X connect 22 0 12 1;
#X connect 23 0 13 1;
#X connect 24 0 14 1;
#X connect 25 0 15 1;
#X connect 26 0 16 1;
