#N canvas 164 289 826 529 10;
#X obj 17 129 *~ 0.5;
#X obj 219 404 outlet~;
#X obj 45 22 inlet~;
#X obj 49 210 snake~ in 5;
#X obj 45 67 snake~ out 5;
#X obj 219 353 snake~ in 6, f 34;
#X obj 12 460 pdga_helpcredit;
#X obj 49 283 mc.sp5;
#X obj 179 282 mc.sp5;
#X obj 310 282 mc.sp5;
#X obj 436 282 mc.sp5;
#X obj 557 282 mc.sp5;
#X obj 683 282 mc.sp5;
#X obj 132 187 mc.cstencoder2 0;
#X obj 241 187 mc.cstencoder2 1;
#X obj 352 187 mc.cstencoder2 2;
#X obj 465 187 mc.cstencoder2 3;
#X obj 586 187 mc.cstencoder2 4;
#X obj 710 187 mc.cstencoder2 5;
#X connect 0 0 3 0;
#X connect 2 0 4 0;
#X connect 3 0 7 0;
#X connect 3 0 8 0;
#X connect 3 0 9 0;
#X connect 3 0 10 0;
#X connect 3 0 11 0;
#X connect 3 0 12 0;
#X connect 4 0 0 0;
#X connect 4 1 3 1;
#X connect 4 2 3 2;
#X connect 4 3 3 3;
#X connect 4 4 3 4;
#X connect 5 0 1 0;
#X connect 7 0 5 0;
#X connect 8 0 5 1;
#X connect 9 0 5 2;
#X connect 10 0 5 3;
#X connect 11 0 5 4;
#X connect 12 0 5 5;
#X connect 13 0 7 1;
#X connect 14 0 8 1;
#X connect 15 0 9 1;
#X connect 16 0 10 1;
#X connect 17 0 11 1;
#X connect 18 0 12 1;
