#N canvas 596 77 571 535 10;
#X obj 96 89 inlet~;
#X obj 113 216 *~;
#X obj 164 216 *~;
#X obj 212 217 *~;
#X obj 164 409 outlet~;
#X obj 96 151 snake~ out 3;
#X obj 192 89 inlet~;
#X obj 192 151 snake~ out 3;
#X obj 14 6 cnv 15 500 25 empty empty mc.sp3 20 12 0 18 #606060 #fcfcfc 0;
#X obj 14 32 cnv 15 500 25 empty empty multichannel\ scalar\ product\ of\ two\ buses\ of\ 3\ signals 20 12 0 12 #606060 #fcfcfc 0;
#X obj 12 486 pdga_helpcredit;
#X connect 0 0 5 0;
#X connect 1 0 4 0;
#X connect 2 0 4 0;
#X connect 3 0 4 0;
#X connect 5 0 1 0;
#X connect 5 1 2 0;
#X connect 5 2 3 0;
#X connect 6 0 7 0;
#X connect 7 0 1 1;
#X connect 7 1 2 1;
#X connect 7 2 3 1;
