#N canvas 121 146 676 449 10;
#X obj 449 40 inlet~;
#X obj 58 64 float \$1;
#X obj 117 65 float \$2;
#X obj 175 65 float \$3;
#X obj 233 65 float \$4;
#X obj 58 31 loadbang;
#X obj 212 311 +~;
#X obj 238 311 +~;
#X obj 264 311 +~;
#X obj 290 311 +~;
#X obj 211 408 outlet~;
#X obj 449 61 snake~ out 6;
#X text 337 24 6 real angles;
#X obj 290 65 float \$5;
#X obj 348 65 float \$6;
#X obj 58 206 vbap6_f 0, f 10;
#X obj 318 310 +~;
#X obj 344 310 +~;
#X obj 134 206 vbap6_f 60, f 11;
#X obj 218 206 vbap6_f 120, f 12;
#X obj 302 206 vbap6_f 180;
#X obj 386 206 vbap6_f 240;
#X obj 470 206 vbap6_f 300;
#X obj 211 368 snake~ in 6;
#X connect 0 0 11 0;
#X connect 1 0 15 0;
#X connect 1 0 18 0;
#X connect 1 0 19 0;
#X connect 1 0 20 0;
#X connect 1 0 21 0;
#X connect 1 0 22 0;
#X connect 2 0 15 1;
#X connect 2 0 18 1;
#X connect 2 0 19 1;
#X connect 2 0 20 1;
#X connect 2 0 21 1;
#X connect 2 0 22 1;
#X connect 3 0 15 2;
#X connect 3 0 18 2;
#X connect 3 0 19 2;
#X connect 3 0 20 2;
#X connect 3 0 21 2;
#X connect 3 0 22 2;
#X connect 4 0 15 3;
#X connect 4 0 18 3;
#X connect 4 0 19 3;
#X connect 4 0 20 3;
#X connect 4 0 21 3;
#X connect 4 0 22 3;
#X connect 5 0 1 0;
#X connect 5 0 2 0;
#X connect 5 0 3 0;
#X connect 5 0 4 0;
#X connect 5 0 13 0;
#X connect 5 0 14 0;
#X connect 6 0 23 0;
#X connect 7 0 23 1;
#X connect 8 0 23 2;
#X connect 9 0 23 3;
#X connect 11 0 15 6;
#X connect 11 1 18 6;
#X connect 11 2 19 6;
#X connect 11 3 20 6;
#X connect 11 4 21 6;
#X connect 11 5 22 6;
#X connect 13 0 15 4;
#X connect 13 0 18 4;
#X connect 13 0 20 4;
#X connect 13 0 21 4;
#X connect 13 0 22 4;
#X connect 14 0 15 5;
#X connect 14 0 18 5;
#X connect 14 0 20 5;
#X connect 14 0 21 5;
#X connect 14 0 22 5;
#X connect 15 0 6 0;
#X connect 15 1 7 0;
#X connect 15 2 8 0;
#X connect 15 3 9 0;
#X connect 15 4 16 0;
#X connect 15 5 17 0;
#X connect 16 0 23 4;
#X connect 17 0 23 5;
#X connect 18 0 6 0;
#X connect 18 1 7 0;
#X connect 18 2 8 0;
#X connect 18 3 9 0;
#X connect 18 4 16 0;
#X connect 18 5 17 0;
#X connect 19 0 6 0;
#X connect 19 1 7 0;
#X connect 19 2 8 0;
#X connect 19 3 9 0;
#X connect 19 4 16 0;
#X connect 19 5 17 0;
#X connect 20 0 6 1;
#X connect 20 1 7 1;
#X connect 20 2 8 1;
#X connect 20 3 9 1;
#X connect 20 4 16 1;
#X connect 20 5 17 1;
#X connect 21 0 6 1;
#X connect 21 1 7 1;
#X connect 21 2 8 1;
#X connect 21 3 9 1;
#X connect 21 4 16 1;
#X connect 21 5 17 1;
#X connect 22 0 6 1;
#X connect 22 1 7 1;
#X connect 22 2 8 1;
#X connect 22 3 9 1;
#X connect 22 4 16 1;
#X connect 22 5 17 1;
#X connect 23 0 10 0;
