#N canvas 121 146 514 449 10;
#X text 288 65 4 real angles;
#X obj 396 39 inlet~;
#X obj 58 64 float \$1;
#X obj 117 65 float \$2;
#X obj 175 65 float \$3;
#X obj 233 65 float \$4;
#X obj 58 206 vbap4_f 0;
#X obj 134 206 vbap4_f 90;
#X obj 218 206 vbap4_f 180;
#X obj 302 206 vbap4_f 270;
#X obj 58 31 loadbang;
#X obj 396 60 snake~ out 4;
#X obj 133 311 +~;
#X obj 159 311 +~;
#X obj 185 311 +~;
#X obj 211 311 +~;
#X obj 132 368 snake~ in 4;
#X obj 132 408 outlet~;
#X connect 1 0 11 0;
#X connect 2 0 6 0;
#X connect 2 0 7 0;
#X connect 2 0 8 0;
#X connect 2 0 9 0;
#X connect 3 0 6 1;
#X connect 3 0 7 1;
#X connect 3 0 8 1;
#X connect 3 0 9 1;
#X connect 4 0 6 2;
#X connect 4 0 7 2;
#X connect 4 0 8 2;
#X connect 4 0 9 2;
#X connect 5 0 6 3;
#X connect 5 0 7 3;
#X connect 5 0 8 3;
#X connect 5 0 9 3;
#X connect 6 0 12 0;
#X connect 6 1 13 0;
#X connect 6 2 14 0;
#X connect 6 3 15 0;
#X connect 7 0 12 0;
#X connect 7 1 13 0;
#X connect 7 2 14 0;
#X connect 7 3 15 0;
#X connect 8 0 12 1;
#X connect 8 1 13 1;
#X connect 8 2 14 1;
#X connect 8 3 15 1;
#X connect 9 0 12 1;
#X connect 9 1 13 1;
#X connect 9 2 14 1;
#X connect 9 3 15 1;
#X connect 10 0 2 0;
#X connect 10 0 3 0;
#X connect 10 0 4 0;
#X connect 10 0 5 0;
#X connect 11 0 6 4;
#X connect 11 1 7 4;
#X connect 11 2 8 4;
#X connect 11 3 9 4;
#X connect 12 0 16 0;
#X connect 13 0 16 1;
#X connect 14 0 16 2;
#X connect 15 0 16 3;
#X connect 16 0 17 0;
