#N canvas 335 150 868 535 10;
#X floatatom 66 59 5 0 0 0 - - - 0;
#X floatatom 66 156 5 0 0 0 - - - 0;
#X floatatom 298 156 5 0 0 0 - - - 0;
#X floatatom 539 156 5 0 0 0 - - - 0;
#X obj 66 264 +;
#X obj 66 27 inlet;
#X obj 96 230 t b f;
#X obj 66 325 +;
#X obj 96 291 t b f;
#X obj 66 438 outlet;
#X obj 66 399 sin;
#X obj 66 364 * 3.14159;
#X obj 66 132 sectormix 0 30 1 1 0.25;
#X obj 298 132 sectormix 30 180 0 1 0.5;
#X obj 539 132 sectormix 330 360 1 0 0.25;
#X connect 0 0 12 0;
#X connect 0 0 13 0;
#X connect 0 0 14 0;
#X connect 1 0 4 0;
#X connect 2 0 6 0;
#X connect 3 0 8 0;
#X connect 4 0 7 0;
#X connect 5 0 0 0;
#X connect 6 0 4 0;
#X connect 6 1 4 1;
#X connect 7 0 11 0;
#X connect 8 0 7 0;
#X connect 8 1 7 1;
#X connect 10 0 9 0;
#X connect 11 0 10 0;
#X connect 12 0 1 0;
#X connect 13 0 2 0;
#X connect 14 0 3 0;
