#N canvas 141 154 588 596 10;
#X obj 10 550 pdga_helpcredit;
#X obj 99 370 outlet;
#X obj 221 170 list prepend set open;
#X obj 221 194 list trim;
#X obj 221 147 savepanel;
#X obj 101 162 select 0 1;
#X msg 100 218 stop;
#X obj 150 200 t b b;
#X msg 150 242 start;
#X msg 221 243;
#X text 25 25 Recorder control;
#X obj 101 87 inlet;
#X obj 146 87 inlet;
#X text 100 45 open bang;
#X text 142 58 record toggle;
#X connect 2 0 3 0;
#X connect 3 0 9 0;
#X connect 4 0 2 0;
#X connect 5 0 6 0;
#X connect 5 1 7 0;
#X connect 6 0 1 0;
#X connect 7 0 8 0;
#X connect 7 1 9 0;
#X connect 8 0 1 0;
#X connect 9 0 1 0;
#X connect 11 0 4 0;
#X connect 12 0 5 0;
