#N canvas 1139 235 707 498 10;
#X obj 10 450 pdga_helpcredit;
#X obj 18 52 inlet~;
#X obj 86 52 inlet~;
#X obj 141 52 inlet;
#X obj 141 108 clip 0 2;
#X obj 141 75 route out ramptime;
#X obj 213 246 pack 0 100;
#X obj 142 246 pack 0 100;
#X obj 142 202 == 1;
#X obj 177 202 == 2;
#X obj 60 335 *~;
#X obj 134 335 *~;
#X obj 96 373 outlet~;
#X obj 149 306 line~;
#X obj 75 305 line~;
#X connect 1 0 10 0;
#X connect 2 0 11 0;
#X connect 3 0 5 0;
#X connect 4 0 8 0;
#X connect 4 0 9 0;
#X connect 5 0 4 0;
#X connect 5 1 7 1;
#X connect 5 1 6 1;
#X connect 6 0 13 0;
#X connect 7 0 14 0;
#X connect 8 0 7 0;
#X connect 9 0 6 0;
#X connect 10 0 12 0;
#X connect 11 0 12 0;
#X connect 13 0 11 1;
#X connect 14 0 10 1;
