#N canvas 179 217 269 300 10;
#X obj 124 147 cos~;
#X obj 49 204 cos~;
#X obj 49 147 *~ -1;
#X obj 49 171 +~ 0.25;
#X obj 150 14 loadbang;
#X obj 49 25 inlet~;
#X obj 150 38 f \$1;
#X obj 49 71 *~;
#X obj 49 253 outlet~;
#X obj 125 253 outlet~;
#X text 71 231 sin;
#X text 149 231 cos;
#X connect 0 0 9 0;
#X connect 1 0 8 0;
#X connect 2 0 3 0;
#X connect 3 0 1 0;
#X connect 4 0 6 0;
#X connect 5 0 7 0;
#X connect 6 0 7 1;
#X connect 7 0 0 0;
#X connect 7 0 2 0;
