#N canvas 700 37 609 903 10;
#X obj 125 23 inlet;
#X obj 231 22 inlet;
#X text 161 23 theta1;
#X text 268 23 theta2;
#X floatatom 231 44 5 0 0 0 - - - 0;
#X floatatom 125 44 5 0 0 0 - - - 0;
#X obj 125 64 mod 360;
#X obj 231 64 mod 360;
#X obj 335 64 mod 360;
#X obj 125 163 -;
#X text 156 164 theta2-theta1;
#X obj 261 163 -;
#X text 292 164 theta2-theta;
#X obj 335 105 t b f f;
#X obj 407 162 -;
#X text 438 163 theta-theta1;
#X obj 125 105 t b f b f;
#X obj 261 202 / 360;
#X obj 261 223 * 6.28319;
#X obj 261 244 sin;
#X obj 301 407 t f f f;
#X obj 407 202 / 360;
#X obj 407 223 * 6.28319;
#X obj 407 244 sin;
#X obj 322 441 *;
#X obj 295 441 abs;
#X obj 447 406 t f f f;
#X obj 468 440 *;
#X obj 441 440 abs;
#X obj 330 509 +;
#X obj 468 461 t b f;
#X text 347 441 square;
#X text 496 439 square;
#X obj 330 530 sqrt;
#X obj 330 551 t f f;
#X obj 252 609 /;
#X obj 318 573 t b f;
#X obj 361 574 t b f;
#X obj 405 610 /;
#X floatatom 252 630 5 0 0 0 - - - 0;
#X floatatom 405 631 5 0 0 0 - - - 0;
#X obj 174 607 t f f;
#X obj 162 629 t b f;
#X obj 205 630 t b f;
#X obj 252 687 *;
#X obj 405 688 *;
#X floatatom 252 708 5 0 0 0 - - - 0;
#X floatatom 405 709 5 0 0 0 - - - 0;
#X msg 252 728 \$1 5;
#X msg 405 729 \$1 5;
#X obj 252 749 line 0;
#X floatatom 252 770 5 0 0 0 - - - 0;
#X obj 405 750 line 0;
#X floatatom 405 771 5 0 0 0 - - - 0;
#X obj 54 23 inlet~;
#X obj 236 815 *~;
#X obj 389 816 *~;
#X obj 236 838 outlet~;
#X obj 389 837 outlet~;
#X obj 335 22 inlet;
#X text 372 23 theta;
#X floatatom 335 44 5 0 0 0 - - - 0;
#X obj 125 201 / 360;
#X obj 125 222 * 6.28319;
#X obj 125 243 sin;
#X obj 125 288 > 0;
#X obj 378 295 >= 0;
#X floatatom 125 85 5 0 0 0 - - - 0;
#X floatatom 231 86 5 0 0 0 - - - 0;
#X floatatom 335 85 5 0 0 0 - - - 0;
#X obj 125 264 t f f;
#X obj 162 288 < 0;
#X obj 261 266 t f f f;
#X obj 250 290 > 0;
#X obj 277 290 < 0;
#X obj 407 268 t f f f;
#X obj 416 295 <= 0;
#X obj 125 354 *;
#X obj 224 319 t b f;
#X obj 371 320 t b f;
#X obj 125 386 *;
#X floatatom 125 407 5 0 0 0 - - - 0;
#X obj 162 354 *;
#X obj 264 320 t b f;
#X obj 409 320 t b f;
#X obj 162 387 *;
#X floatatom 162 408 5 0 0 0 - - - 0;
#X obj 135 435 t b f;
#X obj 124 476 +;
#X floatatom 100 535 5 0 0 0 - - - 0;
#X text 57 536 1 or 0;
#X connect 0 0 5 0;
#X connect 1 0 4 0;
#X connect 4 0 7 0;
#X connect 5 0 6 0;
#X connect 6 0 67 0;
#X connect 7 0 68 0;
#X connect 8 0 69 0;
#X connect 9 0 62 0;
#X connect 11 0 17 0;
#X connect 13 0 11 0;
#X connect 13 1 11 1;
#X connect 13 2 14 0;
#X connect 14 0 21 0;
#X connect 16 0 9 0;
#X connect 16 1 9 1;
#X connect 16 2 14 0;
#X connect 16 3 14 1;
#X connect 17 0 18 0;
#X connect 18 0 19 0;
#X connect 19 0 72 0;
#X connect 20 0 25 0;
#X connect 20 1 24 0;
#X connect 20 2 24 1;
#X connect 21 0 22 0;
#X connect 22 0 23 0;
#X connect 23 0 75 0;
#X connect 24 0 29 0;
#X connect 25 0 35 0;
#X connect 26 0 28 0;
#X connect 26 1 27 0;
#X connect 26 2 27 1;
#X connect 27 0 30 0;
#X connect 28 0 38 0;
#X connect 29 0 33 0;
#X connect 30 0 29 0;
#X connect 30 1 29 1;
#X connect 33 0 34 0;
#X connect 34 0 36 0;
#X connect 34 1 37 0;
#X connect 35 0 39 0;
#X connect 36 0 35 0;
#X connect 36 1 35 1;
#X connect 37 0 38 0;
#X connect 37 1 38 1;
#X connect 38 0 40 0;
#X connect 39 0 44 0;
#X connect 40 0 45 0;
#X connect 41 0 42 0;
#X connect 41 1 43 0;
#X connect 42 0 44 0;
#X connect 42 1 44 1;
#X connect 43 0 45 0;
#X connect 43 1 45 1;
#X connect 44 0 46 0;
#X connect 45 0 47 0;
#X connect 46 0 48 0;
#X connect 47 0 49 0;
#X connect 48 0 50 0;
#X connect 49 0 52 0;
#X connect 50 0 51 0;
#X connect 51 0 55 1;
#X connect 52 0 53 0;
#X connect 53 0 56 1;
#X connect 54 0 55 0;
#X connect 54 0 56 0;
#X connect 55 0 57 0;
#X connect 56 0 58 0;
#X connect 59 0 61 0;
#X connect 61 0 8 0;
#X connect 62 0 63 0;
#X connect 63 0 64 0;
#X connect 64 0 70 0;
#X connect 65 0 77 0;
#X connect 66 0 79 0;
#X connect 67 0 16 0;
#X connect 68 0 11 0;
#X connect 68 0 9 0;
#X connect 69 0 13 0;
#X connect 70 0 65 0;
#X connect 70 1 71 0;
#X connect 71 0 82 0;
#X connect 72 0 73 0;
#X connect 72 1 74 0;
#X connect 72 2 20 0;
#X connect 73 0 78 0;
#X connect 74 0 83 0;
#X connect 75 0 66 0;
#X connect 75 1 76 0;
#X connect 75 2 26 0;
#X connect 76 0 84 0;
#X connect 77 0 80 0;
#X connect 78 0 77 0;
#X connect 78 1 77 1;
#X connect 79 0 80 0;
#X connect 79 1 80 1;
#X connect 80 0 81 0;
#X connect 81 0 88 0;
#X connect 82 0 85 0;
#X connect 83 0 82 0;
#X connect 83 1 82 1;
#X connect 84 0 85 0;
#X connect 84 1 85 1;
#X connect 85 0 86 0;
#X connect 86 0 87 0;
#X connect 87 0 88 0;
#X connect 87 1 88 1;
#X connect 88 0 41 0;
#X connect 88 0 89 0;
