#N canvas 50 50 600 600 10;
#X obj 10 550 pdga_helpcredit;
#X text 25 25 Common abstractions generated - vbap#ind_f.pd;
#X obj 25 125 inlet~;
#X obj 125 125 inlet;
#X obj 225 125 inlet;
#X obj 325 125 inlet;
#X obj 425 125 inlet;
#X obj 525 125 loadbang;
#X obj 525 175 float \$1;
#X obj 125 225 vbap;
#X obj 225 225 vbap;
#X obj 325 225 vbap;
#X obj 425 225 vbap;
#X obj 125 325 +~;
#X obj 225 325 +~;
#X obj 325 325 +~;
#X obj 425 325 +~;
#X obj 25 425 snake~ in 4;
#X obj 25 525 outlet~;
#X connect 7 0 8 0;
#X connect 2 0 9 0;
#X connect 2 0 10 0;
#X connect 2 0 11 0;
#X connect 2 0 12 0;
#X connect 3 0 9 1;
#X connect 4 0 10 1;
#X connect 4 0 9 2;
#X connect 5 0 11 1;
#X connect 5 0 10 2;
#X connect 6 0 12 1;
#X connect 6 0 11 2;
#X connect 3 0 12 2;
#X connect 8 0 9 3;
#X connect 8 0 10 3;
#X connect 8 0 11 3;
#X connect 8 0 12 3;
#X connect 9 0 13 1;
#X connect 9 1 14 0;
#X connect 10 0 14 1;
#X connect 10 1 15 0;
#X connect 11 0 15 1;
#X connect 11 1 16 0;
#X connect 12 0 16 1;
#X connect 12 1 13 0;
#X connect 13 0 17 0;
#X connect 14 0 17 1;
#X connect 15 0 17 2;
#X connect 16 0 17 3;
#X connect 17 0 18 0;
