#N canvas 323 224 524 319 10;
#X obj 451 38 inlet~;
#X obj 291 59 float \$1;
#X obj 33 142 vbap, f 8;
#X obj 91 142 vbap, f 8;
#X obj 33 38 inlet;
#X obj 149 142 vbap, f 8;
#X obj 206 142 vbap, f 8;
#X obj 72 38 inlet;
#X obj 111 38 inlet;
#X obj 150 38 inlet;
#X obj 291 38 loadbang;
#X text 192 21 fixed angle of the virtual LS;
#X obj 33 203 +~;
#X obj 78 203 +~;
#X obj 136 203 +~;
#X obj 193 203 +~;
#X obj 33 260 outlet~;
#X obj 88 260 outlet~;
#X obj 146 260 outlet~;
#X obj 203 260 outlet~;
#X obj 265 141 vbap, f 8;
#X obj 322 141 vbap, f 8;
#X text 66 19 6 real angles;
#X obj 189 38 inlet;
#X obj 228 38 inlet;
#X obj 251 203 +~;
#X obj 258 260 outlet~;
#X obj 310 202 +~;
#X obj 315 259 outlet~;
#X connect 0 0 6 3;
#X connect 0 0 5 3;
#X connect 0 0 3 3;
#X connect 0 0 2 3;
#X connect 0 0 20 3;
#X connect 0 0 21 3;
#X connect 1 0 2 2;
#X connect 1 0 3 2;
#X connect 1 0 5 2;
#X connect 1 0 6 2;
#X connect 1 0 20 2;
#X connect 1 0 21 2;
#X connect 2 0 12 0;
#X connect 2 1 13 0;
#X connect 3 0 13 1;
#X connect 3 1 14 0;
#X connect 4 0 2 0;
#X connect 4 0 21 1;
#X connect 5 0 14 1;
#X connect 5 1 15 0;
#X connect 6 0 15 1;
#X connect 6 1 25 0;
#X connect 7 0 2 1;
#X connect 7 0 3 0;
#X connect 8 0 3 1;
#X connect 8 0 5 0;
#X connect 9 0 5 1;
#X connect 9 0 6 0;
#X connect 10 0 1 0;
#X connect 12 0 16 0;
#X connect 13 0 17 0;
#X connect 14 0 18 0;
#X connect 15 0 19 0;
#X connect 20 0 25 1;
#X connect 20 1 27 0;
#X connect 21 0 27 1;
#X connect 21 1 12 1;
#X connect 23 0 6 1;
#X connect 23 0 20 0;
#X connect 24 0 20 1;
#X connect 24 0 21 0;
#X connect 25 0 26 0;
#X connect 27 0 28 0;
